<svg width="131" height="50" viewBox="0 0 131 50" fill="none" xmlns="http://www.w3.org/2000/svg">
<path d="M116.026 1.44312C115.686 2.99236 115.135 4.13837 114.392 4.90238L113.861 4.56282C114.434 3.09847 114.71 2.24958 114.689 2.03735L114.54 1.80391C114.349 1.82513 114.095 2.33446 113.776 3.35314L113.5 3.37436C113.479 3.18336 113.437 3.03481 113.352 2.88625L113.225 2.90747C110.72 9.88965 109.596 13.1367 107.282 18.5059C106.858 19.8854 106.497 20.6494 106.179 20.798C106.2 20.9465 106.285 21.0314 106.455 21.0102C106.518 21.6893 106.348 22.3472 105.988 23.0051C104.905 26.0823 104.205 27.7801 103.844 28.0772L104.078 29.5416C104.099 29.6902 104.014 29.7963 103.844 29.7963L103.59 29.8175C103.547 29.4143 103.399 29.2233 103.144 29.2445L103.017 29.2657C102.698 29.775 102.444 30.3693 102.274 31.0484L102.528 31.0272C102.868 30.8149 103.017 30.5603 102.995 30.2419L103.505 30.1995L103.781 30.3056C103.547 30.6664 103.441 30.9635 103.462 31.1757L103.59 31.4092L103.271 32.1732L103.292 32.3005C103.59 32.2793 103.908 32.3642 104.247 32.5764C104.481 32.5552 104.736 32.4491 105.011 32.2793C105.309 32.2581 106.37 32.2368 108.237 32.2368L109.171 31.9185C110.317 31.8973 110.487 31.9397 111.484 31.8548L111.888 31.8124L112.1 31.6638L112.121 31.7912C113.14 31.7063 113.225 31.77 114.031 31.8761L114.052 32.0034L113.479 32.0458L113.5 32.2793C113.67 32.2581 113.819 32.2156 113.946 32.1095C114.095 32.0883 114.18 32.1732 114.201 32.343C113.967 32.3642 113.713 32.4278 113.416 32.5127L113.161 32.4278C112.758 32.534 112.843 32.5552 112.588 32.5764L112.185 32.4915C112.185 32.5552 112.163 32.5976 112.1 32.6189C112.121 32.7674 112.185 32.8523 112.333 32.8311L112.821 32.7886L112.609 32.7037C112.609 32.7674 112.652 32.8099 112.736 32.8099L114.837 32.6189L115.644 32.4491C115.644 32.5127 115.686 32.5552 115.75 32.5552L116.132 32.4066L116.854 32.343C117.427 32.3005 117.405 32.2581 118.615 32.0671C118.615 32.0034 118.636 31.961 118.7 31.961V32.0671C121.013 31.6851 120.801 31.7063 121.289 31.5365L121.183 31.2818C120.525 31.4304 120.546 31.3455 120.207 31.3879L118.445 31.4728L118.424 31.3455L119.4 31.2182L119.761 31.1969L119.952 31.0484L119.973 31.1757C121.353 31.0484 121.841 31.4092 128.271 30.0509C128.611 30.0297 128.59 29.7326 128.802 29.1384C128.674 29.1384 128.568 29.1171 128.462 29.0535C127.932 29.2657 127.656 29.1596 126.637 29.3294C126.552 29.3294 126.489 29.2657 126.446 29.0959V28.9898L127.422 29.0323C127.592 29.011 127.974 28.9898 128.483 28.6927C128.59 28.7564 128.399 28.82 128.505 28.7988L128.674 28.7776C128.781 28.7776 128.823 28.6927 128.823 28.5229L128.717 28.2895C128.059 28.3531 127.741 28.3744 127.21 28.6715L127.189 28.5441L126.382 28.629C126.361 28.3744 126.298 28.2683 126.191 28.2683L125.767 28.3107C125.279 28.3531 125.045 28.3319 124.812 28.5229C124.812 28.438 124.77 28.3956 124.727 28.3956L124.26 28.438L123.984 28.5866C123.984 28.5017 123.942 28.4593 123.899 28.4593L123.73 28.6078L123.708 28.4805L123.072 28.438L122.923 28.4593L122.944 28.6927L123.284 28.7776L123.581 28.7564C123.687 28.82 123.815 28.8413 123.942 28.8413L124.218 28.7139V28.82C122.711 29.202 122.711 29.1172 121.671 29.3082C121.544 29.2233 121.459 29.202 121.416 29.202C121.31 29.3082 121.544 29.2233 121.48 29.2233C121.31 29.2445 121.225 29.1596 121.204 29.011L121.735 28.9474C121.777 28.9474 121.798 28.9898 122.096 29.0535C122.52 28.8413 122.541 28.7564 122.775 28.7351L122.753 28.5017C121.268 28.7988 121.862 28.6078 119.994 28.7564H119.91L119.888 28.5229C122.287 28.2258 121.48 28.3956 122.287 28.1621C122.287 28.247 122.329 28.2895 122.371 28.2895C122.456 28.2046 122.584 28.1409 122.711 28.1409L122.881 28.1197C123.708 28.056 124.006 28.2258 125.661 27.7589V27.865L125.937 27.7377L126.191 27.7165C126.17 27.4618 126.552 27.4406 126.658 27.4194L126.637 27.1647C123.73 27.7589 122.966 27.5891 122.159 27.8226V27.7165C121.395 27.865 121.374 27.7801 121.183 27.8014C121.119 27.8014 121.034 27.865 120.95 27.9499C120.95 27.865 120.907 27.8226 120.843 27.8226C120.716 27.8226 120.78 27.865 120.674 27.9711L120.843 27.8226L118.318 28.2258C118.318 28.1621 118.275 28.1197 118.212 28.1197C116.938 28.3956 117.278 28.438 115.559 28.5866C115.474 28.5866 115.368 28.629 115.241 28.7139C115.241 28.6503 115.198 28.6078 115.113 28.6078L114.052 28.6927L113.352 28.8625C113.352 28.7988 113.309 28.7564 113.225 28.7564C112.821 28.8625 112.482 28.9261 112.206 28.9474H112.185C112.015 28.9686 112.27 28.9049 112.142 28.8413L111.93 28.9686C111.612 28.9898 111.781 28.9474 110.72 28.9686C108.853 29.202 109.065 29.2233 108.853 29.2445L108.152 29.202C108.152 29.2657 108.131 29.3082 108.046 29.3294C107.261 29.2233 106.858 29.0959 106.837 28.9474C106.943 28.2046 107.112 27.8226 107.388 27.7801L107.516 27.7589L107.388 28.0136L107.516 27.9924C107.77 27.865 107.876 27.7377 107.876 27.6104L107.855 27.3557L107.601 27.3769L107.579 27.1435C107.558 26.9525 107.579 26.8039 107.643 26.6554L108.216 25.7428L108.237 25.9762L108.513 25.955L108.492 25.7216L108.343 25.4881C108.534 25.3183 108.704 25.2122 108.832 25.2122L108.81 25.0849L108.45 25.1061L108.428 24.7453C109.15 23.2173 109.511 22.326 109.489 22.0925L109.744 22.1986C109.914 22.1774 109.999 22.0925 109.978 21.9228L109.723 21.944V21.8379C109.702 21.6469 109.744 21.4771 109.808 21.3285C110.211 20.9253 110.381 20.5009 110.338 20.0552C110.423 20.0552 110.466 20.0976 110.466 20.1825C110.805 19.9915 111.06 19.4822 111.251 18.6333C111.845 17.5509 112.694 15.3862 113.798 12.1604C115.92 6.45161 115.835 5.83617 116.132 4.49915L115.877 4.52037C115.899 4.69015 115.856 4.85993 115.771 5.00849C115.601 4.94482 115.453 4.90238 115.368 4.90238V4.79627C115.326 4.30815 115.538 3.71392 116.005 3.01359H116.111L116.323 3.84126L116.578 3.82003C116.578 3.75637 116.641 3.43803 116.769 2.82258C116.747 2.69524 116.663 2.63158 116.472 2.61035L116.238 2.75891C116.217 2.58913 116.238 2.14347 116.259 1.40068L116.026 1.44312ZM112.97 5.1146L113.097 5.09338C112.906 5.43294 112.758 5.62394 112.609 5.64516L112.588 5.28438C112.694 5.26316 112.821 5.22071 112.97 5.1146ZM111.909 7.66129C112.163 6.62139 112.418 6.02717 112.652 5.87861L112.673 6.00594C112.545 6.98217 112.333 7.47029 112.036 7.51273L112.079 8.12818C111.845 8.44652 111.739 8.70119 111.76 8.89219L111.633 8.91341L111.569 8.06452C111.697 8.04329 111.824 7.91596 111.909 7.66129ZM111.506 9.04075C111.527 9.18931 111.421 9.52886 111.23 10.0382L111.102 10.0594L111.081 9.69865C111.23 9.2742 111.378 9.06197 111.506 9.04075ZM104.523 24.4694L104.651 24.7029C104.842 24.6817 104.927 24.5968 104.905 24.4482L104.884 24.3209L104.757 24.3421L104.523 24.4694ZM107.876 27.2496V27.3557C108.067 27.3345 108.258 26.9949 108.428 26.337L108.174 26.2521C107.961 26.8251 107.876 27.1435 107.876 27.2496ZM129.354 27.9924V28.0985L129.141 28.3531L129.545 28.2046H129.587L129.566 27.9711H129.481L129.332 28.0985C129.332 28.0348 129.778 27.9075 129.438 27.8438C129.375 27.9499 129.545 27.9711 129.354 27.9924ZM130.181 28.7564L130.754 28.7139C130.733 28.5654 130.372 28.5229 130.245 28.5229H130.16L130.181 28.7564ZM120.037 28.9686L120.207 29.1808C120.207 29.1171 120.228 29.0747 120.292 29.0747L120.419 29.3082L119.888 29.2445C119.846 29.0747 119.91 28.9898 120.037 28.9686ZM118.297 29.1596C118.488 29.1384 118.615 29.2657 118.615 29.4355H118.021V29.3294C118.084 29.3082 118.191 29.2657 118.297 29.1596ZM119.655 29.0959L119.676 29.2233L119.188 29.2657L119.167 29.1384L119.655 29.0959ZM114.731 29.6053C114.731 29.6689 114.774 29.7114 114.859 29.7114C115.644 29.5628 115.559 29.5416 115.941 29.4992C116.068 29.4779 116.132 29.5628 116.153 29.7114L113.967 29.9024L114.18 30.0085L114.158 29.8812L113.331 29.9448L113.309 29.8175L114.052 29.7538L114.731 29.6053ZM116.981 29.4143V29.5204C116.917 29.5204 117.193 29.5416 117.066 29.6477C116.599 29.6053 116.578 29.5628 116.238 29.584V29.4779L116.981 29.4143ZM117.533 29.3506V29.4567L117.129 29.4992V29.393L117.533 29.3506ZM103.95 31.5153L103.972 31.8761C103.844 31.8973 103.738 31.8124 103.696 31.6426V31.5365L103.95 31.5153ZM122.117 31.1969L122.138 31.4304L122.562 31.3879L122.393 31.2818L122.414 31.4092L122.838 31.2394C125.746 30.9211 126.085 31.0484 126.043 30.7088V30.6027C123.114 31.2606 122.732 31.1333 122.117 31.1969ZM126.658 30.7937L127.083 30.8786L127.062 30.6452L126.637 30.5603L126.658 30.7937ZM114.095 31.6214C114.222 31.6851 113.946 31.7487 114.116 31.7275L115.601 31.6002L115.623 31.7275C115.198 31.77 114.922 31.8336 114.837 31.9185C114.837 31.8336 114.795 31.7912 114.71 31.7912L114.073 31.8548L114.052 31.7275C114.222 31.7063 113.967 31.7063 114.095 31.6214ZM120.971 31.4516L121.098 31.6851C121.586 31.5789 121.31 31.6002 121.438 31.4941C121.438 31.5789 121.48 31.6214 121.523 31.6214L121.862 31.6002L121.841 31.3455L120.95 31.3243L120.971 31.4516ZM112.567 32.3642H112.482L112.461 32.1307H112.545L112.567 32.3642ZM105.924 33.1706L105.945 33.298L109.85 32.9796L109.829 32.7462L106.709 33.0009L106.051 32.916L105.924 33.1706ZM110.275 32.9372H110.317L110.296 32.7037H110.253L110.275 32.9372ZM50.8519 12.4363C48.093 15.7258 46.6711 17.5297 46.5649 17.8905C45.4402 19.0577 44.8884 19.7581 44.952 19.9915C44.6549 20.1825 44.5276 20.3735 44.57 20.5857C44.4852 20.607 44.4215 20.5645 44.4003 20.4796C43.9121 21.2649 43.2118 21.753 42.2568 21.9864L41.2593 22.2199C41.132 22.2411 41.0683 22.3472 41.0683 22.517L41.0896 22.6443L41.4716 22.5594L41.4928 22.6655L40.6439 22.9839L39.1371 23.3234L38.3519 23.3659C38.2458 23.472 38.9673 23.3447 38.6914 23.4295L37.7152 23.663C37.121 23.8115 36.7814 23.7479 36.739 23.5144L36.6329 23.5357C36.6965 23.7691 36.6329 23.9177 36.4631 23.9601L36.6541 23.9177L36.5692 23.5569L34.7865 23.9813L34.9775 24.0662C34.9563 23.9813 34.8714 23.9601 34.7016 24.0026L34.4682 24.1936L34.1923 24.1299C33.9376 24.2784 33.7678 24.3633 33.7254 24.3633L33.4495 24.2997C32.7067 24.7241 33.2585 24.7241 33.2161 24.7241L33.2797 24.9576L33.7042 24.8514L34.3621 24.809L34.2984 25.0849C31.879 25.7216 33.6405 25.3608 32.9826 25.5093L32.8553 25.5306L32.9189 25.764L33.3009 25.6791L33.3222 25.8065C32.834 25.9126 32.5582 26.0187 32.4733 26.1248L32.452 25.9975C31.8154 26.146 31.1787 26.6341 30.542 27.4406C30.6481 27.9075 29.2687 28.4805 35.7627 26.9737C36.2084 26.9525 36.4631 26.9525 36.5267 26.9312C36.5055 26.8463 36.548 26.8039 36.6329 26.7827C37.3544 26.6978 37.0149 26.8251 37.4605 26.719L38.8612 26.4007L38.5641 26.5705C38.5429 26.5068 38.5853 26.4643 38.649 26.4431C38.8188 26.4856 38.9885 26.4643 39.1796 26.4219L39.2644 26.7827L33.7254 35.5688L32.4945 37.0968L31.9003 39.1129L32.0064 39.0917L32.6006 38.837L32.4096 39.6222L32.4733 39.8557L32.643 40.0679C32.5582 40.0891 32.5369 40.1316 32.5582 40.2165L32.5794 40.3438L32.834 40.2801C33.1948 39.9618 33.3434 39.6647 33.3009 39.41C33.7042 39.4737 33.9588 39.4949 34.0862 39.4737L34.1074 39.601C33.8739 39.6647 33.7466 39.8557 33.7254 40.174L33.7466 40.3014L33.8739 40.2801C35.8901 38.0942 40.7925 30.6027 44.7398 25.5093C44.6125 24.9576 46.6711 24.1935 50.9155 23.2173L51.0429 23.1961C51.1914 23.854 50.8731 25.4669 50.0666 28.0348C49.5361 29.584 49.3026 30.4329 49.3239 30.5603C48.6447 32.6188 48.3264 33.7224 48.3689 33.8922L46.8621 38.8158C45.8858 41.3413 45.143 43.9941 44.6337 46.7954C44.7186 46.7742 44.8672 46.7954 45.0369 46.8379L45.2492 46.6469C45.2704 46.7318 45.3128 46.753 45.4189 46.753L45.334 46.3922L45.9919 46.371C46.1829 46.3285 46.3527 46.0739 46.4801 45.6282C46.4588 44.9703 46.5862 44.6095 46.8833 44.5246C47.2865 42.9542 47.5412 42.1477 47.6261 42.1265C48.0081 40.556 48.284 39.6647 48.475 39.4312C49.048 37.3939 49.4512 36.3328 49.7271 36.2691L49.7908 36.5238L49.3875 37.6061C48.666 40.8107 47.9232 43.3574 47.1804 45.225L47.3926 46.1587L47.52 46.1375C49.3239 42.275 51.8918 34.635 55.2661 23.2173C55.3722 22.2199 55.8391 21.4346 56.7093 20.8829L56.5183 20.6919L56.497 20.5857C56.879 20.5009 57.1549 20.3523 57.3035 20.1401C57.2823 20.0552 56.9427 19.9278 56.2848 19.7581L58.2797 11.2267C58.874 8.67997 59.2772 6.45162 59.4894 4.49915L59.4682 4.37182C59.065 4.11715 58.6617 3.75637 58.3009 3.28947V2.78014L58.2797 2.67403L58.1736 2.69525C56.9427 4.56282 54.4809 7.80985 50.8519 12.4363ZM53.6745 14.3676C53.7806 14.8132 53.6108 15.6409 53.1863 16.8506C53.059 18.3786 52.5072 19.2487 51.5522 19.4822L51.531 19.3548L50.6821 19.6732L50.3001 19.7581C50.1091 19.8005 49.9393 19.8005 49.7695 19.7368L49.6846 19.3973C49.6634 19.2699 50.8731 17.5722 53.3773 14.3251L53.6745 14.3676ZM51.722 19.6732L51.9979 19.6095L52.0616 19.843C50.7245 20.2462 49.9818 20.4584 49.8332 20.5009C49.7483 20.5221 49.621 20.5857 49.4724 20.7131C49.4512 20.6282 49.2814 20.6282 48.9419 20.6919C48.8782 20.4584 49.812 20.1188 51.722 19.6732ZM38.5429 23.2385L38.84 23.1749L38.7763 22.9202L38.4792 22.9839L38.5429 23.2385ZM42.4266 22.2199L42.4902 22.4533L41.8536 22.4958L41.8324 22.3684L42.4266 22.2199ZM34.9987 24.6604L35.02 24.7878L34.6167 24.8727L34.5955 24.7453L34.9987 24.6604ZM34.2559 26.2097L34.2772 26.3158L33.7891 26.4219L33.7254 26.1885L34.2559 26.2097ZM35.4232 25.955L35.4444 26.0611L34.5531 26.2733L34.5318 26.1672L35.4232 25.955ZM36.9724 25.7003L36.9936 25.8277L34.6592 26.3582L34.5955 26.1248C35.9537 25.8913 35.8052 25.9762 36.9724 25.7003ZM48.666 22.9839L48.857 23.1961C48.5811 23.2598 48.3689 23.3447 48.2627 23.4508L47.9869 23.4083C47.5624 23.5781 47.1804 23.7054 46.8833 23.7691L46.6286 23.8328C46.4801 23.8752 46.3739 23.8115 46.3103 23.663L48.0717 23.2598L48.666 22.9839ZM49.9181 22.708L51.1702 22.4109L51.1914 22.5382C50.5123 22.6868 49.9818 22.8565 49.5998 23.0475L49.5785 22.9202C49.6846 22.899 49.7908 22.8141 49.9181 22.708ZM36.7602 26.2733L37.3544 26.146L37.4181 26.3795C37.1634 26.4431 37.3544 26.4431 37.0361 26.5917C36.4206 26.6553 36.548 26.5705 35.5717 26.8039L35.5505 26.6766L36.7602 26.2733ZM38.3731 25.9975C38.5429 25.955 38.649 26.0187 38.6702 26.1885L38.3094 26.2733C38.1609 26.3158 38.0548 26.2521 37.9911 26.0823L38.3731 25.9975ZM31.7305 39.41L31.7517 39.5374C31.9215 39.4949 31.9852 39.41 31.9427 39.2402L31.9215 39.1129C31.7729 39.1553 31.7093 39.2402 31.7305 39.41ZM32.2398 41.5323C32.2823 41.6808 32.3672 41.7445 32.5369 41.702C32.7067 41.6596 32.7704 41.5747 32.7279 41.4049L32.7067 41.2776L32.452 41.3413L32.2398 41.5323ZM45.7797 45.1825C45.9495 45.1401 46.0344 45.2037 46.0768 45.3523L46.0981 45.4796L45.6099 45.5857C45.6524 45.416 45.6524 45.2886 45.6312 45.2037L45.7797 45.1825Z" fill="#F5DA55"/>
<path d="M65.4317 5.92105C64.3281 6.70628 63.076 7.51274 61.6753 8.29797L61.6965 8.53141C61.7814 8.53141 61.9088 8.46774 62.0785 8.36163C62.2483 8.34041 62.3332 8.4253 62.3544 8.57385L62.5879 8.44652H62.694V8.55263C62.7152 8.67996 61.8239 9.35908 60.0836 10.59L60.211 10.8447H60.1049L59.829 10.7385C59.829 10.8234 59.7228 10.8871 59.4682 10.9083V11.0144L59.7441 11.354C59.6592 11.354 59.5106 11.3328 59.3408 11.2479C58.7678 11.2903 58.2161 11.7148 57.6643 12.4788L57.7916 12.7122C58.2797 12.2666 58.5556 12.0331 58.6405 12.0331L58.6617 12.3939C58.5768 12.3939 58.4495 12.4576 58.2797 12.5637L58.5981 13.0093C59.1711 12.3727 59.8077 11.8421 60.4869 11.3964C60.8264 11.5026 61.0174 11.6087 61.0174 11.7148L61.2721 11.6936C63.1821 10.2929 65.0497 9.29542 66.896 8.67997L66.9172 8.91341C66.5777 9.42275 66.3442 9.67742 66.2169 9.69865C66.2381 9.86842 66.2806 10.017 66.3655 10.1655C66.3867 10.4839 65.559 12.6061 63.8612 16.5323C59.9775 25.6367 56.7305 32.3854 54.0989 36.7572C54.0989 36.8421 54.1626 36.9694 54.2687 37.118C54.9266 36.9694 55.3298 36.7997 55.4996 36.6511H55.6057L55.6269 36.8846L55.9028 36.8633L56.1363 36.736C56.1363 36.7997 56.2211 36.8421 56.3909 36.8209L56.4121 37.0756C56.4334 37.309 56.2848 37.6698 56.0089 38.1791C55.733 38.4762 55.4359 39.1129 55.1388 40.0679L55.16 40.1952L55.4147 40.174C56.4758 38.9856 57.261 37.8396 57.8128 36.6936C60.8901 35.781 63.2245 34.9109 64.8587 34.0407C66.514 33.8922 67.7449 33.4677 68.5938 32.7674L68.5726 32.6401L67.9359 32.8311L67.8086 32.8523L67.7874 32.725C68.997 32.5552 69.8247 32.2793 70.2704 31.9185C72.6049 30.1146 74.3663 28.8413 75.576 28.0985C79.2687 25.382 81.0089 22.7929 80.7967 20.2886C80.7755 20.034 79.969 19.0153 78.3561 17.2326C78.3349 16.893 78.8867 16.4049 80.0115 15.7682L83.2373 12.9669C83.9588 12.0543 84.3833 10.5688 84.5106 8.51019L84.4682 8.04329C84.3408 6.62139 83.3009 5.47538 81.3485 4.58404C80.1813 3.79881 78.1015 3.37436 75.1091 3.28947C72.6897 3.45925 69.4427 4.35059 65.4317 5.92105ZM82.7067 6.09084L82.5794 6.3455L79.014 4.83871C81.4121 4.94482 82.6431 5.34805 82.7067 6.09084ZM68.233 16.0229C68.4877 14.6859 68.7636 13.9431 69.0607 13.7733L71.756 7.74618C71.7347 7.3854 72.2865 7.08828 73.4538 6.87606L73.8357 6.83362L73.857 7.1944C75.003 7.0034 75.7033 6.89728 76.0004 6.87606C78.1227 6.68506 79.2262 7.13073 79.3111 8.14941L79.5658 8.12818L79.5234 7.55518L79.778 7.53396C80.3935 7.87352 80.7118 8.27674 80.7543 8.76485C80.7755 9.10441 80.6057 9.52886 80.2449 10.0382C80.0751 10.0594 79.9902 9.93209 79.969 9.69865L79.7144 9.71986L79.6295 10.4414C78.5471 12.0756 77.7831 12.9032 77.295 12.9457C76.8706 13.5399 76.5947 13.837 76.4673 13.837C76.1278 14.2402 75.2152 14.9406 73.7084 15.8956C73.1991 15.938 71.3527 16.6596 68.1481 18.0603C67.9996 17.9966 67.8086 17.9754 67.6388 17.9966L67.6176 17.7632C67.5751 17.3175 67.7874 16.7445 68.233 16.0229ZM83.0463 8.59508L83.0675 8.84975C82.9402 8.84975 82.7067 8.46774 82.3247 7.70373L82.3035 7.47029C82.5369 7.44907 82.7916 7.83107 83.0463 8.59508ZM59.5318 11.4813L59.5531 11.6087C59.4682 11.6087 59.3408 11.6723 59.1711 11.7572H59.0649L59.0437 11.5238L59.5318 11.4813ZM67.3205 11.2903L67.3417 11.6511C67.2144 11.6511 67.0658 11.8421 66.8748 12.1604L66.8536 11.927C67.0658 11.6511 67.1719 11.4389 67.1719 11.2903H67.3205ZM66.1108 13.7946L66.1532 14.2615L66.0259 14.2827L65.9835 13.8158L66.1108 13.7946ZM65.8137 14.6647C65.7925 15.0679 65.6863 15.2801 65.4953 15.3014L65.368 15.3226C65.5166 15.0467 65.5802 14.8345 65.559 14.6859L65.8137 14.6647ZM65.2619 15.9168L65.2831 16.0441L65.0709 16.4261L64.8162 16.4474L64.795 16.32C65.0497 16.2988 65.177 16.1715 65.1558 15.9168H65.2619ZM64.7313 17.0416L64.6464 17.657H64.5403L64.4979 17.0416H64.7313ZM77.8043 17.4873L78.3349 17.8056C78.3561 17.9542 78.2712 18.0603 78.1015 18.0603C77.868 17.9117 77.6982 17.8481 77.5709 17.8693V17.5085L77.8043 17.4873ZM67.5751 18.8455L67.5964 19.0789L67.087 19.1214L67.0658 18.8879L67.5751 18.8455ZM75.8307 19.7156C76.1914 19.8854 76.3612 20.034 76.3824 20.1613V20.2674C76.0429 20.2886 75.7245 20.1188 75.4274 19.7368L75.8307 19.7156ZM65.1982 22.326C66.6414 22.1986 68.9121 21.5195 72.0318 20.2886L72.8171 20.225C74.3875 20.0976 75.5548 20.3947 76.34 21.1375L76.3824 21.6044C75.8094 23.2598 75.1728 24.236 74.4724 24.5331L71.2678 27.1222C68.8697 28.6927 67.5751 29.4779 67.3629 29.4992C63.5429 31.6002 61.166 32.6825 60.2322 32.7674L60.1049 32.7886C60.1897 32.343 61.8875 28.8625 65.1982 22.326ZM68.6575 20.9465L68.6787 21.0739L68.1694 21.1163L68.1481 20.989L68.6575 20.9465ZM80.2237 20.416L80.3086 21.3922C80.1813 21.6256 80.0751 21.753 79.9478 21.7742L79.7992 20.1188C80.0751 20.2037 80.2237 20.3099 80.2237 20.416ZM60.6354 28.7351C60.4656 29.5416 60.2958 29.966 60.1261 29.966V29.8599C60.0624 29.4779 60.2322 29.0959 60.6354 28.7351ZM63.84 33.2767C64.7738 33.107 67.3417 31.7699 71.5437 29.2445L71.565 29.4779C71.565 29.584 71.2254 29.9024 70.4826 30.4117C68.3604 31.4728 67.087 32.1732 66.705 32.534C64.3918 33.3404 63.2458 33.8497 63.267 34.0407C61.2084 34.8472 59.8714 35.4414 59.2135 35.8234C59.0649 35.8447 58.8315 35.781 58.5556 35.6324C58.5132 35.208 58.7042 34.8896 59.1074 34.635C59.4682 34.6138 59.8077 34.6562 60.1261 34.7835C60.5081 34.5925 61.166 34.3803 62.121 34.1256L62.0998 33.8922L61.3145 33.9559C61.3994 33.8073 62.1422 33.4677 63.5217 32.916L63.9037 32.8735V32.9796C63.2458 33.0433 62.885 33.2343 62.8001 33.5739C62.8213 33.7224 62.9062 33.8073 63.076 33.7861C63.6065 33.5314 63.84 33.3404 63.84 33.2767ZM59.8714 30.3693V30.4754C59.8926 30.6452 59.8077 30.7513 59.638 30.7513L59.6167 30.6239C59.6167 30.5178 59.7016 30.4117 59.8714 30.3693ZM65.8986 32.0246C65.6015 32.0458 65.0285 32.3005 64.1796 32.7674L64.0522 32.7886L64.031 32.5552C64.6464 32.4915 65.1982 32.2581 65.6227 31.8336C65.7925 31.8124 65.8773 31.8761 65.8986 32.0246ZM59.6592 33.7649L60.0412 33.7224L60.0624 33.8497C59.9775 33.8497 59.8502 33.9134 59.6804 33.9983L59.4257 34.0195C59.4045 33.8922 59.4894 33.8073 59.6592 33.7649ZM57.0913 35.1868L57.3459 35.2929C57.261 36.0357 57.0276 36.4177 56.688 36.4389C56.3909 36.3116 56.1363 36.2479 55.9028 36.2691L55.8816 35.9083C55.8604 35.781 55.9453 35.6961 56.115 35.6537C56.2848 35.6324 56.3697 35.7598 56.3909 35.9932C56.8154 35.4627 57.0488 35.1868 57.0913 35.1868ZM15.4741 4.85993C14.031 5.92105 12.3756 6.96095 10.5293 7.97963L10.5505 8.29797C10.6778 8.29797 10.8264 8.21308 11.0386 8.10696C11.2509 8.08574 11.3782 8.17063 11.3782 8.38285L11.7177 8.19185L11.8875 8.17063L11.9087 8.31919C11.93 8.46774 10.7627 9.38031 8.4495 11.0144L8.6405 11.3115L8.47072 11.3328L8.10994 11.2054C8.10994 11.3115 7.96138 11.3752 7.62182 11.3964L7.64304 11.5662L8.02505 11.9907C7.89771 11.9907 7.72793 11.9694 7.51571 11.8846C6.77293 11.9482 6.03014 12.5 5.30858 13.5187L5.49958 13.8158C6.13625 13.2428 6.49703 12.9457 6.60315 12.9457L6.64559 13.4126C6.53948 13.4126 6.3697 13.4975 6.15748 13.6036L6.5607 14.1978C7.32471 13.3701 8.15238 12.6698 9.08617 12.0968C9.55306 12.2241 9.78651 12.3514 9.78651 12.5212L10.1261 12.5C12.6091 10.6537 15.0709 9.33786 17.5115 8.51019L17.5327 8.82852C17.087 9.50764 16.7687 9.8472 16.5989 9.86842C16.6201 10.1019 16.705 10.2929 16.8323 10.4839C16.8748 10.9083 15.7712 13.6885 13.5217 18.8667C8.38583 30.8786 4.0989 39.7496 0.639648 45.5221C0.639648 45.6282 0.724538 45.798 0.83065 45.989C1.67955 45.7767 2.23133 45.5857 2.46478 45.3735L2.65578 45.3523L2.677 45.6706L2.99534 45.6494L3.33489 45.4584C3.33489 45.5645 3.46223 45.607 3.67445 45.5857L3.69568 45.9041C3.7169 46.2224 3.54712 46.7105 3.14389 47.3684C2.78311 47.7717 2.42233 48.5993 2.01911 49.8515L2.04033 50L2.35866 49.9788C3.73812 48.4295 4.79924 46.9015 5.5208 45.416C9.57428 44.2275 12.6515 43.0603 14.795 41.9143C16.9385 41.7233 18.5938 41.1715 19.6974 40.2377L19.6762 40.0679L18.8697 40.3014L18.6787 40.3226L18.6575 40.1528C20.2279 39.9194 21.3315 39.5586 21.9257 39.0917C25.003 36.7148 27.3162 35.0382 28.8867 34.0407C33.7466 30.4754 36.0386 27.0374 35.7627 23.7691C35.7415 23.4295 34.6592 22.0925 32.5582 19.7581C32.5157 19.3124 33.2585 18.6757 34.7441 17.8268L38.9673 14.1129C39.9011 12.9032 40.4741 10.9508 40.6651 8.25552L40.6015 7.61884C40.4317 5.73005 39.0734 4.20203 36.4843 3.0348C34.9563 1.9949 32.2186 1.44312 28.2712 1.37946C25.0242 1.67657 20.7373 2.82258 15.4741 4.85993ZM38.2245 5.13583L38.0972 5.45416L33.3858 3.48047C36.5267 3.60781 38.1397 4.1596 38.2245 5.13583ZM19.1668 18.2088C19.4852 16.4686 19.8459 15.4711 20.2492 15.2377L23.7721 7.32173C23.7296 6.83362 24.4724 6.45162 26.0217 6.19695L26.531 6.1545L26.5734 6.60017C28.1014 6.36672 29.0352 6.23939 29.396 6.19695C32.1974 5.9635 33.6405 6.51528 33.7678 7.89474L34.0862 7.87352L34.0225 7.06706L34.3621 7.04584C35.1897 7.49151 35.6354 8.04329 35.6779 8.70119C35.7203 9.14686 35.4869 9.69864 34.9563 10.3565C34.7441 10.3778 34.6167 10.2292 34.5955 9.91087L34.2559 9.93209L34.1711 10.8871C32.7492 13.0093 31.7305 14.0917 31.0938 14.1554C30.5208 14.9406 30.16 15.3438 30.0115 15.365C29.5658 15.8956 28.3561 16.8082 26.3612 18.0815C25.7033 18.1452 23.2627 19.079 19.0395 20.9253C18.8273 20.8192 18.615 20.798 18.3604 20.8192L18.3391 20.5221C18.2967 19.9066 18.5514 19.1426 19.1668 18.2088ZM38.6702 8.44652L38.6914 8.74364C38.5217 8.76486 38.2033 8.25552 37.7364 7.23684L37.7152 6.93973C38.0123 6.89729 38.3307 7.40662 38.6702 8.44652ZM7.68549 12.2241L7.70671 12.3727C7.6006 12.3727 7.43082 12.4576 7.2186 12.5637L7.04882 12.5849L7.02759 12.2878L7.68549 12.2241ZM17.9359 11.9694L17.9784 12.4363C17.8298 12.4576 17.6176 12.6698 17.3629 13.1154L17.3417 12.7971C17.6388 12.4363 17.7874 12.1604 17.7874 11.9694H17.9359ZM16.3655 15.2801L16.4291 15.9168L16.2593 15.938L16.1957 15.3014L16.3655 15.2801ZM15.9622 16.4261C15.9198 16.9567 15.7925 17.2326 15.5166 17.2538L15.3468 17.275C15.5378 16.9143 15.6439 16.6596 15.6227 16.4686L15.9622 16.4261ZM15.2619 18.0815L15.2831 18.2301L14.986 18.7394L14.6677 18.7606L14.6464 18.6121C14.9648 18.5908 15.1133 18.4211 15.0921 18.1027L15.2619 18.0815ZM14.5403 19.5671L14.4554 20.3523L14.2857 20.3735L14.222 19.5883L14.5403 19.5671ZM31.7517 20.1401L32.452 20.5645C32.4733 20.7767 32.3672 20.9041 32.1549 20.9253C31.8578 20.7343 31.6244 20.6494 31.4546 20.6494L31.4121 20.1825L31.7517 20.1401ZM18.2755 21.944L18.2967 22.2411L17.6388 22.3048L17.6176 22.0076L18.2755 21.944ZM29.1413 23.0475C29.6082 23.2598 29.8417 23.472 29.8629 23.6418L29.8841 23.7903C29.4385 23.8328 29.0352 23.5993 28.6532 23.09L29.1413 23.0475ZM15.1346 26.4856C17.0446 26.3158 20.0582 25.4245 24.1541 23.8116L25.1515 23.7267C27.2313 23.5569 28.7806 23.9389 29.7992 24.9151L29.8629 25.5518C29.0989 27.7589 28.25 29.0323 27.3374 29.4355L23.093 32.8099C19.9308 34.8896 18.233 35.9295 17.9784 35.9508C12.9486 38.7309 9.80773 40.1528 8.59805 40.2589L8.40705 40.2801C8.57683 39.6859 10.8052 35.1019 15.1346 26.4856ZM19.7186 24.6817L19.7398 24.8302L19.0607 24.8939L19.0395 24.7453L19.7186 24.6817ZM34.9563 24.0026L35.0624 25.2547C34.9138 25.5942 34.7653 25.764 34.5955 25.764L34.4045 23.5569C34.7653 23.7054 34.9351 23.854 34.9563 24.0026ZM9.12861 34.9533C8.91639 36.0357 8.68294 36.5874 8.4495 36.6087L8.42827 36.4601C8.38583 35.9083 8.61928 35.4202 9.12861 34.9533ZM13.3731 40.938C14.604 40.7046 17.9784 38.9219 23.5174 35.6324L23.5386 35.9295C23.5599 36.0569 23.0717 36.4601 22.1167 37.1604C19.2941 38.5399 17.6388 39.4949 17.1507 39.983C14.0947 41.0441 12.5879 41.702 12.6091 41.9567C9.89262 43.0391 8.10994 43.8243 7.26104 44.3124C7.07004 44.3336 6.77293 44.2487 6.39092 44.079C6.34848 43.5272 6.58192 43.0815 7.13371 42.7207C7.6006 42.6783 8.06749 42.7419 8.49194 42.9329C9.00128 42.6783 9.8714 42.3812 11.1235 42.084L11.1023 41.7657L10.1048 41.8506C10.2322 41.6808 11.1872 41.2351 13.0123 40.4924L13.5217 40.4499L13.5429 40.5985C12.694 40.6621 12.2059 40.938 12.0998 41.3837C12.121 41.5747 12.2271 41.6808 12.4393 41.6596C13.0548 41.2351 13.3731 41.0017 13.3731 40.938ZM8.15238 37.0968L8.1736 37.2453C8.19483 37.4576 8.08872 37.5849 7.87649 37.6061L7.85527 37.4576C7.83405 37.2666 7.94016 37.1392 8.15238 37.0968ZM16.0896 39.2615C15.6863 39.3039 14.9436 39.6222 13.8188 40.2589L13.649 40.2801L13.6278 39.9618C14.4342 39.8981 15.1346 39.5798 15.7076 39.0068C15.941 38.9643 16.0683 39.0705 16.0896 39.2615ZM7.85527 41.5535L8.36461 41.511L8.38583 41.6808C8.25849 41.6808 8.10994 41.7657 7.89771 41.8718L7.57938 41.893C7.55816 41.7445 7.64304 41.6171 7.85527 41.5535ZM4.48091 43.4423L4.84169 43.5908C4.71435 44.5458 4.43846 45.034 3.95034 45.0764C3.56834 44.9066 3.22878 44.843 2.91045 44.8642L2.868 44.3973C2.84678 44.2063 2.95289 44.1002 3.18634 44.0365C3.39856 44.0153 3.5259 44.1638 3.54712 44.4822C4.12012 43.7818 4.43846 43.4423 4.48091 43.4423ZM98.6235 1.74024L98.3476 1.63413L93.8273 2.33447C93.6575 2.24958 93.4453 2.20713 93.2118 2.22835C92.9571 2.24958 92.5751 2.33447 92.0021 2.48302L89.8162 3.39559L89.986 3.67147C90.0921 3.67147 90.2407 3.60781 90.4317 3.5017L91.1957 3.56536L91.0896 4.28693C90.3892 4.60527 89.9648 5.07215 89.8587 5.6876C88.7975 6.1545 88.267 6.49406 88.267 6.70628L88.2882 6.83362L88.458 6.8124L88.7551 6.66384L89.0947 7.06706L89.1371 7.61884C89.1583 7.78862 87.3544 11.5874 83.7466 18.9941C80.6269 26.1248 78.9928 30.0297 78.823 30.7301C77.7619 31.0272 77.1252 31.4728 76.9554 32.0458C76.9767 32.2368 77.295 32.343 77.9105 32.4066L77.9317 32.6825L77.6558 33.1494L77.6982 33.7012C77.7195 33.9983 78.5047 34.2105 80.0327 34.3803C80.0327 34.2742 80.0751 34.2318 80.1813 34.2105C80.2025 34.5501 80.1176 35.2292 79.8841 36.2479L80.0539 36.2267C80.6906 35.3565 80.9877 34.7623 80.9665 34.4228L81.0938 34.4015C81.2424 34.3803 81.4121 34.5713 81.6031 34.9533C81.4121 35.0382 80.733 36.5662 79.587 39.5586L79.7568 39.8345L79.9266 39.8132C81.3485 36.2267 82.2398 34.2318 82.6006 33.8497C84.4682 33.68 87.6728 33.3616 92.2568 32.8735L92.5327 32.7037C92.5327 32.8099 92.5964 32.8523 92.7025 32.8311L92.9996 32.8099L93.2755 32.6401C93.2755 32.7462 93.3391 32.7886 93.4453 32.7674L96.9045 32.4703C97.8171 32.3854 98.2627 32.1095 98.2203 31.6426C98.1991 31.5153 98.7509 31.3667 99.8544 31.2182C99.9605 31.2182 100.109 31.2394 100.321 31.3031C100.321 31.2182 100.852 31.1333 101.955 31.0272C101.977 30.4542 102.168 30.1358 102.507 30.1146L102.486 29.8387C102.189 29.8599 101.828 29.9448 101.425 30.0722C100.703 30.0297 100.236 29.9873 100.045 29.9024C99.8544 30.0085 99.7059 30.0722 99.5998 30.0722L97.1804 30.157L96.8833 30.3056C96.8833 30.2207 96.8196 30.1783 96.7135 30.1995L96.5862 30.2207L96.2678 30.3693C96.2678 30.2844 96.0132 30.2207 95.5038 30.157L95.2067 30.3268L94.6125 30.3693L94.5913 30.2207C97.6897 29.8812 99.239 29.4567 99.1965 28.9474C99.3875 28.9261 99.4936 29.0323 99.5149 29.2233L100.427 28.9898L100.406 28.7139L92.9784 28.9261C92.9784 29.0323 92.9359 29.0747 92.8298 29.0959L91.9172 29.011C91.6838 29.0323 91.4928 29.0959 91.3442 29.2233L91.0047 29.0959C90.0709 29.1808 89.3706 29.2869 88.9037 29.4355C88.267 29.393 87.5667 29.393 86.7814 29.4567L85.1049 29.6053L84.3408 29.5204C84.2984 29.0323 85.2534 26.6129 87.2271 22.2623C87.8001 20.798 88.3307 19.8854 88.8188 19.5458C88.9249 19.5458 89.0734 19.5671 89.2857 19.652L90.4741 19.2487L91.0896 19.3548C92.1082 19.27 93.2967 18.9728 94.6549 18.4847C94.9945 18.4635 95.2492 18.4847 95.4189 18.5484L96.3315 18.3362L99.0268 18.1027C100.173 17.9966 101.425 17.7419 102.762 17.3387L102.741 17.0628C102.231 17.1053 101.977 17.0204 101.955 16.8294C101.913 16.4474 101.552 16.2988 100.852 16.3625L100.831 16.0866L101.573 15.8744L103.526 15.7046L103.505 15.4287C103.42 15.4287 103.038 15.4287 102.295 15.4075L102.274 15.1104L103.038 15.0467C103.229 15.0255 103.335 14.9194 103.314 14.7496C102.295 14.7708 101.786 14.7284 101.786 14.601C94.7186 14.9406 91.1957 15.0042 91.1745 14.792C91.0684 14.792 90.9198 14.8557 90.7288 14.983L90.5378 14.6859C92.4054 10.7173 93.5089 8.70119 93.8273 8.67997C93.8485 8.82852 93.7636 9.08319 93.5938 9.42275L93.615 9.55009L93.9122 9.52886C94.6549 7.74618 95.2704 6.83362 95.8009 6.79117C98.0081 6.60017 95.4826 6.45161 100.236 5.70883C100.427 5.79372 100.576 5.83616 100.661 5.81494C102.528 5.43294 105.118 5.05093 108.45 4.64771L108.428 4.37182L106.646 4.54159L106.624 4.26571C106.837 4.24448 107.006 4.18082 107.155 4.05348L107.176 4.20203C107.282 4.20203 107.41 4.13837 107.579 4.01103C107.876 3.98981 108.11 4.01103 108.28 4.09592C108.895 3.92614 109.383 3.84126 109.765 3.79881L110.869 3.6927C111.145 3.52292 111.272 3.37437 111.251 3.22581V3.09847C110.975 3.1197 110.657 3.09847 110.275 3.0348C110.253 2.88625 110.338 2.78013 110.529 2.73769L112.588 2.54669L113.543 2.31324C113.543 2.41935 113.607 2.4618 113.67 2.4618C113.776 2.4618 113.904 2.39814 114.073 2.2708C114.562 2.33447 114.859 2.35569 114.922 2.33447C115.304 1.97368 115.75 1.67657 116.238 1.48557C116.026 1.27334 115.92 1.10357 115.899 0.955009L114.519 1.08234C114.519 0.976232 114.455 0.848898 114.371 0.657896C114.371 0.530562 114.668 0.403223 115.304 0.275889L115.58 0.382001L115.835 0.233448C115.835 0.318338 115.899 0.360782 115.983 0.33956L116.238 0.191C116.238 0.27589 116.302 0.318335 116.387 0.297112L116.514 0.275889L116.493 0C116.302 0.0212224 115.792 0.0212224 114.986 0L114.731 0.169777L114.71 0.0212237C108.237 0.551784 104.566 0.848895 103.696 0.933785C103.59 0.933785 103.123 0.933784 102.337 0.912561C102.337 1.01867 102.253 1.08234 102.062 1.08234L101.786 0.955009L100.831 1.18846C100.618 1.20968 100.236 1.18845 99.7059 1.14601C99.5573 1.25212 99.3875 1.33701 99.1753 1.35823C98.9631 1.37946 104.311 1.06112 104.141 0.976232L103.314 1.20968L103.186 1.2309C102.847 1.25212 102.422 1.25212 101.913 1.18846C101.764 1.29457 101.552 1.37946 101.234 1.40068C101.022 1.4219 100.831 1.37946 100.682 1.29457C100.449 1.35824 99.7695 1.52802 98.6235 1.74024ZM98.9631 2.58914C98.9631 2.69525 99.0692 2.73769 99.239 2.71647L99.2602 2.99236L98.9843 3.01359C98.7721 3.03481 98.5811 2.99236 98.4325 2.90747C98.284 3.03481 98.093 3.09847 97.902 3.1197H97.9869L97.2228 3.0348L97.2016 2.90747C98.1354 2.84381 98.4325 2.73769 98.9631 2.58914ZM99.6634 2.52547L99.812 2.50424L99.8332 2.78014L99.4088 2.82258C99.4088 2.67402 99.4724 2.56791 99.6634 2.52547ZM101.298 2.35569L101.319 2.50424C101 2.52546 100.597 2.61036 100.109 2.75891L99.9605 2.78014L100.088 2.48302L101.298 2.35569ZM89.2432 3.73515L89.7101 3.6927L89.6889 3.41681L89.222 3.45925L89.2432 3.73515ZM92.5751 3.43803L92.7449 3.41681L93.0633 3.54415C93.0845 3.73515 92.9784 3.84126 92.7874 3.84126L92.3205 3.8837L92.2992 3.73515C92.278 3.58659 92.3841 3.5017 92.5751 3.43803ZM103.25 4.05348V4.18082L102.295 4.26571V4.13837L103.25 4.05348ZM100.512 4.45671L100.534 4.60527L99.9818 4.64771L99.9605 4.49915L100.512 4.45671ZM103.144 4.66893L105.054 4.35059L106.03 4.39304L106.051 4.54159C105.584 4.58404 105.181 4.66893 104.842 4.79627C104.842 4.69015 104.651 4.60526 104.269 4.56282L102.762 4.98727C102.465 4.81749 102.316 4.69016 102.316 4.60527L103.144 4.66893ZM101.255 5.09338C101.446 5.07216 101.531 5.15705 101.552 5.34805L100.746 5.43294L100.725 5.15704L101.255 5.09338ZM99.5785 5.00849L99.5998 5.15704L104.566 4.9236L104.545 4.77504L99.5785 5.00849ZM99.8756 5.39049V5.51783L98.7933 5.62394V5.4966L99.8756 5.39049ZM92.7661 11.0144L92.7874 11.163L93.1057 11.1418C93.1057 11.0357 93.1269 10.8871 93.2118 10.6961L93.1906 10.4202C93.0208 10.4414 92.8723 10.6324 92.7661 11.0144ZM81.8366 26.8888L81.8578 27.0161C81.879 27.2071 81.7729 27.3132 81.5607 27.3345L81.5395 27.2071C81.5183 27.0374 81.6244 26.9525 81.8366 26.8888ZM81.5607 27.483C81.5819 27.7589 81.3909 28.438 81.0089 29.5416L80.542 29.584C80.5208 29.393 80.7755 28.7139 81.2636 27.5255L81.5607 27.483ZM86.6753 31.9185C86.6965 32.0671 86.4419 32.2368 85.9538 32.4066L85.02 32.343L84.7228 32.3642L84.7016 32.0883L86.6753 31.9185ZM87.5879 32.0034L87.6091 32.1307L86.8451 32.1944L86.8239 32.0671L87.5879 32.0034Z" fill="#F5DA55"/>
</svg>
