<svg width="64" height="50" viewBox="0 0 64 50" fill="none" xmlns="http://www.w3.org/2000/svg">
<path d="M7.91382 6.53431C7.79544 3.1348 10.4441 0 14.0242 0H50.7097C54.2898 0 56.9385 3.1348 56.8201 6.53431C56.7063 9.79988 56.854 14.03 57.9186 17.4792C58.9866 20.939 60.7876 23.1259 63.7372 23.4069V26.5931C60.7876 26.8741 58.9866 29.061 57.9186 32.5208C56.854 35.97 56.7063 40.2001 56.8201 43.4658C56.9385 46.8652 54.2898 50 50.7097 50H14.0242C10.4441 50 7.79544 46.8652 7.91394 43.4658C8.02754 40.2001 7.87987 35.97 6.81517 32.5208C5.74727 29.061 3.94188 26.8741 0.992126 26.5931V23.4069C3.94176 23.1259 5.74727 20.939 6.81517 17.4792C7.87987 14.03 8.02754 9.79988 7.91382 6.53431Z" fill="url(#paint0_linear_301_154)"/>
<path d="M33.7253 38.2913C39.5215 38.2913 43.0143 35.4533 43.0143 30.7723C43.0143 27.2339 40.5222 24.6723 36.8217 24.2668V24.1194C39.5404 23.6771 41.6739 21.1523 41.6739 18.3327C41.6739 14.3152 38.5021 11.6982 33.6687 11.6982H22.7937V38.2913H33.7253ZM27.0229 15.0707H32.6492C35.7078 15.0707 37.4447 16.4344 37.4447 18.9039C37.4447 21.5393 35.4246 23.0136 31.7619 23.0136H27.0229V15.0707ZM27.0229 34.9189V26.1651H32.6114C36.6139 26.1651 38.6908 27.6393 38.6908 30.5143C38.6908 33.3892 36.6707 34.9189 32.8568 34.9189H27.0229Z" fill="url(#paint1_linear_301_154)"/>
<defs>
<linearGradient id="paint0_linear_301_154" x1="10.3155" y1="1.32329" x2="65.1441" y2="44.8462" gradientUnits="userSpaceOnUse">
<stop stop-color="#9013FE"/>
<stop offset="1" stop-color="#6610F2"/>
</linearGradient>
<linearGradient id="paint1_linear_301_154" x1="24.7063" y1="13.4485" x2="36.962" y2="34.1755" gradientUnits="userSpaceOnUse">
<stop stop-color="white"/>
<stop offset="1" stop-color="#F1E5FC"/>
</linearGradient>
</defs>
</svg>
