<svg width="45" height="50" viewBox="0 0 45 50" fill="none" xmlns="http://www.w3.org/2000/svg">
<path d="M43.4493 11.5291L23.9105 0.283172C23.5868 0.0809062 23.1419 0 22.6564 0C22.171 0 21.726 0.121359 21.4024 0.283172L1.98491 11.5696C1.2972 11.9741 0.811768 12.9854 0.811768 13.754V36.2864C0.811768 36.7314 0.892674 37.2573 1.2163 37.7023L44.4202 12.6214C44.1775 12.1359 43.8134 11.7718 43.4493 11.5291Z" fill="#9B4F96"/>
<path d="M1.09494 37.6618C1.2972 37.9854 1.58038 38.2686 1.86355 38.4304L21.3619 49.7168C21.6856 49.9191 22.1305 50 22.616 50C23.1014 50 23.5464 49.8786 23.87 49.7168L43.2875 38.4304C43.9752 38.0259 44.4606 37.0146 44.4606 36.246V13.7136C44.4606 13.3495 44.4202 12.945 44.2179 12.5809L1.09494 37.6618Z" fill="#68217A"/>
<path d="M31.2729 29.8948C29.5739 32.8884 26.3377 34.911 22.6564 34.911C17.1953 34.911 12.7454 30.4612 12.7454 25C12.7454 19.5388 17.1953 15.089 22.6564 15.089C26.3377 15.089 29.5739 17.1117 31.2729 20.1456L36.5318 17.1117C33.781 12.2977 28.603 9.02104 22.6564 9.02104C13.8377 9.02104 6.67746 16.1812 6.67746 25C6.67746 33.8188 13.8377 40.979 22.6564 40.979C28.5626 40.979 33.7406 37.7427 36.4914 32.9693L31.2729 29.8948ZM36.0059 25.89L36.37 24.1505H34.671V22.2492H36.7341L37.2195 19.7411H39.2017L38.7163 22.2087H40.2535L40.739 19.7411H42.6807L42.1953 22.2087H43.1661V24.11H41.8312L41.4671 25.8495H43.1661V27.7508H41.103L40.6176 30.178H38.6354L39.1208 27.7508H37.5836L37.0982 30.178H35.1564L35.6419 27.7508H34.671V25.8495H36.0059V25.89ZM37.9477 25.89H39.4849L39.849 24.1505H38.3118L37.9477 25.89Z" fill="white"/>
</svg>
