<svg width="35" height="50" viewBox="0 0 35 50" fill="none" xmlns="http://www.w3.org/2000/svg">
<path d="M9.03719 50C11.2473 50 13.3669 49.122 14.9297 47.5592C16.4926 45.9964 17.3705 43.8768 17.3705 41.6667V33.3333H9.03719C6.82705 33.3333 4.70744 34.2113 3.14463 35.7741C1.58183 37.3369 0.703857 39.4565 0.703857 41.6667C0.703857 43.8768 1.58183 45.9964 3.14463 47.5592C4.70744 49.122 6.82705 50 9.03719 50Z" fill="#0ACF83"/>
<path d="M0.703857 25C0.703857 22.7899 1.58183 20.6702 3.14463 19.1074C4.70744 17.5446 6.82705 16.6667 9.03719 16.6667H17.3705V33.3333H9.03719C6.82705 33.3333 4.70744 32.4554 3.14463 30.8926C1.58183 29.3298 0.703857 27.2101 0.703857 25Z" fill="#A259FF"/>
<path d="M0.703857 8.33333C0.703857 6.12432 1.58094 4.00569 3.14233 2.44308C4.70373 0.880461 6.82167 0.00172579 9.03068 0H17.364V16.6667H9.03719C6.82705 16.6667 4.70744 15.7887 3.14463 14.2259C1.58183 12.6631 0.703857 10.5435 0.703857 8.33333Z" fill="#F24E1E"/>
<path d="M17.3705 0H25.7039C27.914 0 30.0336 0.877974 31.5964 2.44078C33.1592 4.00358 34.0372 6.1232 34.0372 8.33333C34.0372 10.5435 33.1592 12.6631 31.5964 14.2259C30.0336 15.7887 27.914 16.6667 25.7039 16.6667H17.3705V0Z" fill="#FF7262"/>
<path d="M34.0372 25C34.0372 27.2101 33.1592 29.3298 31.5964 30.8926C30.0336 32.4554 27.914 33.3333 25.7039 33.3333C23.4937 33.3333 21.3741 32.4554 19.8113 30.8926C18.2485 29.3298 17.3705 27.2101 17.3705 25C17.3705 22.7899 18.2485 20.6702 19.8113 19.1074C21.3741 17.5446 23.4937 16.6667 25.7039 16.6667C27.914 16.6667 30.0336 17.5446 31.5964 19.1074C33.1592 20.6702 34.0372 22.7899 34.0372 25Z" fill="#1ABCFE"/>
</svg>
