<svg width="51" height="50" viewBox="0 0 51 50" fill="none" xmlns="http://www.w3.org/2000/svg">
<path d="M49.113 22.7812L27.2754 0.943654C26.9764 0.644488 26.6214 0.407169 26.2306 0.245254C25.8398 0.0833383 25.421 0 24.998 0C24.5751 0 24.1562 0.0833383 23.7655 0.245254C23.3747 0.407169 23.0197 0.644488 22.7206 0.943654L18.1878 5.47654L23.9398 11.2286C25.2778 10.7597 26.8096 11.0801 27.8756 12.1461C28.3831 12.6545 28.7373 13.2953 28.8979 13.9954C29.0585 14.6955 29.0189 15.4267 28.7838 16.1054L34.328 21.6496C35.6691 21.1869 37.2165 21.4854 38.2872 22.5593C38.6431 22.9153 38.9255 23.338 39.118 23.8031C39.3106 24.2682 39.4097 24.7667 39.4096 25.2702C39.4096 25.7736 39.3103 26.2721 39.1176 26.7372C38.9249 27.2023 38.6425 27.6248 38.2864 27.9808C37.9304 28.3367 37.5077 28.619 37.0426 28.8116C36.5775 29.0042 36.079 29.1033 35.5755 29.1032C35.0721 29.1031 34.5736 29.0039 34.1085 28.8112C33.6434 28.6185 33.2209 28.336 32.8649 27.98C31.7395 26.8546 31.4613 25.1977 32.0303 23.8113L26.8596 18.6407V32.2472C27.235 32.4329 27.578 32.6778 27.8756 32.9724C28.2316 33.3283 28.5139 33.7509 28.7065 34.2159C28.8992 34.681 28.9983 35.1794 28.9983 35.6828C28.9983 36.1861 28.8992 36.6846 28.7065 37.1496C28.5139 37.6146 28.2316 38.0372 27.8756 38.3931C27.5197 38.749 27.0972 39.0314 26.6321 39.224C26.1671 39.4166 25.6686 39.5158 25.1653 39.5158C24.6619 39.5158 24.1635 39.4166 23.6984 39.224C23.2334 39.0314 22.8109 38.749 22.4549 38.3931C22.0986 38.0374 21.8159 37.615 21.623 37.1499C21.4301 36.6848 21.3308 36.1863 21.3308 35.6828C21.3308 35.1793 21.4301 34.6807 21.623 34.2157C21.8159 33.7506 22.0986 33.3281 22.4549 32.9724C22.8254 32.6035 23.2365 32.3237 23.7101 32.1362V18.4031C23.2537 18.2155 22.8254 17.9389 22.4549 17.5668C21.9167 17.0293 21.5508 16.3436 21.4038 15.5973C21.2568 14.851 21.3354 14.0778 21.6296 13.3763L15.9557 7.70547L0.981545 22.664C0.682146 22.963 0.444628 23.3182 0.282575 23.7091C0.120521 24.1 0.0371094 24.519 0.0371094 24.9422C0.0371094 25.3653 0.120521 25.7843 0.282575 26.1753C0.444628 26.5662 0.682146 26.9213 0.981545 27.2203L22.8207 49.0563C23.1197 49.3555 23.4747 49.5928 23.8655 49.7547C24.2563 49.9167 24.6751 50 25.0981 50C25.521 50 25.9399 49.9167 26.3306 49.7547C26.7214 49.5928 27.0764 49.3555 27.3755 49.0563L49.113 27.3532C49.4124 27.0541 49.6499 26.699 49.812 26.3081C49.974 25.9172 50.0574 25.4982 50.0574 25.075C50.0574 24.6519 49.974 24.2328 49.812 23.8419C49.6499 23.451 49.4124 23.0959 49.113 22.7969" fill="#F03C2E"/>
</svg>
