<svg width="23" height="50" viewBox="0 0 23 50" fill="none" xmlns="http://www.w3.org/2000/svg">
<path fill-rule="evenodd" clip-rule="evenodd" d="M0.843651 13.4084C1.19983 17.1578 1.55316 20.8861 1.91462 24.698C2.50392 23.6847 2.93036 22.7129 3.57367 21.9169C4.17272 21.1753 4.92772 20.4909 5.74932 20.017C6.82192 19.398 8.22835 19.9808 8.576 21.0786C8.66941 21.373 8.44644 21.7678 8.36847 22.1167C8.10611 21.9782 7.7678 21.9018 7.59641 21.6898C6.86821 20.7894 6.42959 20.683 5.62423 21.4612C4.12195 22.9135 3.27719 24.733 2.95473 26.7778C2.89259 27.1734 3.13992 27.6173 3.2443 28.0389C3.6549 27.8976 4.1317 27.8456 4.46351 27.5986C5.54219 26.7957 6.21069 25.7036 6.57946 24.3983C6.65946 24.1157 7.09321 23.9333 7.36451 23.7046C7.49447 23.9719 7.79095 24.2866 7.72881 24.4982C7.15432 26.4638 6.54012 28.4176 5.88659 30.3583C5.8208 30.5549 5.45975 30.6528 5.23516 30.7965C5.14459 30.5382 4.95411 30.2677 4.98457 30.0245C5.0528 29.4729 5.23028 28.9348 5.35415 28.4296L2.41376 29.7832C2.57824 31.6604 2.74882 33.7662 2.95107 35.8691C3.10621 37.475 3.36898 37.8908 4.95046 38.1954C6.79592 38.5508 8.67591 38.7778 10.5518 38.9159C13.3145 39.1241 16.0925 38.8626 18.7679 38.1426C19.7718 37.873 20.1723 37.2126 20.2442 36.2269C20.31 35.3192 20.457 34.4172 20.5589 33.5119C20.7592 31.7286 20.9537 29.9449 21.1584 28.0868C20.4814 28.5157 19.9489 28.9957 19.3263 29.1992C18.8731 29.3474 18.3012 29.1306 17.7818 29.0762C17.8813 28.5994 17.8752 28.062 18.1051 27.66C18.4795 27.0028 19.0083 26.433 19.4713 25.8263L19.2719 25.5863C18.9401 25.7824 18.5279 25.9112 18.2919 26.1894C17.8119 26.7555 17.342 27.3615 17.0207 28.0251C16.483 29.1359 16.0732 30.3084 15.5919 31.4471C15.3828 31.941 15.2025 32.6964 14.5019 32.4081C13.7526 32.099 14.2797 31.439 14.4556 30.9695C14.7354 30.2206 15.105 29.505 15.3552 28.9543C14.6461 29.0388 13.9272 29.1407 13.2051 29.2037C12.8997 29.2297 12.5366 29.0623 12.2868 29.1752C11.4563 29.5505 10.9299 29.3998 10.7573 28.4804C10.3727 28.7301 10.047 29.0684 9.66322 29.1594C9.19738 29.2703 8.56544 29.343 8.22429 29.1103C7.95096 28.9239 7.85146 28.2233 7.94487 27.8123C8.13047 26.9951 8.47731 26.2097 8.80668 25.4327C9.01056 24.9515 9.21566 24.1831 9.90365 24.5177C10.5835 24.8479 9.96619 25.4051 9.80942 25.8523C9.56615 26.5435 9.31841 27.2335 9.07311 27.924L9.46299 28.1595C9.8342 27.837 10.2968 27.5743 10.5567 27.1787C10.9823 26.5321 11.2394 25.7767 11.6423 25.1131C11.8092 24.8382 12.1686 24.6806 12.4412 24.4698C12.4964 24.8199 12.6288 25.1797 12.5849 25.5176C12.5415 25.8592 12.3014 26.1715 12.1865 26.5094C12.0139 27.0154 11.8746 27.5328 11.6992 28.1213C12.5289 28.153 12.8843 27.8037 13.1186 27.1876C13.8602 25.241 14.6099 23.2965 15.425 21.3799C15.5643 21.0518 16.0379 20.8666 16.3575 20.6148C16.3945 21.0104 16.5707 21.4587 16.4452 21.7922C15.7771 23.5584 15.027 25.293 14.322 27.0455C14.203 27.3407 14.1648 27.6685 14.0897 27.9812C15.332 27.4228 16.3689 26.8055 16.7474 25.4851C16.84 25.1643 17.2193 24.9259 17.4666 24.6493L18.0417 25.2585C18.2164 25.1115 18.3764 24.9442 18.566 24.8219C19.1631 24.4373 19.806 24.0982 20.4355 24.694C21.0869 25.3101 20.5939 25.9104 20.2535 26.4432C19.8831 27.0244 19.4295 27.5519 19.012 28.1027C19.9509 27.4975 21.2331 27.2262 21.4037 25.9185C21.8196 22.7242 22.1851 19.5235 22.5559 16.3236C22.6659 15.3765 22.7248 14.4233 22.8105 13.4364C15.4149 15.227 8.17799 15.238 0.843651 13.4084V13.4084ZM4.01798 38.3323C4.37416 39.2733 4.91513 40.1977 5.05687 41.1797C5.35619 43.2701 5.43213 45.3921 5.64413 47.4967C5.675 47.8033 5.8736 48.2245 6.12134 48.3593C9.7684 50.3412 13.4508 50.6848 17.1718 48.5173C17.727 48.194 17.8297 47.7672 17.9016 47.1669C18.2497 44.2505 17.4748 41.157 19.3393 38.4107C14.1181 39.7058 9.02234 39.7461 4.01798 38.3323V38.3323ZM16.6044 13.9319C18.376 13.7609 20.126 13.345 21.878 13.0014C22.2082 12.9369 22.5015 12.6855 22.8117 12.5202C22.4028 12.1607 22.049 11.9877 21.6794 11.9443C19.8397 11.727 17.9934 11.5597 16.1548 11.3318C15.877 11.2973 15.3811 10.9545 15.4019 10.892C15.9384 9.27559 15.912 7.44596 17.1295 6.08379C18.6684 4.36179 20.2231 2.65482 21.766 0.947035C20.6182 -0.287607 20.6028 -0.289231 19.5627 0.791486C18.9746 1.40231 18.4373 2.0708 17.7993 2.62395C15.4384 4.67005 13.7802 7.09344 13.4569 10.2885C13.3826 11.0215 12.9801 11.2863 12.2105 11.2977C9.66972 11.3347 7.12611 11.4045 4.59103 11.5715C3.33487 11.6539 2.09413 11.9764 0.846088 12.19L0.834717 12.6566C1.61571 12.8975 2.38167 13.2138 3.17932 13.367C7.62403 14.219 12.1106 14.3652 16.6044 13.9319V13.9319ZM15.1846 12.8158C14.1786 13.6281 13.3472 13.6281 12.5443 12.8158H15.1846Z" fill="#EB4A4B"/>
</svg>
