<svg width="62" height="50" viewBox="0 0 62 50" fill="none" xmlns="http://www.w3.org/2000/svg">
<path d="M42.0296 15.9208L35.1998 18.151L29.258 20.7734L27.5957 21.2122C27.1724 21.6149 26.7285 22.0228 26.2484 22.4358C25.7218 22.89 25.2314 23.3031 24.8545 23.6024C24.4364 23.9328 23.8169 24.5523 23.502 24.9446C23.0322 25.533 22.6605 26.1577 22.5005 26.6378C22.2165 27.5051 22.356 28.3827 22.9032 29.1932C23.6053 30.2256 25.0043 31.2787 26.6355 31.9963C27.4667 32.3629 28.8657 32.8326 29.9187 33.0959C31.6687 33.5398 35.0552 34.02 36.9188 34.0923C37.2956 34.1077 37.8015 34.1077 37.8221 34.0923C37.8635 34.0664 38.1526 33.5141 38.4882 32.8275C39.6342 30.4889 40.4602 28.2949 40.9093 26.4211C41.1777 25.2854 41.3893 23.7728 41.5286 21.9816C41.5648 21.4808 41.5803 19.803 41.5493 19.2351C41.5028 18.3059 41.4202 17.5523 41.2913 16.8141C41.2706 16.7056 41.2654 16.6075 41.2757 16.6024C41.2963 16.5869 41.3583 16.5663 42.1997 16.3236L42.0295 15.921V15.9209H42.0296V15.9208ZM40.4705 16.8346C40.5325 16.8346 40.6976 18.4194 40.7389 19.421C40.7493 19.6326 40.744 19.772 40.7338 19.772C40.6925 19.772 39.8613 19.2816 39.2678 18.9099C38.7515 18.5847 37.7707 17.9342 37.6158 17.8103C37.5641 17.7742 37.5692 17.7691 37.9926 17.6245C38.7101 17.3818 40.4138 16.8346 40.4705 16.8346ZM36.9911 17.9807C37.0376 17.9807 37.1563 18.0477 37.4402 18.2233C38.5036 18.8892 39.9491 19.6946 40.5686 19.963C40.7596 20.0456 40.7802 20.0146 40.3414 20.3141C39.4019 20.9542 38.23 21.5839 36.7949 22.2189C36.5419 22.3325 36.3303 22.4202 36.3252 22.4202C36.3149 22.4202 36.3458 22.2912 36.387 22.1363C36.7329 20.8508 36.9291 19.55 36.9395 18.5072C36.9446 17.9909 36.9446 17.9909 36.9911 17.9755C36.9808 17.9807 36.9859 17.9807 36.9911 17.9807ZM36.2736 18.2542C36.3045 18.2852 36.2839 19.4416 36.2426 19.7564C36.1496 20.5102 36.0051 21.2122 35.7677 22.0021C35.7109 22.193 35.6592 22.3531 35.649 22.3634C35.6282 22.3892 34.921 21.6975 34.6887 21.429C34.286 20.9644 33.9712 20.4998 33.7389 20.0455C33.6201 19.8132 33.4343 19.359 33.4498 19.3435C33.5324 19.2867 36.2529 18.2336 36.2736 18.2542ZM32.8974 19.5809C32.9025 19.5809 32.9077 19.5809 32.9129 19.5861C32.9232 19.5964 32.9594 19.679 32.9904 19.7719C33.1555 20.2211 33.5271 20.8818 33.8473 21.3051C34.1983 21.7698 34.6578 22.2653 35.0397 22.5905C35.1637 22.6938 35.2772 22.7918 35.2926 22.8074C35.3237 22.8384 35.334 22.8331 34.4925 23.1533C33.5169 23.5249 32.4534 23.8966 31.2351 24.2889C30.944 24.3827 30.6533 24.4774 30.3628 24.5729C30.3162 24.5884 30.3318 24.5625 30.466 24.3509C31.0699 23.4062 31.9888 21.5529 32.5051 20.2417C32.5928 20.0145 32.6806 19.7874 32.6961 19.7358C32.7168 19.6635 32.7425 19.6377 32.8096 19.6015C32.8457 19.5913 32.8819 19.5809 32.8974 19.5809ZM31.865 20.0094C31.8805 20.0198 31.6172 20.5721 31.3591 21.078C30.8583 22.0537 30.3111 23.0139 29.5781 24.1806C29.4542 24.3819 29.3355 24.5678 29.32 24.5884C29.2942 24.6246 29.2838 24.6142 29.2012 24.4542C29.0257 24.1083 28.8811 23.6643 28.8037 23.2565C28.7262 22.8538 28.7418 22.1518 28.8295 21.7181C28.8966 21.3981 28.8915 21.4033 29.0463 21.3258C29.7071 20.9903 31.8443 19.9888 31.865 20.0094ZM40.7699 20.3708V20.5876C40.7699 21.7388 40.6461 23.3185 40.4653 24.4697C40.4343 24.671 40.4084 24.8361 40.4034 24.8414C40.4034 24.8414 40.2537 24.8001 40.0782 24.7484C39.3038 24.5058 38.4624 24.1496 37.7035 23.7315C37.2027 23.4579 36.4748 23.0087 36.4955 22.988C36.5006 22.9829 36.7175 22.8694 36.9704 22.7351C37.9823 22.2086 38.9527 21.6407 39.7942 21.078C40.1091 20.8664 40.584 20.5257 40.6873 20.4328L40.7699 20.3708ZM27.9674 21.8988C27.988 21.8988 27.9829 21.9401 27.9519 22.1259C27.9312 22.2602 27.9054 22.508 27.8952 22.6782C27.8538 23.432 27.9778 23.9895 28.3494 24.7535C28.4527 24.9652 28.5353 25.1407 28.5301 25.1458C28.4939 25.1768 25.0766 26.1784 24.0027 26.4726C23.6827 26.5603 23.404 26.6378 23.3832 26.6429C23.3472 26.6533 23.342 26.6481 23.3574 26.5603C23.4762 25.8015 24.0544 24.8103 24.8597 23.974C25.3966 23.4165 25.8251 23.0913 26.5581 22.6731C27.0846 22.3737 27.8951 21.9246 27.9571 21.9039C27.9571 21.8988 27.9622 21.8988 27.9674 21.8988ZM36.0206 23.3391C36.0258 23.3339 36.1496 23.4011 36.2993 23.4888C37.4041 24.1289 38.9424 24.7226 40.2536 25.0272L40.3724 25.053L40.2072 25.1458C39.5206 25.5279 37.2647 26.4674 34.9572 27.3295C34.6216 27.4534 34.2912 27.5773 34.2292 27.6031C34.1672 27.6289 34.1105 27.6444 34.1105 27.6393C34.1105 27.634 34.2034 27.4534 34.3221 27.2314C34.9674 26.0235 35.6179 24.5522 35.9482 23.5301C35.9896 23.432 36.0154 23.3443 36.0206 23.3391ZM35.1998 23.6075C35.205 23.6128 35.1637 23.7211 35.112 23.845C34.663 24.9342 34.0744 26.1216 33.3207 27.4535C33.1297 27.7942 32.9697 28.0678 32.9644 28.0678C32.9594 28.0678 32.8044 27.9749 32.6186 27.8613C31.5241 27.1902 30.5537 26.3642 29.9188 25.5641L29.8258 25.4505L30.2955 25.3214C31.9785 24.862 33.4084 24.3664 34.8281 23.7573C35.0294 23.6747 35.1947 23.6075 35.1998 23.6075ZM40.3002 25.3885C40.3053 25.5073 40.042 26.5707 39.8252 27.3398C39.6445 27.9851 39.4896 28.4911 39.2057 29.3841C39.0818 29.7765 38.9735 30.1016 38.9683 30.1016C38.9631 30.1016 38.9321 30.0965 38.9012 30.0862C37.368 29.8074 35.9948 29.4202 34.7042 28.9041C34.3428 28.7595 33.8266 28.5271 33.7956 28.5014C33.7854 28.4909 34.0951 28.3465 34.4874 28.1761C36.8363 27.1488 39.2729 25.9821 40.1091 25.4814C40.2072 25.4195 40.2846 25.3885 40.3002 25.3885ZM28.525 25.7912C28.5353 25.8015 27.8797 26.7462 26.9607 28.0316C26.6407 28.4808 26.269 29.0073 26.1297 29.2034C25.9903 29.3996 25.7786 29.7094 25.6599 29.8952L25.443 30.2308L25.2107 30.0346C24.937 29.8074 24.4622 29.3222 24.2505 29.0538C23.8065 28.5015 23.5072 27.9181 23.3884 27.3864C23.3316 27.1386 23.3316 27.0146 23.3832 26.9992C23.4606 26.9786 24.839 26.6534 26.1296 26.3539C26.8472 26.1887 27.6783 25.9926 27.9777 25.9203C28.2771 25.8479 28.5198 25.7912 28.525 25.7912ZM29.1857 26.0442L29.3508 26.23C30.0943 27.0611 30.8531 27.6756 31.772 28.2123C31.9373 28.3053 32.0611 28.3878 32.0507 28.3931C32.0147 28.4189 28.8604 29.539 27.3995 30.0449C26.5788 30.334 25.9025 30.5663 25.8974 30.5663C25.8922 30.5663 25.8457 30.5354 25.794 30.4992L25.7012 30.4321L25.8509 30.2153C26.3361 29.5132 26.9453 28.7441 28.272 27.1437L29.1857 26.0442ZM33.3053 28.9918C33.3104 28.9867 33.5375 29.0692 33.8162 29.1726C34.4874 29.4255 35.0191 29.5855 35.7315 29.7662C36.6091 29.9882 37.879 30.205 38.6276 30.2669C38.7412 30.2772 38.8031 30.2876 38.7825 30.3031C38.7463 30.3238 37.9875 30.5767 37.4299 30.7522C36.542 31.0309 33.8318 31.8311 31.6223 32.4661C31.2145 32.5848 30.8635 32.6829 30.8428 32.688C30.7912 32.6984 30.6208 32.6519 30.6208 32.6312C30.6208 32.621 30.7447 32.4609 30.8944 32.2854C31.6378 31.3975 32.376 30.4063 32.9904 29.4668C33.1607 29.2086 33.3053 28.997 33.3053 28.9918ZM32.3966 29.0177C32.4018 29.0228 32.0353 29.6113 31.3952 30.6231C31.1216 31.0516 30.817 31.5368 30.7085 31.7072C30.6053 31.8724 30.4505 32.1305 30.3627 32.275L30.213 32.5383L30.1356 32.5177C29.9497 32.466 28.6437 32.0066 28.2978 31.8672C27.8693 31.6968 27.4253 31.4904 27.0949 31.3149C26.682 31.0929 26.1658 30.7624 26.207 30.7522C26.2173 30.747 26.9246 30.5559 27.7763 30.3237C30.0375 29.7093 31.2919 29.3532 32.1127 29.0951C32.2625 29.0486 32.3915 29.0124 32.3966 29.0177ZM38.8237 30.525H38.8289C38.8495 30.5767 38.0133 32.8997 37.7086 33.6327C37.6416 33.7979 37.6158 33.8393 37.5796 33.834C37.4919 33.8289 36.2788 33.6585 35.5405 33.5501C34.2551 33.354 32.0972 32.977 31.5552 32.8532L31.4314 32.8274L32.2004 32.6518C33.8524 32.2801 34.6474 32.0788 35.4527 31.831C36.4697 31.5213 37.4764 31.1341 38.4933 30.6592C38.6533 30.5869 38.7876 30.5301 38.8237 30.525Z" fill="url(#paint0_linear_302_226)"/>
<path d="M34.9882 0.000264406C34.8746 -0.0151376 33.0419 0.645627 31.8598 1.12566C30.2646 1.77619 29.0257 2.3957 28.2617 2.93246C27.9778 3.13388 27.6215 3.49003 27.5648 3.62939C27.5442 3.68102 27.5338 3.74296 27.5338 3.8049L28.2256 4.46053L29.8723 4.98708L33.7905 5.68917L38.2714 6.45836L38.3179 6.07119C38.3024 6.07119 38.292 6.06605 38.2767 6.06605L37.688 5.97309L37.5694 5.76146C36.9602 4.68768 36.2891 3.35579 35.8968 2.45755C35.5922 1.76062 35.3031 0.955382 35.1431 0.377174C35.0553 0.0261406 35.045 0.00550153 34.9883 0.000359575V0.000240432L34.9882 0.000264406ZM34.9055 0.263623H34.9108C34.9159 0.268717 34.9365 0.413358 34.9572 0.583614C35.0449 1.30644 35.205 2.00324 35.458 2.75697C35.6489 3.32484 35.6489 3.2939 35.427 3.22674C34.9004 3.08225 32.5413 2.67441 30.8326 2.43695C30.5589 2.40079 30.3266 2.36468 30.3266 2.35954C30.306 2.3389 31.5604 1.68323 32.1128 1.42518C32.82 1.09988 34.761 0.289404 34.9055 0.263623ZM29.929 2.57631L30.1305 2.64335C31.2248 3.01509 33.9762 3.54166 35.494 3.66555C35.6643 3.68104 35.809 3.69657 35.814 3.69657C35.8192 3.70171 35.6747 3.77915 35.4888 3.86687C34.7559 4.2334 33.9505 4.68253 33.393 5.02843C33.2278 5.13162 33.078 5.21427 33.0574 5.21427C33.0368 5.21427 32.9284 5.19361 32.8148 5.17811L32.6084 5.14709L32.0922 4.64116C31.1836 3.75846 30.4712 3.07705 30.1976 2.81889L29.929 2.57631ZM29.7226 2.73631L30.4505 3.64491C30.848 4.14565 31.2506 4.63604 31.3385 4.7444C31.4261 4.85289 31.4985 4.94068 31.4933 4.94582C31.4727 4.96129 30.4403 4.75993 29.893 4.63609C29.3303 4.50699 29.098 4.44505 28.7521 4.33669L28.4682 4.24373V4.17141C28.4733 3.82552 28.9122 3.30932 29.6555 2.78282L29.7226 2.73631ZM35.907 3.97528C35.9277 3.97528 35.9535 4.02172 36.0154 4.1611C36.1909 4.54825 36.7382 5.59109 36.8723 5.79239C36.9137 5.85956 36.9859 5.86471 36.2581 5.74597C34.5081 5.46197 33.9454 5.36915 33.9454 5.35882C33.9454 5.35368 33.997 5.31752 34.0641 5.28136C34.6062 4.98201 35.1533 4.59995 35.6386 4.19212C35.7574 4.09402 35.8658 4.00111 35.8864 3.98559C35.8915 3.97528 35.9019 3.97014 35.907 3.97528Z" fill="url(#paint1_linear_302_226)"/>
<path d="M27.6008 3.55711C27.6008 3.55711 27.4873 3.73787 27.5957 4.00632C27.6629 4.17146 27.859 4.37276 28.081 4.57929C28.081 4.57929 30.3782 6.81971 30.657 7.13982C31.9268 8.60587 32.4792 10.0513 32.5309 12.044C32.5618 13.3242 32.3191 14.4496 31.7152 15.7557C30.6414 18.0994 28.3752 20.6857 24.8803 23.556L25.3914 23.3856C25.7218 23.1378 26.1709 22.8746 27.224 22.2964C29.6554 20.9644 32.3915 19.741 35.747 18.4814C40.5788 16.6642 48.5237 14.5373 53.0458 13.8456L53.5156 13.7733L53.4433 13.6597C53.0304 13.0196 52.7464 12.6221 52.4056 12.1988C51.4145 10.9702 50.2118 9.97391 48.7404 9.14791C46.7168 8.01742 44.0995 7.13467 40.7853 6.47905C40.1607 6.3551 38.7875 6.11766 37.6725 5.94731C35.3081 5.58088 33.7801 5.32787 32.0972 5.03878C31.4933 4.93549 30.5898 4.78066 29.991 4.65164C29.6812 4.58446 29.0876 4.4451 28.623 4.28508C28.2513 4.14046 27.7144 3.99592 27.6008 3.55711ZM28.9328 4.84774C28.9379 4.84265 29.0205 4.87352 29.1289 4.90968C29.3251 4.97672 29.578 5.05418 29.8775 5.13684C30.1041 5.19916 30.3312 5.25938 30.5589 5.31749C30.8687 5.39489 31.1267 5.46718 31.1319 5.46718C31.1681 5.50334 31.6895 7.17064 31.865 7.81079C31.932 8.05349 31.9838 8.25993 31.9786 8.25993C31.9733 8.26517 31.9166 8.17735 31.8495 8.05863C31.2455 6.99517 30.2905 5.91627 29.1857 5.04897C29.0412 4.94582 28.9328 4.85289 28.9328 4.84774ZM31.4726 5.54981C31.4985 5.54981 31.612 5.56531 31.7513 5.59625C32.629 5.79241 34.2035 6.09183 35.2101 6.26221C35.3805 6.28799 35.5147 6.31903 35.5147 6.32929C35.5147 6.33967 35.4527 6.37574 35.3753 6.41709C35.205 6.50481 34.5183 6.91259 34.2913 7.06749C33.7182 7.4495 33.202 7.86247 32.8303 8.23415C32.6806 8.38388 32.5515 8.50776 32.5515 8.50776C32.5515 8.50776 32.5206 8.42004 32.4947 8.31156C32.309 7.594 31.9217 6.53054 31.5707 5.78205C31.5139 5.66336 31.4674 5.55493 31.4674 5.54464C31.4674 5.55495 31.4674 5.54981 31.4726 5.54981ZM35.9432 6.40159C35.9741 6.41187 36.0258 6.58741 36.129 6.97456C36.32 7.72314 36.4078 8.55942 36.3768 9.33893C36.3664 9.55575 36.3561 9.75704 36.3458 9.78292L36.3303 9.83448L36.0619 9.74676C35.5095 9.57124 34.6113 9.30791 33.8422 9.09114C33.4033 8.9724 33.0472 8.86399 33.0472 8.85368C33.0472 8.82266 33.6873 8.18256 33.9609 7.93996C34.4822 7.48045 35.8967 6.38607 35.9432 6.40159ZM36.2993 6.45315C36.3149 6.43775 38.4366 6.80418 39.4019 6.99006C40.1195 7.12941 41.1623 7.34626 41.2242 7.37211C41.2552 7.38239 41.1467 7.44433 40.8008 7.59919C39.438 8.21355 38.4262 8.76584 37.4196 9.43701C37.1563 9.61252 36.9343 9.75704 36.9292 9.75704C36.9241 9.75704 36.9189 9.60738 36.9189 9.42667C36.9189 8.44587 36.7227 7.45469 36.3613 6.61841C36.3252 6.5358 36.2942 6.45839 36.2993 6.45315ZM41.7869 7.53729C41.8024 7.55277 41.7352 7.97095 41.6733 8.2187C41.4875 8.98789 40.9867 10.1288 40.3725 11.2025C40.264 11.3935 40.1659 11.5484 40.1555 11.5536C40.1453 11.5587 40.0059 11.4812 39.8458 11.3883C39.247 11.0373 38.5656 10.7069 37.8222 10.3971C37.6158 10.3094 37.4351 10.2371 37.4299 10.2269C37.3937 10.1958 39.056 9.09628 39.9336 8.56973C40.6305 8.14645 41.7662 7.51661 41.7869 7.53729ZM42.1792 7.59921C42.2257 7.59921 43.1652 7.85736 43.6556 8.0019C44.8687 8.36329 46.2625 8.87432 47.1711 9.28729L47.5479 9.45772L47.2847 9.51961C45.065 10.0306 43.1652 10.6192 41.3326 11.3626C41.1828 11.4245 41.0486 11.4761 41.0384 11.4761C41.028 11.4761 41.0796 11.3574 41.1468 11.2128C41.6991 10.041 42.0553 8.81754 42.143 7.7747C42.1483 7.6766 42.1636 7.59921 42.1792 7.59921ZM32.8252 9.74676C32.8406 9.73124 33.5582 9.90164 33.9454 10.01C34.5339 10.1752 35.7831 10.5933 35.7831 10.6243C35.7831 10.6295 35.6438 10.7482 35.4786 10.8928C34.8024 11.4555 34.1518 12.0491 33.3723 12.8028C33.14 13.0248 32.9439 13.2055 32.9336 13.2055C32.9232 13.2055 32.9181 13.1745 32.9232 13.1332C33.0419 12.2659 33.0162 11.1509 32.851 10.0203C32.8354 9.87574 32.82 9.7519 32.8252 9.74676ZM47.9042 9.76228C47.9144 9.77254 47.5738 10.3094 47.357 10.614C47.0473 11.0579 46.5929 11.6465 45.5656 12.9371C45.0237 13.6184 44.4144 14.3877 44.2132 14.6458C44.0066 14.9039 43.8363 15.1206 43.8311 15.1206C43.8259 15.1206 43.7589 15.0278 43.6866 14.9142C43.1084 14.0469 42.4166 13.2881 41.5958 12.6067C41.4409 12.4776 41.2707 12.3382 41.2139 12.2969C41.1571 12.2556 41.1106 12.2143 41.1106 12.2092C41.1106 12.1937 41.9881 11.8168 42.6541 11.5484C43.8208 11.0734 45.4106 10.5056 46.6032 10.139C47.2279 9.94292 47.8938 9.7519 47.9042 9.76228ZM48.3017 9.86545C48.3223 9.86034 48.4462 9.92228 48.5959 10.01C49.8504 10.7275 51.079 11.6516 52.0496 12.6015C52.3231 12.87 52.9994 13.572 52.989 13.5772C52.989 13.5772 52.7515 13.5978 52.4728 13.6184C50.2995 13.7837 47.5171 14.2431 44.843 14.8883C44.6623 14.9296 44.5023 14.9657 44.4919 14.9657C44.4817 14.9657 44.683 14.7644 44.936 14.5218C46.5053 13.0093 47.2229 12.0543 48.0694 10.3507C48.1881 10.0978 48.2914 9.88098 48.3017 9.86545C48.2965 9.86545 48.2965 9.86545 48.3017 9.86545ZM36.8052 11.0425C36.8776 11.0579 37.5487 11.3729 38.0545 11.6258C38.5191 11.8581 39.2161 12.2298 39.2522 12.2607C39.2574 12.2659 39.0095 12.395 38.7051 12.5447C37.7345 13.0299 36.9034 13.4893 36.0361 14.0159C35.7883 14.1656 35.5818 14.2896 35.5767 14.2896C35.556 14.2896 35.5611 14.2688 35.7006 14.0159C36.1652 13.1694 36.5368 12.1576 36.7485 11.1715C36.7691 11.0941 36.7898 11.0425 36.8052 11.0425ZM36.1341 11.1664C36.1496 11.1819 35.9741 11.8168 35.8658 12.1627C35.654 12.8183 35.2979 13.6391 34.952 14.2586C34.8693 14.4031 34.7455 14.6147 34.6784 14.7335L34.5493 14.9399L34.2603 14.6613C33.9247 14.336 33.6511 14.1347 33.3001 13.9539C33.1606 13.8817 33.0523 13.8197 33.0523 13.8095C33.0523 13.7682 33.935 12.968 34.6113 12.3898C35.0965 11.9717 36.1187 11.1509 36.1341 11.1664ZM40.2383 12.8545L40.4912 13.0196C41.0693 13.3965 41.7507 13.8972 42.2722 14.336C42.5663 14.5786 43.1342 15.0897 43.2478 15.2136L43.3097 15.2808L42.8916 15.3995C40.5273 16.055 38.6998 16.6384 36.5678 17.4231C36.3303 17.5108 36.129 17.5831 36.1135 17.5831C36.0826 17.5831 36.0567 17.6089 36.5885 17.1184C37.9513 15.8641 39.1593 14.4805 40.0575 13.1332L40.2383 12.8545ZM39.1593 13.1229C39.1696 13.1332 38.4624 14.1295 38.039 14.6922C37.5331 15.3633 36.6349 16.4887 36.0154 17.2217C35.7574 17.5263 35.5354 17.7792 35.525 17.7844C35.5095 17.7896 35.5044 17.7121 35.5044 17.5934C35.5044 16.9687 35.3444 16.3028 35.0656 15.735C34.9468 15.4975 34.9262 15.4407 34.9521 15.4149C35.0501 15.3271 36.5523 14.4702 37.5022 13.9592C38.1423 13.6185 39.1437 13.1126 39.1593 13.1229ZM32.6341 14.7232C32.6496 14.7232 32.7684 14.7851 32.9026 14.8574C33.233 15.0381 33.5272 15.2394 33.7905 15.4563C33.8008 15.4666 33.6666 15.575 33.4911 15.704C33.0006 16.055 32.2573 16.6178 31.8237 16.9637C31.3693 17.325 31.354 17.3353 31.4055 17.2579C31.7463 16.7365 31.9166 16.4422 32.0973 16.0654C32.2573 15.7299 32.4173 15.3324 32.5309 14.9865C32.5722 14.8368 32.6238 14.7232 32.6341 14.7232ZM34.3739 16.086C34.3996 16.0809 34.4307 16.1273 34.57 16.3339C34.8642 16.7726 35.0914 17.3612 35.1482 17.8361L35.1585 17.9394L34.4513 18.213C33.1865 18.7033 32.0199 19.1886 31.2299 19.5499C31.008 19.6532 30.6208 19.839 30.3679 19.963C30.1149 20.092 29.9085 20.1901 29.9085 20.1849C29.9085 20.1798 30.0684 20.0611 30.2646 19.9165C31.8082 18.7963 33.1452 17.5676 34.1467 16.339C34.2551 16.2099 34.3532 16.0912 34.3635 16.086L34.3739 16.086ZM33.5737 16.2822C33.5944 16.3029 33.0059 16.9688 32.6032 17.3766C31.6069 18.3936 30.6209 19.1886 29.3974 19.963C29.2425 20.0611 29.1032 20.1488 29.0876 20.1592C29.0515 20.1798 29.0979 20.1281 29.6348 19.5448C29.9756 19.1783 30.2337 18.8685 30.5279 18.4866C30.7241 18.2337 30.7602 18.1975 31.0442 17.9961C31.8031 17.4489 33.553 16.2615 33.5737 16.2822Z" fill="url(#paint2_radial_302_226)"/>
<path d="M11.2193 37.6577C11.1241 37.6577 11.0288 37.6668 10.9344 37.6668C9.01095 37.7693 7.71366 38.6158 6.95516 40.2689C6.30643 41.7639 6.37726 43.7182 6.96243 45.2224C7.64292 46.6921 8.74248 47.4679 10.5778 47.7608C10.9662 47.8244 11.2266 48.0376 11.9787 48.9158L12.9041 50H14.5825L13.4665 48.8749C12.8495 48.258 12.3506 47.7209 12.3506 47.6737C12.3506 47.6265 12.5866 47.5231 12.8722 47.4361C13.814 47.1511 14.596 46.4235 15.1431 45.3085C15.5859 44.4131 15.6494 44.1363 15.7129 43.0222C15.8789 39.7062 14.1306 37.6331 11.2192 37.6568L11.2193 37.6577ZM12.6908 46.3293C11.8743 46.7248 10.6886 46.8037 9.91467 46.5198C9.11445 46.2259 8.33967 45.3948 7.99121 44.454C7.60384 43.4252 7.65915 41.5272 8.10191 40.6725C8.8141 39.3116 9.7559 38.6857 11.1322 38.6857C13.1735 38.6857 14.3348 39.9359 14.4863 42.2857C14.6061 44.2472 13.9492 45.7187 12.6917 46.3285L12.6908 46.3293ZM41.685 40.4902C40.981 40.4902 40.4421 40.7751 40.0791 41.3366L39.7942 41.7812V40.6253H38.5758V47.5568H39.7934V45.3413C39.7934 43.3153 39.8187 43.0786 40.1018 42.5242C40.492 41.7639 41.1632 41.3848 41.812 41.5662L42.2475 41.6932V40.492H41.685V40.4902ZM34.5267 40.4266C34.2881 40.4266 34.0349 40.4584 33.7828 40.5138C32.1524 40.9401 31.2334 42.5006 31.2896 44.1065C31.2896 45.4511 31.5508 46.1233 32.1996 46.8283C33.5288 47.9188 34.7309 48.0058 36.353 47.4207C36.6298 47.3028 36.931 47.1667 36.931 47.1667V46.0762L36.353 46.3756C35.0402 46.9471 34.0513 46.9471 33.2592 46.2739C32.754 45.7595 32.5316 45.1426 32.4292 44.4386H37.3419V43.504C37.3419 41.5988 36.1952 40.3958 34.5257 40.4266H34.5267ZM32.5398 43.466C32.5398 43.466 32.7213 42.2775 33.3945 41.8111C33.7184 41.5825 34.0903 41.4718 34.4541 41.4718C34.8189 41.4718 35.1827 41.5897 35.483 41.8193C36.1 42.2938 36.2034 43.457 36.2034 43.457H32.5399V43.466H32.5398ZM3.16551 42.2158C1.84458 41.4156 1.25849 40.8385 1.33015 40.1581C1.53516 38.2755 3.86143 38.5359 5.14967 39.2482L5.15884 37.9817C5.15884 37.9817 4.4466 37.6732 3.4259 37.6568C1.85998 37.6332 0.847479 38.1467 0.373046 39.1919C-0.323793 40.7342 0.293221 41.8973 2.52331 43.1947C3.77528 43.9232 4.32866 44.5556 4.32866 45.2451C4.32866 46.6695 2.61125 47.1667 0.839404 46.273C0.474752 46.0916 0.166245 45.94 0.149928 45.94C0.0863778 46.3438 0.119136 47.31 0.119136 47.31C0.119136 47.31 0.663521 47.5387 1.47997 47.6964C3.50489 48.1001 5.34761 47.1503 5.52177 45.6079C5.67331 44.16 5.14972 43.4006 3.16559 42.2148L3.16551 42.2158ZM52.4686 40.4103C52.2309 40.4103 51.9787 40.443 51.7156 40.4983C50.0871 40.9247 49.1698 42.4853 49.2324 44.0911C49.2324 45.4339 49.4928 46.0998 50.1414 46.8038C51.4707 47.8953 52.6728 47.9832 54.3031 47.3972C54.5789 47.2793 54.8792 47.1451 54.8792 47.1451V46.0528L54.3022 46.3539C52.9867 46.9236 51.9978 46.9236 51.2085 46.2505C50.7004 45.737 50.4799 45.1273 50.3774 44.415H55.2821V43.4806C55.2821 41.5845 54.1352 40.3805 52.4659 40.4123L52.4686 40.4103ZM50.4817 43.4496C50.4817 43.4496 50.665 42.2629 51.3372 41.7875C51.6603 41.558 52.0322 41.4473 52.396 41.4473C52.7589 41.4473 53.1246 41.5652 53.4249 41.7957C54.0419 42.2702 54.1453 43.4414 54.1453 43.4414H50.4827L50.4817 43.4496ZM28.1487 42.2312C26.8277 41.4328 26.2434 40.8539 26.3142 40.1735C26.5192 38.29 28.8455 38.5513 30.1338 39.2635L30.1429 37.9971C30.1429 37.9971 29.4306 37.6885 28.4099 37.674C26.844 37.6504 25.8315 38.1639 25.3562 39.2091C24.6603 40.7514 25.2854 41.9145 27.5082 43.2119C28.7584 43.9396 29.3118 44.5638 29.3118 45.2532C29.3118 46.6777 27.5953 47.183 25.8234 46.2811C25.4605 46.0997 25.1521 45.95 25.1339 45.95C25.0704 46.3536 25.1031 47.32 25.1031 47.32C25.1031 47.32 25.6411 47.5404 26.4549 47.7064C28.4817 48.1111 30.3252 47.162 30.4986 45.6197C30.6492 44.179 30.1266 43.4196 28.1487 42.2329V42.2312H28.1487ZM59.6278 40.4739C58.9238 40.4739 58.3786 40.7596 58.022 41.3212L57.737 41.7639V40.61H56.5186V47.5396H57.7361V45.3241C57.7361 43.2991 57.7606 43.0614 58.0447 42.5079C58.4348 41.7486 59.1061 41.3685 59.7548 41.5508L60.1902 41.6778V40.4739L59.6278 40.4739ZM18.4592 42.1913V37.7765H17.2308V47.555H22.3968V46.4001H18.4592V42.1913H18.4592ZM46.8672 43.5675L45.8547 46.2022L44.8812 43.553L43.8923 40.6172H42.6349C43.4496 42.9271 44.3359 45.2768 45.2296 47.555C45.617 47.564 46.0053 47.555 46.3926 47.555L49.1526 40.6181H47.9505C47.9505 40.6181 47.4197 42.0098 46.8663 43.5685L46.8672 43.5675ZM21.2898 35.1119C21.4876 35.1119 21.6527 35.0485 21.7888 34.9124C21.923 34.778 21.9938 34.6202 21.9938 34.4224C21.9938 34.2246 21.923 34.0595 21.7888 33.9325C21.6527 33.8055 21.4957 33.7419 21.2988 33.7419C21.0993 33.7419 20.9342 33.8055 20.7999 33.9397C20.6638 34.074 20.6021 34.2392 20.6021 34.4297C20.6021 34.6293 20.6656 34.7943 20.7999 34.9196C20.9269 35.0466 21.092 35.1101 21.2898 35.1101V35.1119ZM20.8544 33.9869C20.9723 33.869 21.1156 33.8145 21.2989 33.8145C21.4713 33.8145 21.6147 33.869 21.7345 33.9869C21.8524 34.1049 21.9159 34.2482 21.9159 34.4224C21.9159 34.5966 21.8524 34.7472 21.7345 34.8651C21.6147 34.983 21.4713 35.0393 21.2989 35.0393C21.1238 35.0393 20.9813 34.9849 20.8634 34.8651C20.7455 34.7472 20.682 34.5966 20.682 34.4224C20.682 34.2482 20.7364 34.1049 20.8544 33.9869ZM21.1474 34.486H21.2272C21.2835 34.486 21.3388 34.5403 21.386 34.6438L21.4813 34.8578H21.631L21.5131 34.6201C21.465 34.5249 21.4178 34.4696 21.3624 34.454C21.4323 34.4377 21.4876 34.4142 21.5276 34.3669C21.5674 34.3262 21.582 34.2708 21.582 34.2082C21.582 34.1356 21.5593 34.0812 21.5113 34.0413C21.4568 33.9959 21.3697 33.9714 21.2571 33.9714H21.005V34.8578H21.132V34.4859L21.1474 34.486ZM21.2581 34.074C21.3379 34.074 21.3942 34.0903 21.425 34.1139C21.455 34.1375 21.4631 34.1684 21.4631 34.2246C21.4631 34.3271 21.3995 34.3753 21.2817 34.3753H21.1456V34.074H21.2581ZM0.855595 34.407C0.855595 34.0985 0.846558 33.869 0.839279 33.7338H0.846558C0.878271 33.8934 0.917305 34.0123 0.949059 34.0912L2.12845 36.7259H2.32625L3.50564 34.0677C3.53748 33.9952 3.56923 33.8862 3.60823 33.7347H3.61726C3.59371 33.9978 3.58555 34.2264 3.58555 34.4088V36.7341H3.9892V33.2775H3.48297L2.39884 35.6817C2.35889 35.7769 2.30354 35.9194 2.23279 36.1081H2.21639C2.19284 36.0146 2.13748 35.8722 2.05858 35.698L0.998845 33.2692H0.460904V36.7258H0.849194V34.4087L0.855595 34.407ZM4.87384 34.4134H5.2223V36.5663H4.87384V34.4134ZM5.04805 33.624C5.12068 33.624 5.18235 33.5995 5.2295 33.5515C5.27761 33.5042 5.30941 33.4426 5.30941 33.37C5.30941 33.2992 5.28577 33.2357 5.23046 33.1886C5.18147 33.1405 5.11884 33.1159 5.04717 33.1159C4.97647 33.1159 4.91296 33.1405 4.86568 33.1886C4.81774 33.2357 4.7859 33.2992 4.7859 33.37C4.7859 33.449 4.81042 33.5042 4.86568 33.5515C4.92024 33.5995 4.97643 33.624 5.04717 33.624H5.04805ZM7.70638 36.6135V36.2342C7.51581 36.3767 7.31077 36.4475 7.09849 36.4475C6.84454 36.4475 6.63849 36.3604 6.48788 36.1935C6.33823 36.0284 6.2584 35.7988 6.2584 35.513C6.2584 35.2136 6.33822 34.9758 6.50331 34.7944C6.66209 34.6202 6.86809 34.5331 7.12033 34.5331C7.32625 34.5331 7.52393 34.5967 7.70642 34.7238V34.32C7.54041 34.2329 7.35081 34.193 7.13664 34.193C6.74103 34.193 6.43265 34.32 6.20221 34.5651C5.97353 34.81 5.85559 35.143 5.85559 35.5449C5.85559 35.9023 5.95809 36.2027 6.17138 36.4322C6.39362 36.6681 6.67769 36.7878 7.02603 36.7878C7.29537 36.7804 7.51581 36.7241 7.70638 36.6135ZM8.7034 35.4658C8.7034 35.1818 8.76691 34.9523 8.88485 34.7943C8.99559 34.652 9.12981 34.5803 9.28858 34.5803C9.42288 34.5803 9.5181 34.6048 9.58792 34.6601V34.2482C9.53354 34.2246 9.45459 34.2165 9.35209 34.2165C9.20963 34.2165 9.0827 34.2644 8.97108 34.3526C8.85314 34.4459 8.7588 34.5885 8.70345 34.7699H8.69441V34.2645H8.29976V36.7323H8.69529V35.4658H8.7034ZM10.9743 36.7813C11.3463 36.7813 11.6457 36.6615 11.8679 36.4239C12.0892 36.1879 12.1999 35.8704 12.1999 35.4747C12.1999 35.0711 12.0984 34.7626 11.8915 34.533C11.6865 34.3036 11.4016 34.1928 11.0295 34.1928C10.6575 34.1928 10.3581 34.3035 10.1359 34.5176C9.89823 34.7536 9.77301 35.0865 9.77301 35.5139C9.77301 35.8858 9.87463 36.1943 10.0888 36.4239C10.3101 36.6615 10.6032 36.7803 10.9743 36.7803V36.7813ZM10.4118 34.7708C10.5624 34.612 10.7602 34.533 11.0051 34.533C11.2592 34.533 11.4497 34.612 11.5913 34.7708C11.7337 34.9368 11.8045 35.1737 11.8045 35.4903C11.8045 35.7914 11.7409 36.0282 11.6066 36.187C11.4724 36.3531 11.2746 36.441 11.0133 36.441C10.7593 36.441 10.5624 36.353 10.4118 36.187C10.2621 36.0201 10.1904 35.7914 10.1904 35.4903C10.175 35.1909 10.254 34.946 10.4118 34.7708ZM13.932 36.5663C14.0826 36.4321 14.1625 36.2669 14.1625 36.06C14.1625 35.8785 14.0989 35.7279 13.981 35.6091C13.8848 35.5139 13.7361 35.4276 13.521 35.3405C13.3304 35.2608 13.2125 35.1899 13.149 35.1346C13.0855 35.0711 13.0465 34.9922 13.0465 34.8806C13.0465 34.7781 13.0864 34.6991 13.1645 34.6356C13.2443 34.5722 13.3459 34.5414 13.482 34.5414C13.6952 34.5414 13.8776 34.5975 14.0445 34.7164V34.3208C13.8848 34.2411 13.7115 34.203 13.5137 34.203C13.2597 34.203 13.0456 34.2729 12.8877 34.4079C12.7216 34.5423 12.6427 34.7165 12.6427 34.9214C12.6427 35.1029 12.6971 35.2535 12.8005 35.3642C12.8876 35.4585 13.0365 35.5548 13.2433 35.6409C13.4411 35.728 13.5754 35.8069 13.647 35.8703C13.7178 35.9339 13.7495 36.0128 13.7495 36.1064C13.7495 36.3367 13.5917 36.4557 13.2832 36.4557C13.0455 36.4557 12.8324 36.3776 12.6417 36.2198V36.6461C12.8141 36.7496 13.021 36.7967 13.2496 36.7967C13.5427 36.7813 13.7721 36.7096 13.93 36.5672L13.932 36.5663ZM15.8155 34.1928C15.4434 34.1928 15.1441 34.3036 14.9218 34.5177C14.6859 34.7537 14.5589 35.0866 14.5589 35.5139C14.5589 35.8859 14.6615 36.1944 14.8746 36.4239C15.0969 36.6616 15.389 36.7804 15.761 36.7804C16.142 36.7804 16.4324 36.6607 16.6547 36.4229C16.877 36.1871 16.9876 35.8696 16.9876 35.4739C16.9876 35.0702 16.8842 34.7618 16.6791 34.5322C16.4651 34.3027 16.1801 34.192 15.8172 34.192L15.8155 34.1928ZM16.583 35.4903C16.583 35.7914 16.5195 36.0283 16.3852 36.1871C16.2509 36.3531 16.0531 36.441 15.7918 36.441C15.5377 36.441 15.3409 36.353 15.1902 36.1871C15.0406 36.0201 14.9689 35.7914 14.9689 35.4903C14.9689 35.1728 15.0479 34.9278 15.2066 34.7626C15.3563 34.6048 15.5541 34.5249 15.8 34.5249C16.0449 34.5249 16.2418 34.6047 16.3842 34.7626C16.5113 34.9368 16.582 35.1736 16.582 35.4903H16.583ZM17.6518 36.725H18.0464V34.5885H18.6243V34.2564H18.0464V33.8753C18.0464 33.5289 18.1806 33.3546 18.4583 33.3546C18.5517 33.3546 18.647 33.3782 18.7178 33.4182V33.0617C18.647 33.0299 18.5517 33.0227 18.4328 33.0227C18.2196 33.0227 18.0455 33.0862 17.903 33.2204C17.7369 33.3783 17.649 33.5833 17.649 33.861V34.2657H17.2315V34.5977H17.649V36.7262L17.6518 36.725ZM19.273 36.0518C19.273 36.5346 19.4863 36.7804 19.9217 36.7804C20.0796 36.7804 20.1984 36.755 20.2937 36.6988V36.3595C20.2211 36.4139 20.1349 36.4394 20.0397 36.4394C19.9055 36.4394 19.8111 36.4075 19.7557 36.3358C19.6994 36.2652 19.6677 36.1453 19.6677 35.9802V34.5876H20.2936V34.2555H19.6677V33.5279C19.5316 33.5751 19.3983 33.615 19.2721 33.6549V34.2554H18.8457V34.5875H19.2721V36.051L19.273 36.0518ZM61.7326 40.6008C61.5984 40.4739 61.4396 40.4103 61.2428 40.4103C61.0432 40.4103 60.878 40.4739 60.7437 40.6099C60.6095 40.7433 60.5459 40.9093 60.5459 41.0999C60.5459 41.2977 60.6095 41.4628 60.7427 41.5897C60.8771 41.7168 61.0421 41.7803 61.2418 41.7803C61.4386 41.7803 61.6046 41.7168 61.7408 41.5825C61.8742 41.4464 61.9449 41.2895 61.9449 41.0926C61.9376 40.893 61.866 40.7278 61.7317 40.6009L61.7326 40.6008ZM61.6692 41.5353C61.5512 41.6532 61.4078 41.7077 61.2336 41.7077C61.0613 41.7077 60.918 41.6532 60.7982 41.5353C60.6803 41.4156 60.6167 41.2659 60.6167 41.0907C60.6167 40.9183 60.6711 40.7751 60.7909 40.6553C60.9088 40.5374 61.0514 40.4829 61.2336 40.4829C61.406 40.4829 61.5495 40.5374 61.6692 40.6553C61.7871 40.7751 61.8506 40.9183 61.8506 41.0907C61.8506 41.2741 61.7961 41.4156 61.6692 41.5353ZM61.3135 41.1316C61.3842 41.1153 61.4405 41.0835 61.4795 41.0445C61.5195 41.0036 61.534 40.9482 61.534 40.8849C61.534 40.8141 61.5113 40.7578 61.4633 40.7189C61.4088 40.6735 61.3209 40.6489 61.2093 40.6489H60.9571V41.5344H61.0842V41.1624H61.163C61.2175 41.1624 61.272 41.2168 61.3209 41.3203L61.4152 41.5335H61.5659L61.448 41.2957C61.4071 41.1923 61.3599 41.145 61.3119 41.1296L61.3135 41.1316ZM61.2264 41.0518H61.0903V40.7524H61.2019C61.2809 40.7524 61.3362 40.7669 61.368 40.7914C61.3997 40.815 61.407 40.8459 61.407 40.9021C61.407 41.0046 61.3435 41.0519 61.2256 41.0519L61.2264 41.0518ZM39.1538 34.1539H39.2645V33.2675H39.5574V33.1568H38.8607V33.2675H39.1538V34.1539H39.1538ZM39.8251 33.488C39.8251 33.4017 39.8251 33.331 39.8188 33.2911C39.826 33.3382 39.8424 33.3701 39.8496 33.3936L40.1899 34.1539H40.2443L40.5854 33.3863C40.5945 33.3628 40.6018 33.3319 40.6172 33.2911C40.6099 33.3701 40.6099 33.4334 40.6099 33.4816V34.153H40.7279V33.1568H40.5854L40.277 33.8445C40.2697 33.8691 40.2451 33.9171 40.2298 33.9716H40.2207C40.2143 33.9397 40.1981 33.908 40.1753 33.8537L39.8669 33.1569H39.7072V34.1549H39.8188V33.4889L39.8251 33.488Z" fill="#231F1F"/>
<defs>
<linearGradient id="paint0_linear_302_226" x1="16.1157" y1="40.7234" x2="23.2847" y2="35.9221" gradientUnits="userSpaceOnUse">
<stop stop-color="#909CA9"/>
<stop offset="1" stop-color="#EDEDEE"/>
</linearGradient>
<linearGradient id="paint1_linear_302_226" x1="0.205061" y1="24.9229" x2="11.6007" y2="24.9229" gradientUnits="userSpaceOnUse">
<stop stop-color="#939FAB"/>
<stop offset="1" stop-color="#DCDEE1"/>
</linearGradient>
<radialGradient id="paint2_radial_302_226" cx="0" cy="0" r="1" gradientUnits="userSpaceOnUse" gradientTransform="translate(27.5265 21.9404) rotate(-170.136) scale(5.55379 12.7659)">
<stop stop-color="#EE352C"/>
<stop offset="1" stop-color="#A91D22"/>
</radialGradient>
</defs>
</svg>
