<svg width="59" height="50" viewBox="0 0 59 50" fill="none" xmlns="http://www.w3.org/2000/svg">
<path fill-rule="evenodd" clip-rule="evenodd" d="M49.2782 34.1406C49.5226 34.0002 49.7257 33.7981 49.8673 33.5545C50.0088 33.3108 50.0838 33.0342 50.0848 32.7523L50.1137 23.4544C50.1146 23.1727 50.1896 22.8959 50.3312 22.6523C50.4727 22.4088 50.6758 22.2066 50.9202 22.0662L55.9605 19.1709C56.2048 19.0306 56.4816 18.957 56.7634 18.9575C57.0451 18.958 57.3216 19.0325 57.5655 19.1736C57.8093 19.3148 58.0118 19.5175 58.1524 19.7614C58.2932 20.0055 58.3673 20.2823 58.3673 20.5639V37.4681C58.3673 37.7508 58.2927 38.0283 58.151 38.273C58.0094 38.5175 57.8059 38.7203 57.5609 38.8611L38.539 49.7867C38.296 49.9263 38.0207 49.9997 37.7407 50C37.4605 50.0003 37.1852 49.9273 36.9419 49.7883L22.014 41.2503C21.768 41.1098 21.5637 40.9069 21.4215 40.662C21.2793 40.417 21.2043 40.1389 21.2043 39.8556V31.332C21.2043 31.3223 21.2154 31.3161 21.2251 31.3208C21.2332 31.3256 21.2443 31.3208 21.2443 31.3097V31.3C21.2443 31.2934 21.2476 31.287 21.254 31.2839L33.5485 24.2208C33.5598 24.2144 33.5549 24.1967 33.5421 24.1967C33.5387 24.1967 33.5354 24.1953 33.533 24.193C33.5305 24.1906 33.5293 24.1873 33.5293 24.1838L33.5534 15.8273C33.5544 15.5448 33.481 15.267 33.3405 15.0217C33.1999 14.7766 32.9973 14.5729 32.7527 14.4311C32.5084 14.2893 32.2309 14.2146 31.9482 14.2142C31.6657 14.214 31.388 14.2882 31.1434 14.4296L22.0059 19.6947C21.7621 19.8352 21.4855 19.9091 21.2043 19.9091C20.9229 19.9091 20.6465 19.8352 20.4026 19.6947L11.2362 14.4167C10.992 14.2761 10.7151 14.2022 10.4333 14.2023C10.1515 14.2025 9.87474 14.2769 9.63074 14.4179C9.38673 14.5588 9.18408 14.7614 9.04316 15.0055C8.90223 15.2495 8.82793 15.5263 8.82777 15.8081V30.9111C8.82796 31.1927 8.75419 31.4694 8.61385 31.7133C8.47349 31.9573 8.27151 32.1602 8.0281 32.3016C7.78468 32.443 7.5084 32.518 7.2269 32.5189C6.9454 32.52 6.66857 32.4469 6.42415 32.3073L1.3373 29.3992C1.09092 29.2584 0.886201 29.055 0.743965 28.8094C0.601731 28.5639 0.527053 28.2852 0.527529 28.0014L0.572517 1.6032C0.573129 1.32179 0.647649 1.04546 0.78862 0.801878C0.929588 0.558305 1.13206 0.356041 1.37577 0.215306C1.61949 0.0745822 1.8959 0.000328333 2.17732 2.97522e-06C2.45874 -0.000334433 2.73532 0.0732569 2.97937 0.213414L20.4041 10.2216C20.6476 10.3614 20.9235 10.435 21.2043 10.435C21.4849 10.435 21.761 10.3614 22.0043 10.2216L39.4243 0.213414C39.6687 0.073052 39.9457 -0.000539288 40.2276 2.97522e-06C40.5094 0.000545239 40.786 0.0752208 41.0299 0.216522C41.2737 0.357812 41.4762 0.560775 41.6168 0.805011C41.7574 1.04926 41.8313 1.3262 41.831 1.60803V28.0127C41.8312 28.2952 41.7568 28.5727 41.6155 28.8172C41.4743 29.0617 41.271 29.2647 41.0262 29.4056L31.9034 34.6597C31.6582 34.8008 31.4548 35.0042 31.3135 35.2494C31.1724 35.4945 31.0984 35.7725 31.0991 36.0553C31.0996 36.3381 31.1749 36.6158 31.3173 36.8602C31.4596 37.1047 31.664 37.307 31.9098 37.4472L36.9419 40.3119C37.1851 40.4503 37.4602 40.523 37.7401 40.5225C38.0199 40.5219 38.2948 40.4483 38.5374 40.3088L49.2782 34.1406ZM50.3338 10.4545C50.334 10.7387 50.4096 11.0177 50.5529 11.2631C50.696 11.5085 50.9018 11.7115 51.1491 11.8515C51.3963 11.9914 51.6763 12.0634 51.9604 12.0599C52.2446 12.0564 52.5226 11.9776 52.7663 11.8315L57.5865 8.93947C57.8244 8.7968 58.0213 8.59506 58.1582 8.35383C58.2951 8.11245 58.3671 7.83988 58.3673 7.56248V1.66909C58.3668 1.38508 58.291 1.10628 58.1477 0.861105C58.0043 0.615917 57.7987 0.413098 57.5513 0.273328C57.3041 0.133544 57.0243 0.0617972 56.7402 0.0653761C56.4563 0.068967 56.1784 0.147764 55.9348 0.293741L51.1146 3.18581C50.8768 3.32839 50.6798 3.53016 50.5429 3.77145C50.406 4.01275 50.334 4.28536 50.3338 4.56277V10.4561V10.4545Z" fill="#007FFF"/>
</svg>
