<svg width="98" height="50" viewBox="0 0 98 50" fill="none" xmlns="http://www.w3.org/2000/svg">
<path d="M0.945723 45.5427H4.13517V32.9471L9.07308 43.9278C9.65538 45.257 10.4527 45.7267 12.0172 45.7267C13.5816 45.7267 14.3487 45.257 14.931 43.9278L19.8689 32.9471V45.5427H23.0584V32.9681C23.0584 31.7414 22.5677 31.1475 21.5553 30.8415C19.1321 30.0853 17.5063 30.7398 16.7703 32.3757L11.9248 43.2127L7.23301 32.3749C6.52726 30.7398 4.8712 30.0853 2.44806 30.8408C1.43563 31.1475 0.944946 31.7406 0.944946 32.9673L0.945723 45.5427ZM25.7113 35.2895H28.9V42.229C28.8705 42.6056 29.0211 43.4907 30.768 43.5186C31.6593 43.5326 37.6485 43.5186 37.7044 43.5186V35.2554H40.9008C40.9156 35.2554 40.8977 46.5241 40.8977 46.5706C40.9148 49.3501 37.4497 49.9534 35.8519 50H25.7804V47.854C25.7975 47.854 35.8449 47.8564 35.8698 47.8533C37.9233 47.6366 37.6803 46.6164 37.6795 46.2733V45.4363H30.9008C27.7471 45.4076 25.7377 44.031 25.7121 42.4472C25.7106 42.302 25.7812 35.3594 25.7113 35.2895Z" fill="#00618A"/>
<path d="M43.3597 45.5427H52.5305C53.6043 45.5427 54.6478 45.3183 55.4754 44.9301C56.8551 44.2966 57.5298 43.4379 57.5298 42.3121V39.9813C57.5298 39.0613 56.7635 38.2018 55.2603 37.6304C54.463 37.3229 53.4808 37.1607 52.5298 37.1607H48.6648C47.3768 37.1607 46.7634 36.7725 46.6105 35.9138C46.5802 35.8113 46.5802 35.7298 46.5802 35.6273V34.1754C46.5802 34.0939 46.5802 34.0116 46.6105 33.9099C46.7634 33.2554 47.1012 33.0714 48.2363 32.9689L48.5429 32.9487H57.6524V30.8229H48.6967C47.4086 30.8229 46.7339 30.9044 46.1206 31.0884C44.2192 31.6816 43.39 32.6218 43.39 34.2577V36.118C43.39 37.5496 45.0165 38.7764 47.7456 39.0628C48.053 39.0823 48.3589 39.104 48.6656 39.104H51.9785C52.1012 39.104 52.2238 39.104 52.3162 39.1234C53.3287 39.2049 53.7572 39.3897 54.0647 39.7569C54.1435 39.8297 54.206 39.9183 54.2481 40.0169C54.2903 40.1155 54.3111 40.2219 54.3093 40.3292V42.1902C54.3093 42.4146 54.1563 42.7011 53.8496 42.9464C53.574 43.1917 53.1136 43.3556 52.5002 43.3967L52.1625 43.4169H43.3597V45.5427ZM77.4289 41.8424C77.4289 44.0295 79.0547 45.2562 82.3358 45.5023C82.6424 45.5225 82.9491 45.5427 83.2558 45.5427H91.5679V43.4169H83.1952C81.3241 43.4169 80.6191 42.9464 80.6191 41.8214V30.8214H77.4297L77.4289 41.8424ZM59.5655 41.9526V34.3711C59.5655 32.4456 60.918 31.2771 63.5919 30.9083C63.8768 30.8675 64.1643 30.847 64.4521 30.847H70.5073C70.8147 30.847 71.0911 30.8672 71.3978 30.9083C74.0717 31.2771 75.425 32.4448 75.425 34.3711V41.9526C75.425 43.5163 74.8505 44.3517 73.5267 44.8967L76.6696 47.7329H72.9654L70.4234 45.4379L67.8644 45.6001H64.4521C63.8183 45.5961 63.1878 45.5065 62.5779 45.3338C60.5492 44.781 59.5655 43.715 59.5655 41.9526ZM63.008 41.7686C63.008 41.8711 63.0383 41.9743 63.0694 42.097C63.2534 42.9782 64.0841 43.4697 65.3435 43.4697H68.241L65.5795 41.0667H69.2837L71.6043 43.163C72.0329 42.934 72.314 42.5862 72.4126 42.1382C72.4429 42.0357 72.4429 41.9332 72.4429 41.8307V34.5574C72.4429 34.4759 72.4429 34.3726 72.4126 34.2701C72.2278 33.4503 71.3978 32.9798 70.1688 32.9798H65.3427C63.9296 32.9798 63.0073 33.5947 63.0073 34.5574L63.008 41.7686Z" fill="#E48E00"/>
<path d="M94.3738 27.2926C92.4134 27.2391 90.9158 27.4215 89.6347 27.9611C89.2706 28.1148 88.6906 28.1187 88.6316 28.5745C88.8311 28.7849 88.8622 29.0978 89.0213 29.3555C89.3272 29.8501 89.8435 30.5131 90.3039 30.8602C90.8063 31.2398 91.3249 31.6467 91.8653 31.9759C92.8241 32.5613 93.8956 32.8951 94.8203 33.4805C95.3645 33.8268 95.9049 34.2616 96.4367 34.6521C96.6999 34.8439 96.8754 35.1444 97.2178 35.2647V35.2096C97.0384 34.9813 96.9919 34.6676 96.8273 34.4285L96.1021 33.7034C95.3932 32.7624 94.4942 31.9371 93.5369 31.2507C92.7745 30.7034 91.0679 29.9634 90.7496 29.076L90.6937 29.0209C91.2341 28.9596 91.8676 28.7639 92.3661 28.6304C93.2046 28.4052 93.9538 28.4634 94.8195 28.2398L95.9903 27.9044V27.6824C95.5532 27.2336 95.2403 26.6389 94.7636 26.2328C93.5159 25.1699 92.1526 24.1078 90.7496 23.2212C89.9716 22.7305 89.0097 22.4114 88.1844 21.9952C87.908 21.8547 87.4204 21.7825 87.2364 21.5488C86.8024 20.9968 86.5671 20.2973 86.2325 19.6536C85.5178 18.2632 84.8485 16.8499 84.2255 15.416C83.8031 14.4494 83.5267 13.496 82.9996 12.6288C80.4677 8.46647 77.7426 5.95404 73.5213 3.48509C72.623 2.95946 71.5415 2.75294 70.3994 2.48198L68.5593 2.37018C68.1859 2.21412 67.7961 1.75605 67.4444 1.534C66.0453 0.650453 62.4584 -1.27114 61.4226 1.25604C60.7689 2.85077 62.4009 4.40667 62.984 5.21491C63.3931 5.78168 63.918 6.41677 64.2107 7.0542C64.4032 7.47345 64.4358 7.89349 64.6012 8.33681C65.0057 9.42843 65.359 10.6171 65.8831 11.6256C66.1478 12.1365 66.4405 12.6746 66.7751 13.1311C66.9801 13.4106 67.3326 13.5348 67.3877 13.9673C67.0438 14.4486 67.0236 15.1971 66.8303 15.8066C65.9591 18.5542 66.2876 21.9696 67.5554 24.003C67.9444 24.628 68.8605 25.9665 70.1199 25.4526C71.2216 25.0038 70.9762 23.6133 71.2915 22.3858C71.3629 22.1086 71.3186 21.9036 71.4584 21.7173V21.7732L72.4623 23.7802C73.2053 24.9766 74.5228 26.2258 75.6401 27.0698C76.2193 27.5069 76.6758 28.2639 77.4242 28.5193V28.4627H77.3691C77.2232 28.2367 76.9972 28.1436 76.8109 27.9611C76.3745 27.5333 75.8893 27.0022 75.5291 26.5116C74.5127 25.1327 73.6152 23.6226 72.7969 22.0511C72.4064 21.3011 72.0671 20.4735 71.7379 19.7095C71.6106 19.4153 71.6121 18.9696 71.3481 18.8182C70.9863 19.3772 70.4561 19.8299 70.1765 20.4906C69.7309 21.5465 69.6734 22.8345 69.5081 24.1699L69.3963 24.2251C68.6191 24.038 68.3466 23.2383 68.0578 22.5527C67.3279 20.819 67.1921 18.0263 67.8349 16.0302C68.0011 15.5131 68.7519 13.8865 68.4475 13.409C68.3023 12.9331 67.8233 12.6583 67.5562 12.2933C67.2058 11.8051 66.9068 11.2818 66.6641 10.732C66.0663 9.3803 65.7876 7.86243 65.1594 6.49519C64.8582 5.84146 64.3504 5.18075 63.9327 4.6C63.4708 3.95559 62.9529 3.48198 62.5942 2.70403C62.4669 2.42763 62.2938 1.98431 62.4824 1.70014C62.5422 1.50837 62.6284 1.4284 62.8178 1.36552C63.1408 1.11629 64.0414 1.44859 64.3784 1.58834C65.2728 1.96024 66.0189 2.3135 66.7767 2.81505C67.14 3.05652 67.5073 3.52236 67.9475 3.65124H68.4491C69.234 3.83136 70.1137 3.70636 70.8466 3.92919C72.1432 4.3236 73.3047 4.93618 74.359 5.60233C77.5725 7.63184 80.1991 10.52 81.9972 13.9657C82.2861 14.5208 82.4118 15.0496 82.6657 15.6381C83.1797 16.8244 83.8272 18.0457 84.3381 19.2064C84.8482 20.364 85.3459 21.5325 86.0671 22.496C86.446 23.0022 87.9103 23.274 88.5757 23.555C89.0423 23.7522 89.8063 23.958 90.248 24.2235C91.092 24.7328 91.9103 25.3392 92.7015 25.8967C93.0967 26.1777 94.3133 26.7887 94.3738 27.2926ZM69.4522 6.05109C69.1141 6.04555 68.7768 6.08312 68.4483 6.16289V6.21802H68.5042C68.6991 6.61942 69.043 6.87718 69.2845 7.2219L69.8427 8.39271L69.8978 8.33759C70.2433 8.09457 70.4009 7.7056 70.3994 7.11088C70.2604 6.96491 70.2402 6.78246 70.1206 6.60932C69.9623 6.3764 69.6533 6.24597 69.4522 6.05109Z" fill="#00618A"/>
</svg>
