<svg width="83" height="50" viewBox="0 0 83 50" fill="none" xmlns="http://www.w3.org/2000/svg">
<path d="M40.8126 50C40.5431 50 40.2752 49.9297 40.0393 49.7931L37.5776 48.3366C37.2101 48.1309 37.3897 48.0581 37.5108 48.0159C38.0011 47.8457 38.1004 47.8064 38.6238 47.5097C38.6782 47.479 38.7506 47.4906 38.8069 47.5237L40.698 48.6465C40.7666 48.6845 40.8633 48.6845 40.9263 48.6465L48.2991 44.3911C48.3678 44.352 48.4117 44.273 48.4117 44.1916V35.6832C48.4117 35.6 48.3676 35.5223 48.2973 35.48L40.9276 31.2283C40.8596 31.1885 40.769 31.1885 40.7004 31.2283L33.3325 35.4813C33.2609 35.5223 33.2155 35.6026 33.2155 35.6832V44.1916C33.2155 44.273 33.2607 44.3501 33.3318 44.3887L35.3515 45.5556C36.4474 46.1036 37.1182 45.4582 37.1182 44.8099V36.4091C37.1182 36.2904 37.2138 36.1966 37.3325 36.1966H38.2674C38.3844 36.1966 38.4811 36.2904 38.4811 36.4091V44.8099C38.4811 46.2724 37.6846 47.1112 36.2981 47.1112C35.8719 47.1112 35.5364 47.1112 34.5998 46.6496L32.6665 45.5366C32.189 45.2605 31.8932 44.7443 31.8932 44.1916V35.6832C31.8932 35.1305 32.1888 34.6143 32.6665 34.3395L40.0393 30.0791C40.5059 29.8152 41.1259 29.8152 41.5888 30.0791L48.9611 34.3395C49.4385 34.6156 49.7355 35.1305 49.7355 35.6832V44.1916C49.7355 44.7443 49.4385 45.2587 48.9611 45.5366L41.5888 49.7933C41.3531 49.9297 41.0857 50 40.8126 50Z" fill="#699F63"/>
<path d="M43.09 44.1383C39.8636 44.1383 39.1878 42.6574 39.1878 41.4152C39.1878 41.2971 39.2826 41.2028 39.4009 41.2028H40.3542C40.4606 41.2028 40.5494 41.2794 40.566 41.3835C40.71 42.3538 41.1391 42.8436 43.0901 42.8436C44.6433 42.8436 45.3046 42.4923 45.3046 41.6682C45.3046 41.1932 45.1173 40.8405 42.7033 40.6041C40.6862 40.4046 39.4384 39.9589 39.4384 38.345C39.4384 36.8573 40.6923 35.9702 42.7947 35.9702C45.1566 35.9702 46.3253 36.79 46.4733 38.5487C46.4789 38.6093 46.4575 38.6676 46.4171 38.7128C46.3766 38.7551 46.3203 38.7807 46.2609 38.7807H45.304C45.2049 38.7807 45.1173 38.7104 45.0971 38.6143C44.8676 37.5931 44.3093 37.2669 42.7947 37.2669C41.0988 37.2669 40.9017 37.8576 40.9017 38.3002C40.9017 38.8365 41.1344 38.9926 43.424 39.2956C45.6897 39.595 46.766 40.0193 46.766 41.6116C46.7657 43.2181 45.4262 44.1383 43.09 44.1383Z" fill="#699F63"/>
<path d="M53.7212 35.215C53.7212 35.9968 53.0821 36.6359 52.3004 36.6359C51.5258 36.6359 50.8795 36.0043 50.8795 35.215C50.8795 34.4105 51.5413 33.7938 52.3004 33.7938C53.0674 33.7938 53.7212 34.4105 53.7212 35.215ZM51.1089 35.2109C51.1089 35.8727 51.6426 36.4067 52.2965 36.4067C52.9583 36.4067 53.4922 35.8615 53.4922 35.2109C53.4922 34.5495 52.9511 34.0232 52.2965 34.0232C51.65 34.0234 51.1089 34.5418 51.1089 35.2109ZM51.7665 34.4179H52.3157C52.5036 34.4179 52.8721 34.4179 52.8721 34.8391C52.8721 35.1323 52.6842 35.1923 52.5709 35.23C52.7894 35.2451 52.8042 35.3879 52.8341 35.5909C52.8494 35.7186 52.8721 35.9368 52.9168 36.0119H52.5789C52.5709 35.937 52.5183 35.5308 52.5183 35.5084C52.4964 35.418 52.4657 35.3732 52.3532 35.3732H52.0752V36.0119H51.7667V34.4179H51.7665ZM52.0677 35.117H52.3155C52.5182 35.117 52.5562 34.9743 52.5562 34.8917C52.5562 34.6733 52.4056 34.6733 52.3229 34.6733H52.0677V35.117Z" fill="#699F63"/>
<path d="M17.9817 16.7111C17.9817 16.3713 17.8028 16.0591 17.5096 15.8908L9.6929 11.3923C9.56076 11.3146 9.41256 11.2742 9.26252 11.2679C9.24905 11.2679 9.19276 11.2679 9.18169 11.2679C9.03239 11.274 8.88419 11.3144 8.75002 11.3923L0.933331 15.8908C0.641923 16.0591 0.460693 16.3713 0.460693 16.7111L0.477857 28.8242C0.477857 28.9925 0.565334 29.1493 0.713529 29.2318C0.858587 29.3188 1.03797 29.3188 1.18248 29.2318L5.82801 26.5717C6.12182 26.3973 6.30065 26.0893 6.30065 25.7527V20.0934C6.30065 19.756 6.4793 19.4438 6.772 19.2762L8.75002 18.1369C8.89748 18.0519 9.05859 18.0102 9.22321 18.0102C9.38414 18.0102 9.5495 18.0519 9.69271 18.1369L11.6702 19.2762C11.9629 19.4439 12.1423 19.7562 12.1423 20.0934V25.7527C12.1423 26.0893 12.3235 26.3991 12.6155 26.5717L17.2597 29.2318C17.4053 29.3188 17.5873 29.3188 17.7318 29.2318C17.8757 29.1492 17.9664 28.9925 17.9664 28.8242L17.9817 16.7111Z" fill="#333333"/>
<path d="M55.5928 0.0597303C55.4464 -0.0216571 55.268 -0.0198116 55.1235 0.0648977C54.9793 0.149792 54.8906 0.304631 54.8906 0.472019V12.4679C54.8906 12.5858 54.8274 12.6951 54.7256 12.7541C54.6233 12.8132 54.4973 12.8132 54.3949 12.7541L52.4371 11.6261C52.145 11.4578 51.7857 11.4582 51.4937 11.6265L43.6739 16.1394C43.3815 16.308 43.2016 16.6197 43.2016 16.9569V25.9845C43.2016 26.3218 43.3815 26.6333 43.6737 26.8024L51.4931 31.3186C51.7855 31.4872 52.1454 31.4872 52.4377 31.3186L60.2583 26.8024C60.5504 26.6335 60.7303 26.3218 60.7303 25.9845V3.48095C60.7303 3.13879 60.5452 2.82302 60.2461 2.65619L55.5928 0.0597303ZM54.8673 23.0183C54.8673 23.1025 54.8223 23.1806 54.7492 23.2225L52.0643 24.7701C51.9914 24.812 51.9016 24.812 51.8287 24.7701L49.1438 23.2225C49.0707 23.1806 49.0257 23.1025 49.0257 23.0183V19.9181C49.0257 19.8339 49.0707 19.7558 49.1436 19.7136L51.8285 18.1628C51.9016 18.1205 51.9916 18.1205 52.0647 18.1628L54.7496 19.7136C54.8225 19.7558 54.8675 19.8339 54.8675 19.9181L54.8673 23.0183Z" fill="#333333"/>
<path d="M81.6314 19.837C81.9222 19.6682 82.1013 19.357 82.1013 19.0206V16.8329C82.1013 16.4965 81.9222 16.1851 81.631 16.0163L73.8616 11.5053C73.5692 11.3353 73.2083 11.3351 72.9154 11.504L65.0985 16.0168C64.8063 16.1855 64.6264 16.497 64.6264 16.8344V25.8595C64.6264 26.1989 64.8086 26.5121 65.1033 26.6799L72.8716 31.1063C73.1581 31.2698 73.5093 31.2717 73.7975 31.1115L78.4962 28.4999C78.6453 28.417 78.7382 28.2605 78.7389 28.0904C78.7402 27.9202 78.6496 27.7626 78.5019 27.6777L70.6354 23.1627C70.4885 23.0785 70.3983 22.922 70.3983 22.753V19.9245C70.3983 19.7558 70.4881 19.5997 70.6345 19.5155L73.0828 18.1041C73.2284 18.0199 73.4085 18.0199 73.5541 18.1041L76.0037 19.5155C76.15 19.5997 76.2399 19.7558 76.2399 19.9245V22.1498C76.2399 22.3189 76.3303 22.475 76.4765 22.5592C76.6228 22.6437 76.8031 22.643 76.9491 22.5583L81.6314 19.837Z" fill="#333333"/>
<path d="M73.2732 19.4142C73.3293 19.3818 73.3983 19.3818 73.4544 19.4142L74.9549 20.2798C75.011 20.3123 75.0455 20.3719 75.0455 20.4368V22.1694C75.0455 22.2344 75.011 22.294 74.9549 22.3265L73.4544 23.192C73.3983 23.2245 73.3293 23.2245 73.2732 23.192L71.7739 22.3265C71.7178 22.294 71.6833 22.2344 71.6833 22.1694V20.4368C71.6833 20.3719 71.7178 20.3123 71.7739 20.2798L73.2732 19.4142Z" fill="#699F63"/>
<path d="M31.0622 11.551C30.7717 11.3833 30.4136 11.3833 30.1233 11.551L22.3474 16.0382C22.0566 16.206 21.8776 16.5158 21.8776 16.8517V25.8331C21.8776 26.1686 22.0566 26.4785 22.3471 26.6466L30.123 31.1375C30.4136 31.3053 30.7717 31.3053 31.0625 31.1375L38.8366 26.6466C39.1271 26.4787 39.3059 26.1686 39.3059 25.8331V16.8514C39.3059 16.5158 39.1269 16.206 38.8362 16.0382L31.0622 11.551Z" fill="url(#paint0_linear_302_271)"/>
<path d="M38.8515 16.0382L31.0538 11.551C30.9769 11.5066 30.8946 11.4748 30.8099 11.454L22.0547 26.4307C22.1302 26.5156 22.2186 26.5896 22.3168 26.6464L30.1276 31.1373C30.3489 31.265 30.6118 31.2949 30.8531 31.2281L39.0606 16.1992C38.9983 16.1375 38.9283 16.0825 38.8515 16.0382Z" fill="url(#paint1_linear_302_271)"/>
<path d="M29.8639 9.90151L29.7568 9.9626H29.8997L29.8639 9.90151Z" fill="url(#paint2_linear_302_271)"/>
<path d="M38.856 26.6466C39.0826 26.5156 39.2516 26.2976 39.3157 26.0491L30.7678 11.4458C30.5447 11.4014 30.3079 11.435 30.1069 11.551L22.3616 16.0115L30.7287 31.2543C30.8481 31.2381 30.9651 31.1993 31.0721 31.1377L38.856 26.6466Z" fill="url(#paint3_linear_302_271)"/>
<path d="M39.5809 26.5021L39.5294 26.4141V26.532L39.5809 26.5021Z" fill="url(#paint4_linear_302_271)"/>
<path d="M38.856 26.6466L31.0721 31.1375C30.9651 31.1993 30.8481 31.2381 30.7287 31.2543L30.8837 31.5365L39.5294 26.532V26.4141L39.3157 26.0491C39.2516 26.2976 39.0826 26.5154 38.856 26.6466Z" fill="url(#paint5_linear_302_271)"/>
<path d="M38.856 26.6466L31.0721 31.1375C30.9651 31.1993 30.8481 31.2381 30.7287 31.2543L30.8837 31.5365L39.5294 26.532V26.4141L39.3157 26.0491C39.2516 26.2976 39.0826 26.5154 38.856 26.6466Z" fill="url(#paint6_linear_302_271)"/>
<defs>
<linearGradient id="paint0_linear_302_271" x1="56.0908" y1="8.73985" x2="45.0437" y2="50.625" gradientUnits="userSpaceOnUse">
<stop stop-color="#41873F"/>
<stop offset="0.3288" stop-color="#418B3D"/>
<stop offset="0.6352" stop-color="#419637"/>
<stop offset="0.9319" stop-color="#3FA92D"/>
<stop offset="1" stop-color="#3FAE2A"/>
</linearGradient>
<linearGradient id="paint1_linear_302_271" x1="35.7621" y1="27.6109" x2="84.9392" y2="-41.495" gradientUnits="userSpaceOnUse">
<stop offset="0.1376" stop-color="#41873F"/>
<stop offset="0.4032" stop-color="#54A044"/>
<stop offset="0.7136" stop-color="#66B848"/>
<stop offset="0.9081" stop-color="#6CC04A"/>
</linearGradient>
<linearGradient id="paint2_linear_302_271" x1="-4660.09" y1="25.0004" x2="5615.34" y2="25.0004" gradientUnits="userSpaceOnUse">
<stop offset="0.0919" stop-color="#6CC04A"/>
<stop offset="0.2864" stop-color="#66B848"/>
<stop offset="0.5968" stop-color="#54A044"/>
<stop offset="0.8624" stop-color="#41873F"/>
</linearGradient>
<linearGradient id="paint3_linear_302_271" x1="-3.19512" y1="25" x2="83.3786" y2="25" gradientUnits="userSpaceOnUse">
<stop offset="0.0919" stop-color="#6CC04A"/>
<stop offset="0.2864" stop-color="#66B848"/>
<stop offset="0.5968" stop-color="#54A044"/>
<stop offset="0.8624" stop-color="#41873F"/>
</linearGradient>
<linearGradient id="paint4_linear_302_271" x1="-28423.8" y1="24.9998" x2="82.1887" y2="24.9998" gradientUnits="userSpaceOnUse">
<stop offset="0.0919" stop-color="#6CC04A"/>
<stop offset="0.2864" stop-color="#66B848"/>
<stop offset="0.5968" stop-color="#54A044"/>
<stop offset="0.8624" stop-color="#41873F"/>
</linearGradient>
<linearGradient id="paint5_linear_302_271" x1="-84.1993" y1="25" x2="82.5794" y2="25" gradientUnits="userSpaceOnUse">
<stop offset="0.0919" stop-color="#6CC04A"/>
<stop offset="0.2864" stop-color="#66B848"/>
<stop offset="0.5968" stop-color="#54A044"/>
<stop offset="0.8624" stop-color="#41873F"/>
</linearGradient>
<linearGradient id="paint6_linear_302_271" x1="42.2002" y1="14.4679" x2="31.1122" y2="37.0874" gradientUnits="userSpaceOnUse">
<stop stop-color="#41873F"/>
<stop offset="0.3288" stop-color="#418B3D"/>
<stop offset="0.6352" stop-color="#419637"/>
<stop offset="0.9319" stop-color="#3FA92D"/>
<stop offset="1" stop-color="#3FAE2A"/>
</linearGradient>
</defs>
</svg>
