<svg width="49" height="50" viewBox="0 0 49 50" fill="none" xmlns="http://www.w3.org/2000/svg">
<path d="M36.5181 36.4734C36.8384 33.8071 36.7426 33.4159 38.7284 33.8476L39.2326 33.8922C40.7598 33.9616 42.7577 33.6465 43.9308 33.1012C46.4572 31.9292 47.9551 29.9713 45.4641 30.4856C39.7813 31.6576 39.3907 29.7342 39.3907 29.7342C45.3916 20.8308 47.9003 9.52911 45.7352 6.76248C39.83 -0.783437 29.6076 2.78481 29.4364 2.87754L29.3816 2.88818C28.2588 2.65459 27.0026 2.51575 25.5909 2.49295C23.0194 2.45089 21.068 3.16738 19.5879 4.28974C19.5879 4.28974 1.35198 -3.22324 2.20021 13.7378C2.3806 17.3461 7.37219 41.0404 13.3255 33.8836C15.5013 31.267 17.6042 29.0542 17.6042 29.0542C18.6485 29.7478 19.8986 30.1015 21.2099 29.9743L21.3113 29.8882C21.2798 30.213 21.2935 30.5307 21.3523 30.9067C19.8185 32.6209 20.2695 32.9219 17.2029 33.5527C14.1008 34.1922 15.9234 35.3303 17.1127 35.6277C18.5558 35.989 21.8925 36.5003 24.1478 33.3429L24.0581 33.7032C24.6601 34.1846 24.6191 37.1625 24.7042 39.2902C24.7893 41.4179 24.9322 43.4032 25.366 44.5747C25.7997 45.7452 26.3115 48.7606 30.3413 47.8972C33.7089 47.1746 36.2835 46.1358 36.5181 36.4734Z" fill="black"/>
<path d="M29.029 50C27.2464 50 26.086 49.3109 25.3807 48.6451C24.3166 47.6413 23.8945 46.3476 23.6427 45.5749L23.5337 45.2521C23.026 43.8815 22.8542 41.9084 22.7524 39.3677C22.7374 38.9705 22.7247 38.5733 22.7144 38.1759C22.7058 37.8714 22.6951 37.4893 22.6799 37.0885C22.0377 37.3948 21.3561 37.6104 20.6546 37.729C19.398 37.9439 18.0471 37.8739 16.6384 37.5218C15.6448 37.2735 14.6121 36.7587 14.0238 35.9631C12.3086 37.4655 10.6724 37.2613 9.78113 36.9644C8.20881 36.4399 6.80168 34.9669 5.47866 32.4597C4.53668 30.6746 3.62511 28.3478 2.76928 25.5452C1.27956 20.6641 0.333022 15.523 0.248908 13.8356C-0.0155943 8.55218 1.40623 4.77415 4.47487 2.60695C9.31647 -0.812829 16.6511 1.19779 19.325 2.11089C21.1213 1.02805 23.2348 0.500562 25.6234 0.539072C26.9064 0.559847 28.1276 0.672843 29.2621 0.874514C30.4452 0.502589 32.7832 -0.0314828 35.4591 0.00145327C40.3894 0.0602316 44.475 1.98167 47.2736 5.55803C49.2705 8.10982 48.2835 13.4678 47.5168 16.4351C46.439 20.6078 44.5495 25.0471 42.2288 28.9113C42.8591 28.9158 43.7717 28.8398 45.0699 28.5723C47.6308 28.0433 48.3792 29.4164 48.5824 30.0311C49.3967 32.4972 45.8573 34.3604 44.7532 34.8727C43.3385 35.5299 41.0324 35.9297 39.1434 35.843L39.0608 35.8375L38.5648 35.7939L38.5156 36.2074L38.4685 36.6122C38.3418 41.5091 37.642 44.6101 36.2025 46.6598C34.694 48.8077 32.5967 49.4102 30.7498 49.8059C30.1847 49.9313 29.6078 49.9964 29.029 50ZM25.2783 32.177C26.4291 33.0977 26.5299 34.8301 26.6196 38.068C26.6307 38.4719 26.6414 38.8544 26.6556 39.2116C26.6991 40.293 26.801 42.8255 27.1972 43.8957C27.2535 44.0467 27.3036 44.2007 27.3563 44.3629C27.7982 45.7168 28.0201 46.3953 29.9309 45.9858C31.5357 45.6423 32.3601 45.3337 33.0056 44.4145C33.9441 43.0778 34.469 40.3908 34.5653 36.4253L36.5171 36.4729L34.5785 36.2403L34.6352 35.7564C34.8212 34.1613 34.955 33.008 36.0216 32.2459C36.8769 31.6343 37.8523 31.6936 38.6291 31.8335C37.7758 31.1894 37.5397 30.4324 37.4769 30.1223L37.3142 29.3207L37.7713 28.6417C40.4061 24.7319 42.5794 19.9268 43.7337 15.4581C44.9194 10.8663 44.5576 8.42753 44.1963 7.96642C39.41 1.84993 31.1085 4.37486 30.2421 4.66217L30.0951 4.74121L29.3604 4.87853L28.9839 4.8005C27.9467 4.58515 26.7944 4.46607 25.5585 4.4458C23.6173 4.41337 22.0516 4.87194 20.7676 5.84635L19.8768 6.52179L18.8426 6.09565C16.6344 5.19269 10.1465 3.37715 6.72314 5.80176C4.82298 7.14758 3.95751 9.785 4.15006 13.6406C4.2134 14.9134 5.07886 19.7317 6.50474 24.4056C8.47635 30.8641 10.2681 33.009 11.016 33.2588C11.1462 33.3029 11.4852 33.0394 11.8222 32.6351C14.0142 29.9987 16.0988 27.8011 16.1864 27.7083L17.3169 26.5191L18.6835 27.4271C19.2343 27.7935 19.8418 28.0007 20.4661 28.0397L23.7258 25.2599L23.2535 30.0787C23.2429 30.1872 23.2378 30.3341 23.2804 30.6077L23.4223 31.5213L22.8076 32.2094L22.7367 32.289L24.5274 33.1159L25.2783 32.177Z" fill="black"/>
<path d="M45.4657 30.4856C39.7825 31.6576 39.3918 29.7336 39.3918 29.7336C45.3923 20.8302 47.9005 9.52809 45.7358 6.76197C39.8301 -0.783951 29.6078 2.7848 29.437 2.87753L29.3818 2.88716C28.2589 2.65458 27.0028 2.51574 25.5906 2.49294C23.019 2.45088 21.0682 3.16686 19.5881 4.28922C19.5881 4.28922 1.35161 -3.22325 2.19984 13.7378C2.38023 17.3461 7.37182 41.0404 13.3252 33.8836C15.501 31.2669 17.6033 29.0541 17.6033 29.0541C18.6476 29.7478 19.8977 30.1015 21.2085 29.9743L21.3104 29.8882C21.279 30.213 21.2932 30.5307 21.3509 30.9067C19.8176 32.6209 20.2676 32.9219 17.202 33.5527C14.0994 34.1922 15.922 35.3302 17.1123 35.6277C18.5549 35.989 21.8921 36.5002 24.147 33.3429L24.0568 33.7032C24.6577 34.1846 25.0798 36.8342 25.0089 39.236C24.9379 41.6378 24.8908 43.2866 25.3646 44.5747C25.8383 45.8622 26.3101 48.7606 30.3405 47.8972C33.7081 47.1751 35.4532 45.3048 35.6964 42.1855C35.8687 39.9677 36.2583 40.2955 36.2832 38.3122L36.5963 37.3733C36.9566 34.3665 36.6536 33.3966 38.7285 33.8481L39.2327 33.8922C40.7599 33.9621 42.7584 33.6465 43.9314 33.1012C46.4579 31.9287 47.9562 29.9713 45.4657 30.4856Z" fill="#336791"/>
<path d="M29.2327 48.796C25.8727 48.7966 24.8086 46.1358 24.3729 45.0479C23.7359 43.4538 23.5981 37.2659 23.74 32.1912C23.7494 32.0218 23.8246 31.8627 23.9495 31.7478C24.0744 31.633 24.2392 31.5714 24.4088 31.5761C24.5785 31.5809 24.7395 31.6516 24.8578 31.7733C24.9761 31.895 25.0423 32.058 25.0422 32.2277C24.8786 38.0807 25.1111 43.3844 25.5824 44.564C26.3186 46.4044 27.4349 48.0142 30.5922 47.3382C33.5894 46.6952 34.7118 45.5587 35.2114 42.6613C35.5955 40.4374 36.3535 34.1111 36.4467 32.8626C36.4596 32.6903 36.5403 32.5303 36.6711 32.4176C36.802 32.3049 36.9723 32.2488 37.1445 32.2616C37.3167 32.2744 37.4768 32.3552 37.5895 32.486C37.7022 32.6169 37.7583 32.7871 37.7454 32.9593C37.6481 34.2585 36.8931 40.5732 36.4944 42.8827C35.9041 46.3056 34.3783 47.8581 30.8648 48.6116C30.3288 48.7301 29.7817 48.7919 29.2327 48.796ZM11.016 35.8015C10.7224 35.8012 10.4308 35.7531 10.1526 35.6591C7.97017 34.931 5.89165 31.3769 3.97426 25.0947C2.51494 20.3124 1.59019 15.3213 1.50912 13.6993C1.26843 8.89065 2.50734 5.48809 5.19036 3.58692C10.4987 -0.174387 19.4289 3.40754 19.8064 3.56158C19.9648 3.62788 20.0906 3.75408 20.1564 3.9127C20.2223 4.07132 20.2227 4.24952 20.1578 4.40849C20.0928 4.56747 19.9677 4.69435 19.8096 4.7615C19.6516 4.82865 19.4734 4.83065 19.3139 4.76704V4.76755C19.2277 4.73208 10.6643 1.30166 5.9408 4.65151C3.64642 6.27856 2.59297 9.30057 2.80934 13.635C2.87774 15.0011 3.74168 19.8731 5.21975 24.7152C6.93142 30.3229 8.87972 33.8623 10.5645 34.4237C10.8285 34.5124 11.6332 34.7805 12.7844 33.3971C14.9491 30.7927 16.9379 28.7141 16.9577 28.6934C17.0788 28.576 17.2407 28.5102 17.4093 28.5097C17.5779 28.5092 17.7401 28.5741 17.8619 28.6908C17.9837 28.8074 18.0555 28.9667 18.0622 29.1352C18.069 29.3037 18.0102 29.4683 17.8981 29.5943C17.8784 29.6146 15.9199 31.6622 13.7857 34.2297C12.7748 35.4448 11.8055 35.8015 11.016 35.8015ZM39.3512 30.3143C39.233 30.3145 39.1169 30.2824 39.0155 30.2216C38.9141 30.1608 38.8312 30.0734 38.7757 29.969C38.7202 29.8646 38.6943 29.7471 38.7006 29.629C38.7069 29.5109 38.7452 29.3968 38.8116 29.2989C44.8774 20.2977 47.0066 9.42218 45.1829 7.09233C42.8875 4.1595 39.6461 2.62721 35.5494 2.53955C32.5157 2.47368 30.1043 3.24844 29.7105 3.38373L29.6117 3.42376C29.2155 3.54841 28.9115 3.33103 28.7969 3.07717C28.7317 2.93172 28.7218 2.76744 28.7693 2.61523C28.8167 2.46303 28.9181 2.3334 29.0544 2.25072L29.2297 2.17877L29.2211 2.1813L29.2302 2.17826C29.8995 1.93352 32.3475 1.19879 35.3801 1.23376C39.9136 1.28139 43.6582 3.03004 46.209 6.2892C47.416 7.83162 47.4185 11.3852 46.2166 16.0383C44.9914 20.7821 42.6859 25.8811 39.8919 30.027C39.8323 30.1157 39.7518 30.1882 39.6575 30.2384C39.5632 30.2885 39.458 30.3146 39.3512 30.3143ZM39.6608 34.481C38.6251 34.481 37.6968 34.3356 37.1409 34.0022C36.5694 33.6601 36.4604 33.1945 36.4462 32.9477C36.2902 30.2094 37.8012 29.7326 38.5719 29.5152C38.4645 29.3531 38.3114 29.1621 38.1538 28.965C37.7044 28.4035 37.0892 27.6343 36.615 26.4841C36.541 26.3047 36.3079 25.8867 36.0383 25.4033C34.5775 22.7841 31.5382 17.3334 33.4906 14.542C34.3946 13.2504 36.1934 12.7421 38.8445 13.0259C38.0647 10.6499 34.3505 3.21702 25.5388 3.07261C22.8882 3.02802 20.7144 3.84331 19.0813 5.49214C15.4244 9.18555 15.5571 15.868 15.5587 15.9344C15.5609 16.0199 15.5463 16.105 15.5156 16.1848C15.485 16.2646 15.4389 16.3376 15.38 16.3996C15.3212 16.4616 15.2507 16.5114 15.1725 16.5462C15.0944 16.581 15.0102 16.6 14.9248 16.6023C14.8393 16.6045 14.7542 16.5899 14.6744 16.5592C14.5946 16.5286 14.5216 16.4825 14.4596 16.4236C14.3975 16.3648 14.3477 16.2943 14.313 16.2161C14.2782 16.138 14.2591 16.0538 14.2569 15.9684C14.2488 15.6719 14.112 8.65959 18.156 4.57551C20.0486 2.6642 22.5396 1.72071 25.5601 1.76986C31.1987 1.86258 34.8273 4.72853 36.879 7.11716C39.1146 9.71962 40.2111 12.5906 40.3013 13.5483C40.3687 14.2608 39.8574 14.4036 39.754 14.4244L39.5194 14.43C36.9175 14.0135 35.2484 14.3023 34.5582 15.2889C33.0731 17.411 35.9481 22.5667 37.1759 24.7689C37.4895 25.3303 37.7155 25.7362 37.8189 25.987C38.2222 26.965 38.7482 27.6222 39.1708 28.1502C39.5422 28.6148 39.8645 29.0171 39.98 29.4904C40.0332 29.5842 40.7923 30.706 45.2944 29.7767C46.4228 29.5441 47.0993 29.7433 47.306 30.3685C47.7129 31.5993 45.4302 33.0343 44.1665 33.6216C43.0324 34.1481 41.225 34.481 39.6608 34.481ZM37.7449 32.8403C37.8873 32.9847 38.6018 33.233 40.0819 33.1696C41.3973 33.1129 42.7852 32.8266 43.6182 32.4405C44.6833 31.9459 45.3937 31.3931 45.7621 31.0156L45.5574 31.0531C42.6788 31.6475 40.6428 31.5684 39.5062 30.8175C39.4298 30.7671 39.3562 30.7125 39.2858 30.6538C39.1627 30.7025 39.0487 30.7344 38.9676 30.7572C38.3226 30.9381 37.6557 31.1251 37.7449 32.8403ZM19.1502 36.4779C18.4352 36.4779 17.6828 36.3812 16.9141 36.1881C16.1181 35.989 14.7753 35.3895 14.7961 34.405C14.8189 33.2999 16.4256 32.9685 17.0312 32.8438C19.2161 32.3939 19.3585 32.2135 20.0415 31.3465C20.2407 31.0936 20.4884 30.779 20.8259 30.4015C21.3275 29.8406 21.8758 29.5558 22.4555 29.5558C22.8588 29.5558 23.1902 29.6931 23.4086 29.7833C24.1058 30.0721 24.6875 30.7704 24.9267 31.6064C25.1426 32.3604 25.0397 33.086 24.6369 33.6495C23.3154 35.5005 21.4182 36.4779 19.1502 36.4779ZM16.2027 34.4612C16.3993 34.6127 16.7925 34.8154 17.2298 34.9254C17.8956 35.0916 18.5411 35.1762 19.1502 35.1762C21.0058 35.1762 22.495 34.4075 23.5773 32.893C23.8028 32.5768 23.7354 32.176 23.6751 31.9647C23.5484 31.5228 23.2343 31.121 22.9105 30.9862C22.7347 30.9133 22.5892 30.8575 22.4555 30.8575C22.3835 30.8575 22.1651 30.8575 21.7968 31.2695C21.4856 31.6171 21.2622 31.9008 21.0641 32.1517C20.2138 33.2314 19.8241 33.5978 17.2936 34.1192C16.6765 34.2469 16.3598 34.3756 16.2027 34.4612ZM21.21 31.4575C21.0545 31.4572 20.9043 31.4014 20.7864 31.3001C20.6685 31.1989 20.5907 31.0588 20.567 30.9051C20.5503 30.797 20.5395 30.6881 20.5345 30.5788C18.8756 30.5474 17.2754 29.836 16.0608 28.5682C14.525 26.9655 13.8257 24.7451 14.1429 22.4765C14.4875 20.0129 14.3588 17.8381 14.2893 16.6697C14.272 16.4293 14.2613 16.1885 14.2574 15.9476C14.2584 15.7419 14.2625 15.1951 16.0892 14.2694C16.7388 13.94 18.0415 13.3654 19.4644 13.2179C21.8226 12.9747 23.3767 14.0246 23.8418 16.1751C25.0975 21.982 23.9411 24.5505 23.097 26.4258C22.9394 26.7745 22.7909 27.1048 22.6723 27.4241L22.5675 27.7063C22.1216 28.9021 21.7359 29.9353 21.8545 30.7075C21.8806 30.8782 21.8379 31.0523 21.7357 31.1916C21.6336 31.3308 21.4805 31.4239 21.3098 31.4504L21.21 31.4575ZM15.5637 16.1275L15.5896 16.5926C15.6615 17.8062 15.7953 20.0651 15.4325 22.6574C15.171 24.5282 15.7426 26.3549 17.0007 27.6678C17.9949 28.7055 19.3043 29.2781 20.6496 29.2781H20.6774C20.8284 28.6432 21.0782 27.9733 21.3473 27.2513L21.4517 26.9711C21.586 26.6103 21.743 26.2612 21.9092 25.8918C22.722 24.0859 23.7334 21.8381 22.5685 16.4502C22.3374 15.3836 21.778 14.7659 20.8583 14.5622C18.9693 14.1447 16.1545 15.5655 15.5637 16.1275ZM19.4938 15.8513C19.4613 16.0814 19.9158 16.696 20.5077 16.7781C21.099 16.8607 21.6052 16.3803 21.6371 16.1503C21.6691 15.9197 21.2151 15.6664 20.6227 15.5838C20.0314 15.5012 19.5252 15.6208 19.4938 15.8513ZM20.644 17.0051L20.4778 16.9934C20.1104 16.9423 19.739 16.7107 19.4851 16.3737C19.396 16.2557 19.25 16.0256 19.2789 15.8209C19.3205 15.5204 19.6863 15.3411 20.2584 15.3411C20.3866 15.3411 20.5193 15.3507 20.6536 15.3689C20.9658 15.4125 21.2561 15.5027 21.4704 15.6223C21.8419 15.83 21.8692 16.0611 21.8525 16.1812C21.8064 16.5121 21.2784 17.0051 20.644 17.0051ZM19.7096 15.8898C19.7284 16.0317 20.0795 16.5004 20.5376 16.5637L20.6435 16.5713C21.0661 16.5713 21.3823 16.2384 21.4193 16.1295C21.3802 16.0555 21.1086 15.8706 20.5928 15.7996C20.4819 15.7837 20.37 15.7756 20.2579 15.7753C19.9275 15.7748 19.7507 15.8493 19.7096 15.8898ZM37.5058 15.3816C37.5377 15.6121 37.0842 16.2268 36.4918 16.3089C35.9 16.391 35.3938 15.9111 35.3614 15.6806C35.3299 15.4505 35.784 15.1966 36.3758 15.1146C36.9676 15.0315 37.4733 15.1521 37.5058 15.3816ZM36.3555 16.4264C35.7855 16.4264 35.2945 15.9831 35.2539 15.6958C35.2073 15.3507 35.7753 15.0882 36.3611 15.0071C36.4898 14.9889 36.6175 14.9798 36.7406 14.9798C37.2458 14.9798 37.5802 15.1282 37.6137 15.3669C37.6355 15.522 37.5169 15.7606 37.3122 15.9755C37.1774 16.1173 36.8937 16.3631 36.5075 16.4163L36.3555 16.4264ZM36.7401 15.1966C36.6271 15.1966 36.5096 15.2053 36.3905 15.2215C35.8017 15.3031 35.4516 15.5397 35.4683 15.6664C35.488 15.8052 35.8635 16.2096 36.355 16.2096L36.4761 16.2009C36.7974 16.1558 37.0386 15.9466 37.1536 15.8255C37.334 15.6355 37.4059 15.4571 37.3973 15.3958C37.3867 15.3162 37.1698 15.1966 36.7401 15.1966ZM38.3586 28.6006C38.2406 28.6006 38.1249 28.5685 38.0238 28.5078C37.9227 28.4471 37.8399 28.3601 37.7844 28.256C37.7289 28.1519 37.7027 28.0348 37.7086 27.917C37.7145 27.7992 37.7523 27.6852 37.8179 27.5872C39.2043 25.5163 38.9504 23.4038 38.7051 21.3618C38.6003 20.4913 38.4923 19.5918 38.5207 18.7279C38.5491 17.8396 38.6616 17.1069 38.771 16.3975C38.9002 15.5579 39.0223 14.7639 38.9717 13.8224C38.9679 13.6532 39.0302 13.4892 39.1453 13.3651C39.2603 13.241 39.4192 13.1665 39.5882 13.1574C39.7572 13.1483 39.9231 13.2054 40.0508 13.3164C40.1785 13.4275 40.258 13.5839 40.2724 13.7525C40.3302 14.8288 40.1918 15.7267 40.0581 16.5957C39.9547 17.266 39.8478 17.9592 39.8219 18.7695C39.7971 19.5341 39.8949 20.3463 39.9983 21.2057C40.2597 23.378 40.5551 25.8401 38.9002 28.3113C38.7746 28.4988 38.5683 28.6006 38.3586 28.6006Z" fill="white"/>
</svg>
