<svg width="51" height="50" viewBox="0 0 51 50" fill="none" xmlns="http://www.w3.org/2000/svg">
<path d="M45.4896 9.7198C42.4673 5.8061 38.3522 2.87659 33.6649 1.30176C28.9775 -0.273073 23.9284 -0.422483 19.1561 0.872426C14.3839 2.16733 10.1028 4.84839 6.8543 8.57653C3.60584 12.3047 1.53593 16.9124 0.906357 21.817C0.27678 26.7216 1.11582 31.7027 3.31735 36.1305C5.51889 40.5582 8.98404 44.2336 13.2745 46.6918C17.5651 49.1501 22.4882 50.2808 27.4213 49.9409C32.3545 49.601 37.076 47.8058 40.9889 44.7823C51.9107 36.3417 53.9271 20.6456 45.4896 9.7198Z" fill="#FF6C37"/>
<path d="M34.135 15.9292L23.5935 26.5542L20.6146 23.4917C30.9896 13.1167 32.0303 14.0542 34.135 15.9292Z" fill="white"/>
<path d="M23.5935 26.8448C23.5002 26.8425 23.411 26.8054 23.3435 26.7409L20.3435 23.7409C20.276 23.671 20.2383 23.5776 20.2383 23.4803C20.2383 23.3831 20.276 23.2897 20.3435 23.2198C30.5725 12.9909 31.9685 13.4698 34.385 15.6573C34.467 15.7229 34.5131 15.8229 34.51 15.9284C34.5256 16.0299 34.4865 16.1339 34.406 16.1995L23.8646 26.7417C23.7904 26.8096 23.6943 26.8456 23.5935 26.8448ZM21.135 23.4909L23.5935 25.9495L33.5935 15.9495C33.2483 15.5168 32.7556 15.2265 32.2098 15.1343C31.6639 15.0421 31.1032 15.1543 30.635 15.4495C28.8225 16.262 25.906 18.7409 21.135 23.4909Z" fill="#FF6C37"/>
<path d="M26.6146 29.4917L23.7396 26.5542L34.281 16.137C37.1146 18.9081 32.906 23.5339 26.6146 29.4917Z" fill="white"/>
<path d="M26.6146 29.8667C26.5224 29.8593 26.4349 29.823 26.3646 29.7628L23.4271 26.8878C23.3831 26.7809 23.3831 26.661 23.4271 26.5542C23.3959 26.4667 23.3959 26.3706 23.4271 26.2831L33.9685 15.7417C34.1209 15.5987 34.3576 15.5987 34.51 15.7417C35.2014 16.3776 35.5803 17.2823 35.5514 18.2206C35.5514 21.0331 32.3428 24.5745 26.885 29.7417C26.812 29.8138 26.7169 29.8581 26.6146 29.8667ZM24.281 26.5542L26.635 28.9073C30.8014 24.9698 34.781 20.9073 34.8014 18.1573C34.824 17.5743 34.6313 17.0034 34.26 16.5534L24.281 26.5542Z" fill="#FF6C37"/>
<path d="M20.6975 23.5542L22.781 25.6378C22.7943 25.6495 22.805 25.6639 22.8123 25.6801C22.8196 25.6962 22.8234 25.7138 22.8234 25.7315C22.8234 25.7492 22.8196 25.7668 22.8123 25.7829C22.805 25.7991 22.7943 25.8135 22.781 25.8253L18.385 26.7628C18.2029 26.8018 18.0178 26.7143 17.9303 26.5503C17.8428 26.3862 17.8756 26.1831 18.01 26.0542L20.5725 23.5128C20.5725 23.5128 20.656 23.5128 20.6975 23.5542Z" fill="white"/>
<path d="M18.281 27.1792C18.1422 27.1774 18.006 27.1401 17.8857 27.0707C17.7653 27.0014 17.6647 26.9024 17.5935 26.7831C17.4295 26.4729 17.4881 26.0909 17.7396 25.8456L20.281 23.2831C20.3727 23.2012 20.4913 23.1559 20.6143 23.1559C20.7372 23.1559 20.8558 23.2012 20.9475 23.2831L23.031 25.3667C23.1545 25.4839 23.2029 25.6612 23.156 25.8253C23.1092 25.9893 22.9717 26.1198 22.8021 26.1589L18.406 27.0964L18.281 27.1792ZM20.6146 24.0128L18.2607 26.3667L22.1568 25.5331L20.6146 24.0128Z" fill="#FF6C37"/>
<path d="M39.7396 10.0745C38.2318 8.6198 35.8631 8.55886 34.2818 9.93151C32.7006 11.3042 32.4303 13.6604 33.6615 15.3557C34.8928 17.051 37.2139 17.526 39.0107 16.4495L36.1771 13.6159L39.7396 10.0745Z" fill="white"/>
<path d="M36.9271 17.4073C36.0609 17.3962 35.217 17.1304 34.5007 16.6431C33.7844 16.1557 33.2274 15.4684 32.899 14.6667C32.2271 13.0276 32.599 11.1464 33.8365 9.88698C34.6706 9.06821 35.7927 8.60949 36.9615 8.60949C38.1303 8.60949 39.2524 9.06821 40.0865 9.88698C40.1662 9.95417 40.2115 10.0534 40.2115 10.1581C40.2113 10.2096 40.2001 10.2604 40.1785 10.3072C40.1569 10.354 40.1256 10.3956 40.0865 10.4292L36.7115 13.6167L39.274 16.1378C39.3155 16.1774 39.3467 16.2266 39.3648 16.2811C39.3829 16.3356 39.3874 16.3937 39.3779 16.4503C39.3717 16.5049 39.3536 16.5575 39.3249 16.6043C39.2961 16.6512 39.2574 16.6911 39.2115 16.7214C38.5231 17.1517 37.7317 17.3891 36.9201 17.4089L36.9271 17.4073ZM36.9271 9.3237C35.4428 9.33151 34.1146 10.2245 33.5576 11.5893C33.0006 12.9542 33.3037 14.5253 34.3443 15.5737C35.4037 16.6385 37.0006 16.9448 38.3857 16.3448L35.9271 13.8862C35.8451 13.8206 35.799 13.7206 35.8021 13.6151C35.8053 13.5175 35.8506 13.426 35.9271 13.3651L39.1771 10.094C38.531 9.5987 37.7412 9.32917 36.9271 9.3237Z" fill="#FF6C37"/>
<path d="M39.8021 10.137L36.2396 13.6784L39.0732 16.512C39.3584 16.3483 39.6239 16.1525 39.8646 15.9284C41.4084 14.2878 41.3803 11.7346 39.8021 10.137Z" fill="white"/>
<path d="M39.01 16.8245C38.9632 16.827 38.9164 16.819 38.8731 16.801C38.8298 16.783 38.7912 16.7555 38.76 16.7206L35.9264 13.887C35.8443 13.8214 35.7982 13.7214 35.8014 13.6159C35.8045 13.5182 35.8498 13.4268 35.9264 13.3659L39.4678 9.88698C39.502 9.83541 39.5484 9.79311 39.6029 9.76385C39.6575 9.73459 39.7184 9.71927 39.7803 9.71927C39.8421 9.71927 39.9031 9.73459 39.9576 9.76385C40.0121 9.79311 40.0586 9.83541 40.0928 9.88698C40.5085 10.2943 40.8388 10.7805 41.0643 11.3171C41.2898 11.8537 41.4059 12.4299 41.4059 13.012C41.4059 13.594 41.2898 14.1702 41.0643 14.7068C40.8388 15.2434 40.5085 15.7296 40.0928 16.137C39.8475 16.3971 39.5669 16.6214 39.2592 16.8034C39.1817 16.8424 39.0929 16.85 39.01 16.8245ZM36.7185 13.6167L39.0724 15.9706C39.2344 15.8571 39.3877 15.7317 39.531 15.5956C40.223 14.9055 40.6128 13.9689 40.6146 12.9917C40.6162 12.1171 40.2975 11.2722 39.7185 10.6167L36.7185 13.6167Z" fill="#FF6C37"/>
<path d="M34.5725 16.3667C33.9865 15.8167 33.0748 15.8167 32.4889 16.3667L23.0521 25.7823L24.6146 27.3659L34.5935 18.6159C34.9021 18.3214 35.0748 17.9128 35.0701 17.4862C35.0654 17.0596 34.8857 16.6549 34.5725 16.3667Z" fill="white"/>
<path d="M24.531 27.7417C24.4377 27.7394 24.3485 27.7023 24.281 27.6378L22.6975 26.0542C22.6299 25.9843 22.5922 25.8908 22.5922 25.7936C22.5922 25.6964 22.6299 25.603 22.6975 25.5331L32.135 16.137C32.8834 15.3901 34.0959 15.3901 34.8435 16.137C35.2185 16.512 35.4217 17.0237 35.406 17.5534C35.3842 18.0799 35.1514 18.5753 34.76 18.9284L24.781 27.6784C24.7084 27.7299 24.6193 27.7526 24.531 27.7417ZM23.4271 25.7823L24.4685 26.8448L34.26 18.3237C34.5021 18.1128 34.6467 17.8112 34.656 17.4901C34.6654 17.169 34.5389 16.8549 34.3021 16.6362C33.8467 16.1831 33.1115 16.1831 32.656 16.6362L23.4271 25.7823Z" fill="#FF6C37"/>
<path d="M15.7396 36.512C15.713 36.5482 15.6986 36.592 15.6986 36.637C15.6986 36.6819 15.713 36.7257 15.7396 36.762L16.1561 38.5745C16.192 38.7909 16.0881 39.0065 15.8967 39.1213C15.8039 39.1756 15.6962 39.1991 15.5892 39.1883C15.4822 39.1775 15.3814 39.133 15.3014 39.0612L12.4475 36.3112L21.3435 27.3448H24.4271L26.5107 29.4284C23.2605 32.2701 19.6365 34.6535 15.7396 36.512Z" fill="white"/>
<path d="M15.5521 39.5745C15.3162 39.5698 15.0834 39.4729 14.9271 39.3034L12.1982 36.5745C12.1162 36.5089 12.0701 36.4089 12.0732 36.3034C12.0764 36.2057 12.1217 36.1143 12.1982 36.0534L21.156 27.0745C21.2062 27.0212 21.2718 26.9848 21.3435 26.9706H24.4475C24.5283 26.942 24.6166 26.942 24.6975 26.9706L26.781 29.0542C26.8615 29.1284 26.9006 29.2378 26.885 29.3456C26.8864 29.3973 26.8759 29.4487 26.8542 29.4958C26.8325 29.5428 26.8003 29.5842 26.76 29.6167L26.5935 29.7628C23.3302 32.4833 19.7399 34.7858 15.906 36.6167L16.3021 38.3042C16.3328 38.4343 16.3339 38.5697 16.3056 38.7004C16.2772 38.8311 16.22 38.9538 16.1382 39.0596C16.0564 39.1654 15.952 39.2515 15.8326 39.3118C15.7133 39.3721 15.5819 39.405 15.4482 39.4081L15.5521 39.5745ZM13.0107 36.3034L15.4685 38.7823C15.4915 38.8027 15.5211 38.814 15.5518 38.814C15.5824 38.814 15.6121 38.8027 15.635 38.7823C15.6503 38.761 15.6585 38.7355 15.6585 38.7092C15.6585 38.683 15.6503 38.6575 15.635 38.6362L15.2185 36.8237C15.1514 36.5557 15.281 36.2768 15.531 36.1573C19.2619 34.3508 22.7596 32.0982 25.9475 29.4487L24.2389 27.7401H21.4475L13.0107 36.3034Z" fill="#FF6C37"/>
<path d="M10.3021 38.4495L12.3857 36.3659L15.5943 39.5745L10.4904 39.2206C10.3107 39.2073 10.1584 39.0799 10.1154 38.9034C10.0725 38.7268 10.1482 38.544 10.3029 38.4503L10.3021 38.4495Z" fill="white"/>
<path d="M15.656 39.887L10.5725 39.5331C10.2709 39.5049 10.0115 39.2987 9.90527 39.0229C9.79902 38.7471 9.86386 38.4198 10.0725 38.1995L12.1561 36.1159C12.226 36.0483 12.3194 36.0106 12.4166 36.0106C12.5138 36.0106 12.6072 36.0483 12.6771 36.1159L15.8646 39.3034C15.9553 39.4284 15.9553 39.5956 15.8646 39.7198C15.8162 39.7979 15.7428 39.8573 15.656 39.887ZM10.5725 38.7206L14.7389 38.9917L12.4475 36.8456L10.5725 38.7206Z" fill="#FF6C37"/>
<path d="M24.7185 27.5964L20.51 28.2424L22.9475 25.826L24.7185 27.5964Z" fill="white"/>
<path d="M20.51 28.637C20.367 28.6409 20.2365 28.5589 20.1764 28.4284C20.132 28.368 20.1081 28.2951 20.1081 28.2202C20.1081 28.1453 20.132 28.0723 20.1764 28.012L22.5928 25.5745C22.7451 25.4315 22.9818 25.4315 23.1342 25.5745L24.906 27.3448C24.9414 27.4009 24.9602 27.4659 24.9602 27.5323C24.9602 27.5987 24.9414 27.6637 24.906 27.7198C24.8887 27.7882 24.8519 27.8502 24.8003 27.8982C24.7486 27.9463 24.6841 27.9785 24.6146 27.9909L20.4482 28.637H20.51ZM22.9475 26.3659L21.5935 27.7198L23.9271 27.3659L22.9475 26.3659Z" fill="#FF6C37"/>
<path d="M24.7185 27.5948L21.781 27.9698C21.7024 27.9876 21.6202 27.9797 21.5464 27.9471C21.4727 27.9145 21.4114 27.859 21.3717 27.7889C21.332 27.7187 21.3159 27.6376 21.3259 27.5577C21.3359 27.4777 21.3714 27.403 21.4271 27.3448L22.9482 25.8237L24.7185 27.5948Z" fill="white"/>
<path d="M21.6975 28.3667C21.4201 28.3643 21.1662 28.2128 21.031 27.9706C20.9515 27.828 20.9206 27.6633 20.9432 27.5016C20.9658 27.3398 21.0405 27.1899 21.156 27.0745L22.6771 25.5534C22.8295 25.4104 23.0662 25.4104 23.2185 25.5534L24.9896 27.3245C25.0423 27.3744 25.0794 27.4385 25.0963 27.509C25.1133 27.5796 25.1094 27.6535 25.0852 27.7219C25.061 27.7903 25.0174 27.8502 24.9598 27.8943C24.9022 27.9385 24.8331 27.965 24.7607 27.9706L21.8443 28.3456L21.6975 28.3667ZM21.6975 27.5956L23.906 27.3245L22.9271 26.3456L21.6771 27.5956H21.6975ZM39.8225 12.5331C39.7832 12.4673 39.7212 12.4183 39.6482 12.3952C39.5752 12.3722 39.4962 12.3768 39.4264 12.4081C39.3919 12.4256 39.3612 12.4498 39.3363 12.4793C39.3113 12.5088 39.2925 12.543 39.281 12.58C39.2576 12.6542 39.2654 12.7346 39.3014 12.8042C39.4474 13.1112 39.4068 13.4745 39.1974 13.7417C39.1428 13.7932 39.1193 13.8643 39.1193 13.9393C39.1201 14.0126 39.1479 14.083 39.1974 14.137C39.2509 14.1581 39.3104 14.1581 39.3639 14.137C39.4124 14.1492 39.4633 14.1478 39.5111 14.1331C39.5589 14.1184 39.6017 14.0908 39.635 14.0534C39.8065 13.8434 39.9151 13.5891 39.9483 13.3199C39.9815 13.0508 39.9379 12.7785 39.8225 12.5331Z" fill="#FF6C37"/>
</svg>
