<svg width="57" height="50" viewBox="0 0 57 50" fill="none" xmlns="http://www.w3.org/2000/svg">
<path d="M33.8505 24.9725C33.8505 27.7977 31.5602 30.088 28.735 30.088C25.9099 30.088 23.6196 27.7977 23.6196 24.9725C23.6196 22.1473 25.9099 19.857 28.735 19.857C31.5602 19.857 33.8505 22.1473 33.8505 24.9725Z" fill="#61DAFB"/>
<path fill-rule="evenodd" clip-rule="evenodd" d="M39.9011 50C36.7108 50 32.7505 47.6898 28.735 43.7844C24.7197 47.6347 20.7592 49.945 17.5689 49.835C16.5238 49.835 15.5337 49.615 14.7086 49.1198C11.9034 47.5247 10.8583 43.3444 11.7934 37.4588C11.9584 36.4136 12.1784 35.3686 12.4534 34.2684C11.3533 33.9934 10.3632 33.6634 9.3731 33.2783C3.81756 31.1881 0.737244 28.2178 0.737244 24.9175C0.737244 21.6722 3.81756 18.7019 9.3731 16.5567C10.3632 16.2266 11.3533 15.8966 12.4534 15.5666C12.1784 14.4664 11.9584 13.4213 11.7934 12.3762C10.8033 6.49066 11.8484 2.36523 14.7086 0.715072C15.5337 0.220022 16.5238 0 17.5689 0C20.7592 0 24.7197 2.31023 28.68 6.21562C32.6955 2.31023 36.7108 0 39.8461 0C40.8913 0 41.8814 0.220022 42.7064 0.715072C45.5667 2.36523 46.6119 6.54566 45.6767 12.5412C45.5117 13.5864 45.2917 14.6315 45.0167 15.7316C46.1167 16.0066 47.1069 16.3366 48.0971 16.7217C53.6525 18.8119 56.7328 21.7822 56.7328 25.0825C56.7328 28.3278 53.6525 31.2981 48.0971 33.4433C47.1069 33.7734 46.1167 34.1034 45.0167 34.4334C45.2917 35.5336 45.5117 36.5786 45.6767 37.6238C46.6669 43.5094 45.6217 47.6347 42.7614 49.285C41.9364 49.78 40.9463 50 39.9011 50ZM28.735 36.4136C27.6899 36.4136 26.6449 36.4136 25.6547 36.3586C26.6449 37.6788 27.6899 38.8889 28.735 40.0441C29.7802 38.8889 30.8252 37.6788 31.8153 36.3586C30.8252 36.4136 29.7802 36.4136 28.735 36.4136ZM19.1141 31.1714C19.0217 31.0134 18.9288 30.8541 18.8341 30.6931C18.2839 29.813 17.7889 28.8778 17.3489 27.9978C16.6888 29.538 16.1388 31.0781 15.6437 32.5633C17.1839 32.8933 18.7791 33.1683 20.4842 33.3883C19.9833 32.6598 19.5578 31.9312 19.1141 31.1714ZM20.4842 16.6117C18.7791 16.8317 17.1839 17.1067 15.6437 17.4367C16.0838 18.9219 16.6338 20.462 17.3489 22.0572C17.7889 21.1222 18.2839 20.242 18.8341 19.3069C19.3841 18.3719 19.9342 17.4917 20.4842 16.6117ZM21.0342 20.517C20.1542 22.0022 19.3841 23.4873 18.6691 24.9725C19.3841 26.4577 20.1542 27.9428 21.0342 29.428C21.8594 30.8581 22.7394 32.2883 23.7296 33.7184C25.3247 33.8284 26.9749 33.8834 28.735 33.8834C30.4402 33.8834 32.0903 33.8284 33.7405 33.7184C34.6756 32.2883 35.6108 30.8581 36.4358 29.428C37.316 27.9428 38.086 26.4577 38.8011 24.9725C38.086 23.4873 37.316 22.0022 36.4358 20.517C35.6108 19.0869 34.7306 17.6567 33.7405 16.2266C32.1453 16.1166 30.4952 16.0616 28.735 16.0616C27.0299 16.0616 25.3797 16.1166 23.7296 16.2266C22.7944 17.6567 21.8594 19.0869 21.0342 20.517ZM38.691 19.2519L40.1761 22.0022C40.8363 20.462 41.3863 18.9219 41.8814 17.3817C40.3413 17.0517 38.7461 16.7767 37.0408 16.5567C37.5417 17.2852 37.9672 18.0137 38.411 18.7736C38.5033 18.9316 38.5963 19.0909 38.691 19.2519ZM41.8814 32.5083C41.3863 31.0231 40.8363 29.483 40.1761 27.9428C39.6811 28.8778 39.1861 29.813 38.691 30.6381C38.141 31.5731 37.591 32.4531 37.041 33.3331C38.7461 33.1131 40.3413 32.8383 41.8814 32.5083ZM39.8461 47.4147C40.4513 47.4147 41.0013 47.3047 41.4413 47.0297C43.3114 45.9845 43.9166 42.6292 43.1464 37.9537C42.9814 36.9637 42.8164 35.9736 42.5414 34.9834C40.2311 35.5336 37.756 35.9186 35.1706 36.1386C33.6305 38.2839 32.0903 40.2091 30.4952 41.9142C33.7955 45.2145 37.151 47.4147 39.8461 47.4147ZM54.1475 24.9725C54.1475 22.4972 50.4622 19.802 44.3016 18.0419C43.6416 20.297 42.7064 22.6072 41.6063 24.9725C42.7064 27.3377 43.5866 29.648 44.3016 31.9031C45.2917 31.6281 46.2817 31.2981 47.1619 30.9681C51.6174 29.263 54.1475 27.1177 54.1475 24.9725ZM41.4963 2.9153C41.0013 2.64027 40.5063 2.53025 39.9011 2.53025C37.206 2.53025 33.8505 4.78548 30.5502 8.0308C32.1453 9.73597 33.7405 11.6612 35.2256 13.8064C37.811 14.0814 40.2863 14.4664 42.5964 14.9615C42.6433 14.739 42.6902 14.519 42.7364 14.3015C42.9077 13.4973 43.0716 12.7272 43.2014 11.9912C43.9716 7.26072 43.3114 3.96039 41.4963 2.9153ZM28.735 13.5314C29.7802 13.5314 30.8252 13.5314 31.8153 13.5864C30.8252 12.3212 29.7802 11.0561 28.735 9.90098C27.6899 11.0561 26.6449 12.2662 25.6547 13.5864C26.6449 13.5314 27.6899 13.5314 28.735 13.5314ZM17.6239 2.53025C17.0189 2.53025 16.4688 2.64027 16.0288 2.9153C14.1586 4.01541 13.5535 7.31573 14.3236 11.9912C14.4886 12.9813 14.6536 13.9714 14.9287 14.9615C17.2389 14.4114 19.7141 14.0264 22.2994 13.8064C23.8396 11.6612 25.3797 9.73597 26.9749 8.0308C23.6746 4.73047 20.3192 2.53025 17.6239 2.53025ZM3.32251 24.9725C3.32251 27.4478 7.00787 30.143 13.1685 31.9031C13.8286 29.703 14.7636 27.3377 15.8638 24.9725C14.7636 22.6072 13.8836 20.297 13.1685 18.0419C12.1784 18.3169 11.1883 18.6469 10.3082 18.9769C5.85276 20.682 3.32251 22.8273 3.32251 24.9725ZM14.7886 35.6436C14.6174 36.4477 14.4535 37.2178 14.3236 37.9537C13.5535 42.6292 14.1586 45.9845 16.0288 47.0297C16.5238 47.3047 17.0189 47.4147 17.6239 47.4147C20.3192 47.4147 23.6746 45.1595 26.9749 41.9142C25.3797 40.2091 23.7846 38.2839 22.2994 36.1386C19.7141 35.8636 17.2389 35.4786 14.9287 34.9834C14.8818 35.2061 14.835 35.4261 14.7886 35.6436Z" fill="#61DAFB"/>
</svg>
