<svg width="54" height="50" viewBox="0 0 54 50" fill="none" xmlns="http://www.w3.org/2000/svg">
<path d="M6.47761 9.84212C6.26677 9.88767 6.09597 9.99861 5.94941 10.1979C5.79827 10.4144 5.74465 10.7707 5.82233 11.0058C5.8879 11.2117 6.24583 11.6284 6.63813 11.9119C6.24786 12.4212 5.49726 13.4467 5.13435 13.9724C2.49777 17.7919 0.951934 21.2862 0.755606 23.8058C0.649451 25.1676 0.914101 26.12 1.54093 26.8603C2.00466 27.4059 2.54754 27.7161 3.42193 27.902C4.1393 28.0547 5.23738 28.0475 6.34538 27.8783C5.64877 28.8773 4.65408 30.4097 4.14132 31.2819C3.29485 32.7303 2.4278 34.5814 2.10182 35.6408C1.52807 37.4872 1.45441 39.0039 1.83679 40.4508C2.07022 41.3394 2.44654 42.0531 2.95802 42.6009C3.47886 43.1587 4.14113 43.5484 4.95088 43.7681C6.27743 44.127 8.22474 44.0248 10.6839 43.4458C11.202 43.3251 11.9974 43.1033 12.5906 42.9272C12.0617 44.7773 12.1206 46.4667 12.7142 47.6789C12.9063 48.0686 13.4426 48.7259 13.7636 48.9678C15.6816 50.3995 19.714 50.3459 25.1249 48.6492C25.558 48.5141 26.7815 48.0911 27.3908 47.8695C27.8071 48.4258 28.1954 48.6447 29.0954 48.753C29.6808 48.8167 30.1613 48.7226 30.6163 48.4608C30.8243 48.34 30.9468 48.2215 31.0166 48.1111C31.1299 47.9311 31.151 47.7456 31.0724 47.5241C30.9971 47.3164 30.8885 47.1928 30.6936 47.1053C30.5818 47.055 30.4177 47.0189 30.1518 46.9987C29.9438 46.9848 29.8707 46.9767 29.7602 46.8981L29.7944 46.8694C30.7418 46.4687 32.7869 45.4469 34.0491 44.7437C38.665 42.1686 43.5974 38.5394 46.8821 35.2992C49.8586 32.3661 52.7432 28.7056 53.3391 27.1378C53.5196 26.6676 53.5693 26.1791 53.4929 25.7989C53.4285 25.5017 53.3929 25.4209 53.1063 25.0794C52.8032 24.7181 52.7396 24.6842 52.46 24.5734C51.5293 24.2073 50.0914 24.6106 47.2583 26.3412C43.6339 28.5542 38.2552 32.663 34.4652 36.1192C30.7322 39.5201 28.28 42.4922 27.3704 44.6728C27.2611 44.9358 27.2643 45.0584 27.2074 45.0894C27.149 45.122 26.6446 45.3186 26.0902 45.5366C23.0346 46.7223 20.3724 47.4026 18.3835 47.4898C17.8352 47.5148 16.9593 47.4558 16.5266 47.3625C16.1638 47.2851 15.7182 47.1092 15.5493 46.9489C15.3389 46.7533 15.2566 46.425 15.2423 46.0119C15.2241 45.4908 15.329 44.8403 15.5491 44.0841C15.6994 43.5731 16.2277 42.2522 16.4913 41.7387L17.1099 41.4053C20.443 40.1445 24.2152 38.3194 27.7482 36.2586C32.5199 33.4744 38.0124 29.6139 42.9304 25.5775C45.8605 23.1722 47.4361 21.6553 48.9299 19.8095C50.0961 18.3689 51.0407 16.7459 51.2557 15.8416C51.4114 15.199 51.3907 14.6233 51.2204 14.138C51.041 13.6265 50.6971 13.2074 50.1921 12.9116C48.8775 12.1411 46.495 12.4447 43.2754 13.8967C40.2305 15.2697 36.4241 17.6359 32.1241 20.8797C29.5546 22.8128 25.9574 25.805 24.0563 27.5859C19.205 32.1364 15.8816 36.0939 14.0386 39.5008L13.9135 39.7336C12.283 40.3467 9.76507 41.0584 8.5039 41.273C7.45246 41.4489 6.43794 41.4959 5.8418 41.3786C5.47283 41.3067 5.19202 41.1894 4.98596 40.9775C4.77199 40.7576 4.64196 40.4458 4.54683 40.0301C4.40155 39.3792 4.44472 38.3089 4.63885 37.5169C5.23866 35.0742 7.21683 31.5667 10.2363 27.5428L10.8914 26.6722L11.5677 26.4108C16.0418 24.6928 21.5963 21.6023 26.5224 18.0856C29.253 16.1347 32.1886 13.7132 34.1836 11.7628C35.7686 10.2137 37.0357 8.78592 38.0146 7.45109C38.8769 6.26981 39.4193 5.2722 39.6635 4.42498C39.9357 3.48044 39.8504 2.70559 39.4596 2.05067C39.1608 1.55002 38.7074 1.21356 38.1325 1.05672C37.6069 0.913286 36.9718 0.923387 36.2604 1.11366C34.1957 1.67289 31.1182 3.52011 26.7196 6.87312C25.6255 7.71134 22.018 10.7382 20.941 11.7219C16.4471 15.8428 12.4657 20.0536 9.09344 24.2466L8.45615 25.0405L8.09857 25.1466C7.06036 25.4528 5.86843 25.6789 5.02433 25.7297C4.53049 25.7592 3.87666 25.6906 3.59218 25.5611C3.44177 25.4947 3.4179 25.4766 3.33029 25.3572C3.17602 25.1445 3.13983 24.9408 3.12735 24.5336C3.0638 22.7552 4.29558 19.7469 6.34024 16.5575C7.11968 15.343 8.01721 14.0976 8.97277 12.9029L9.43503 12.3248C10.9008 11.8702 12.3554 10.947 14.5457 9.10915C17.0611 6.99306 19.5205 4.3293 20.2038 3.41194C21.0018 2.34048 21.3072 1.27527 21.174 0.855434C21.0838 0.586928 20.9083 0.36397 20.6896 0.213005C20.4604 0.0550595 20.1869 -0.0220044 19.9249 0.00547069C19.5388 0.0447733 18.6535 0.517873 17.4772 1.37316C16.6444 1.97592 14.3335 3.88264 13.3218 4.80094C11.4768 6.47147 10.2591 7.69536 8.73788 9.40264L8.25761 9.94001C7.84402 10.0263 7.45797 9.99217 7.1228 9.89281C6.85447 9.81512 6.64713 9.80558 6.47761 9.84212ZM24.854 12.1138C26.134 11.0028 26.6736 10.5553 28.4316 9.13836C30.5546 7.43015 32.8905 5.80939 34.6029 4.85456C35.4421 4.3855 36.2275 4.0147 36.8397 3.8922C36.6985 4.18806 36.4814 4.56016 36.2471 4.91425C35.1069 6.62355 33.3716 8.56792 30.7688 11.0554C29.9833 11.8089 26.0622 15.0936 25.0841 15.8252C21.7865 18.2819 18.7454 20.24 15.6188 21.9119C15.2204 22.1242 14.7442 22.3697 14.285 22.6016C17.5271 18.9344 21.1897 15.2995 24.854 12.1138ZM41.2322 18.2962C44.536 16.3 47.3571 15.132 48.6949 15.069C48.6643 15.1816 48.6169 15.3204 48.5639 15.4431C48.0421 16.6773 46.5755 18.4748 44.4832 20.4781C43.6218 21.3006 40.2575 24.1069 38.69 25.3119C31.1835 31.0653 25.0219 34.9406 19.031 37.6567C20.0807 36.2367 21.5557 34.49 22.9508 33.0261C25.5719 30.2744 28.7858 27.3619 31.9983 24.8294C35.571 22.0105 38.4269 19.9925 41.2322 18.2962ZM43.226 32.7444C45.679 30.8253 47.8713 29.2878 49.4902 28.3422C49.3363 28.5494 49.178 28.7573 49.0286 28.9464C46.4457 32.2201 43.358 35.1558 39.5032 37.9919C37.2408 39.6553 34.8972 41.1737 32.619 42.4475C33.931 40.9381 35.5925 39.2861 37.8546 37.2358C38.4436 36.6994 42.4454 33.3522 43.226 32.7444Z" fill="#333333"/>
<path d="M25.164 40.0953C33.0661 40.0953 39.4722 33.677 39.4722 25.7597C39.4722 17.8422 33.0661 11.4238 25.164 11.4238C17.2618 11.4238 10.8556 17.8422 10.8556 25.7597C10.8556 33.677 17.2618 40.0953 25.164 40.0953Z" fill="url(#paint0_radial_307_336)"/>
<path fill-rule="evenodd" clip-rule="evenodd" d="M1.54093 26.8744C0.914101 26.1341 0.649451 25.1819 0.755606 23.8198L3.12735 24.5476C3.13983 24.9548 3.17602 25.1587 3.33029 25.3714C3.4179 25.4906 3.44177 25.5087 3.59218 25.5753C3.87666 25.7045 4.53049 25.7733 5.02433 25.7439C5.86843 25.6928 8.09857 25.1608 8.09857 25.1608L14.285 22.6156C14.285 22.6156 15.2204 22.1383 15.6188 21.9259C18.7454 20.2542 21.7865 18.2961 25.0841 15.8392C26.0622 15.1077 29.9833 11.823 30.7688 11.0693C33.3716 8.58206 35.1071 6.6375 36.2471 4.9282C36.4814 4.5743 36.6218 4.20717 36.8397 3.90616L38.1325 1.07086C38.6969 1.21669 39.1608 1.56417 39.4596 2.06462C39.8504 2.71973 39.9357 3.49458 39.6635 4.43912C39.4193 5.28634 38.8769 6.28395 38.0147 7.46506C37.0357 8.80006 35.7686 10.2278 34.1836 11.777C32.1886 13.7274 29.253 16.1487 26.5224 18.0995C21.5963 21.6166 16.0418 24.7069 11.5677 26.4248L10.8914 26.6864L8.50904 27.4059L6.34538 27.8925C5.23738 28.0616 4.1393 28.0687 3.42193 27.9161C2.54754 27.7302 2.00466 27.4198 1.54093 26.8744Z" fill="#333333"/>
<path fill-rule="evenodd" clip-rule="evenodd" d="M2.95802 42.6152C2.44654 42.067 2.07022 41.3536 1.83679 40.4647L4.54683 40.0441C4.64197 40.4598 4.77199 40.7716 4.98596 40.9916C5.19202 41.2036 5.47283 41.3209 5.8418 41.3925C6.43794 41.51 7.45246 41.463 8.5039 41.287C9.76507 41.0726 12.283 40.3609 13.9135 39.7475L19.031 37.6708C25.0222 34.9547 31.1835 31.0792 38.69 25.3261C40.2575 24.1211 43.6218 21.3145 44.4832 20.4922C46.5754 18.4891 48.0421 16.6912 48.5639 15.4572C48.6169 15.3346 48.6643 15.1957 48.6949 15.0829L50.1921 12.9255C50.6971 13.2216 51.041 13.6407 51.2204 14.1522C51.3907 14.6374 51.4114 15.2132 51.2557 15.8556C51.0407 16.7602 50.0961 18.383 48.9299 19.8237C47.4361 21.6694 45.8605 23.1861 42.9304 25.5916C38.0122 29.628 32.5199 33.4884 27.7482 36.2726C24.2152 38.3336 20.443 40.1587 17.1099 41.4195L16.4913 41.7528L12.5906 42.9412C11.9974 43.1172 11.202 43.3391 10.6839 43.46C8.22474 44.0391 6.27743 44.1409 4.95069 43.7822C4.14113 43.5626 3.47886 43.1728 2.95802 42.6152Z" fill="#333333"/>
<path fill-rule="evenodd" clip-rule="evenodd" d="M25.1249 48.6633C19.714 50.3601 15.6816 50.4137 13.7636 48.9819L15.5493 46.963C15.7182 47.1233 16.1638 47.2992 16.5266 47.3764C16.9593 47.4698 17.8352 47.5291 18.3835 47.5041C20.3724 47.4169 23.0346 46.7366 26.0902 45.5506C26.6446 45.3325 27.149 45.1359 27.2074 45.1034L32.619 42.4614C34.8972 41.188 37.2408 39.6694 39.5032 38.0061C43.358 35.1698 46.4457 32.2342 49.0286 28.9606C49.178 28.7714 49.3363 28.5636 49.49 28.3564L52.46 24.5875C52.7399 24.6983 52.8032 24.7323 53.1063 25.0936C53.3929 25.4352 53.4285 25.5159 53.493 25.8131C53.5693 26.1933 53.5196 26.6817 53.3391 27.1517C52.7433 28.7198 49.8586 32.3801 46.8821 35.3131C43.5974 38.5536 38.665 42.1828 34.0491 44.7576C32.7869 45.4611 30.7418 46.483 29.7944 46.8834L29.7602 46.9123L27.3908 47.8837C26.7815 48.1051 25.558 48.5281 25.1249 48.6633Z" fill="#333333"/>
<defs>
<radialGradient id="paint0_radial_307_336" cx="0" cy="0" r="1" gradientUnits="userSpaceOnUse" gradientTransform="translate(-149.529 55.3022) rotate(51.5052) scale(57.9495 59.9423)">
<stop stop-color="white" stop-opacity="0.904382"/>
<stop offset="1" stop-color="#FF6D6D"/>
</radialGradient>
</defs>
</svg>
