<svg width="54" height="50" viewBox="0 0 54 50" fill="none" xmlns="http://www.w3.org/2000/svg">
<path d="M36.9082 34.8939C38.8173 34.7291 40.2981 33.0484 40.2013 31.0405C40.1003 29.0325 38.4548 27.4198 36.449 27.4198H36.3149C34.2434 27.488 32.6285 29.2302 32.6945 31.3062C32.7604 32.3586 33.191 33.2155 33.7798 33.8394C31.4774 38.3167 28.0217 41.6077 22.7863 44.3736C19.2646 46.2147 15.5453 46.9089 11.9247 46.4145C8.89728 45.9884 6.52899 44.6352 5.07902 42.4645C2.90844 39.1712 2.71072 35.6189 4.5188 32.0642C5.83916 29.4961 7.812 27.6198 9.13016 26.6972C8.80061 25.8425 8.40517 24.3947 8.20744 23.3095C-1.53815 30.2891 -0.547335 39.8327 2.41413 44.343C4.61984 47.6339 9.13016 49.7386 14.0667 49.7386C15.3826 49.7386 16.7667 49.6419 18.1156 49.3123C26.6749 47.6669 33.1581 42.5327 36.8774 34.962L36.9082 34.8939ZM48.6574 26.6642C43.5584 20.6731 36.0513 17.3822 27.4921 17.3822H26.3717C25.8159 16.165 24.5329 15.4071 23.0829 15.4071H22.984C20.9123 15.4071 19.2976 17.1866 19.3657 19.2583C19.4315 21.2311 21.1101 22.8789 23.1181 22.8789H23.2806C24.7635 22.813 26.0465 21.8903 26.5717 20.5742H27.7909C32.8637 20.5742 37.6662 22.055 42.0446 24.9506C45.3993 27.1562 47.8049 30.0519 49.1538 33.5098C50.3359 36.3395 50.2721 39.1055 49.0551 41.4122C47.1788 45.0305 44.0174 46.9419 39.8388 46.9419C37.2048 46.9419 34.6387 46.118 33.3206 45.527C32.532 46.1817 31.2137 47.2692 30.2581 47.9283C33.1537 49.242 36.0843 50 38.914 50C45.3334 50 50.1029 46.3817 51.9154 42.8908C53.8882 38.9406 53.7257 32.2927 48.6881 26.5983L48.6574 26.6642ZM14.6246 36.0758C14.6884 38.0509 16.3668 39.6964 18.3771 39.6964H18.5088C20.6157 39.6305 22.2282 37.8883 22.1295 35.8122C22.1295 33.8372 20.4181 32.1939 18.4099 32.1939H18.276C18.1442 32.1939 17.9487 32.1939 17.7817 32.2575C15.0509 27.6484 13.8975 22.7097 14.3281 17.3822C14.5895 13.3661 15.9078 9.87522 18.276 6.97966C20.251 4.5103 23.9704 3.291 26.5057 3.2273C33.6149 3.09328 36.5787 11.9513 36.8071 15.473L40.0981 16.4594C39.3403 5.66369 32.6285 0 26.2092 0C20.1851 0 14.6246 4.37848 12.3838 10.7979C9.32349 19.3572 11.3315 27.5847 15.0838 34.1689C14.7565 34.5973 14.5588 35.353 14.6246 36.0758Z" fill="#333333"/>
</svg>
