<svg width="67" height="50" viewBox="0 0 67 50" fill="none" xmlns="http://www.w3.org/2000/svg">
<path d="M57.7167 28.7387C55.3834 28.7491 53.363 29.3117 51.6756 30.145C51.0611 28.9052 50.4256 27.822 50.3213 27.0097C50.1967 26.0617 50.0609 25.4995 50.2069 24.3745C50.353 23.2494 51.0089 21.6558 50.9986 21.5414C50.9883 21.4269 50.8527 20.8539 49.5091 20.8434C48.1655 20.8331 47.0095 21.1037 46.8739 21.458C46.7383 21.812 46.4783 22.6142 46.322 23.4475C46.0823 24.6661 43.6345 29.02 42.2491 31.2906C41.7909 30.4055 41.4056 29.6241 41.3222 28.9992C41.1972 28.0511 41.0617 27.4889 41.2077 26.3639C41.3534 25.2387 42.0095 23.6452 41.9991 23.5308C41.9886 23.4162 41.8533 22.8433 40.5098 22.8328C39.1661 22.8225 38.0102 23.0931 37.8745 23.4475C37.7391 23.8014 37.5933 24.6348 37.3225 25.4372C37.0519 26.2387 33.7914 33.4881 32.9374 35.3736C32.4997 36.3317 32.125 37.1025 31.8541 37.6234C31.8127 37.7067 31.7814 37.7589 31.7605 37.8006C31.7916 37.7486 31.8127 37.6962 31.8127 37.7175C31.5834 38.165 31.448 38.4151 31.448 38.4151V38.4255C31.2708 38.7586 31.073 39.0606 30.9792 39.0606C30.9167 39.0606 30.7814 38.1859 31.0106 36.988C31.5 34.4673 32.6561 30.5514 32.6458 30.4156C32.6353 30.3428 32.8644 29.6658 31.8853 29.3011C30.9375 28.9573 30.5938 29.5305 30.5105 29.5305C30.4274 29.5305 30.3647 29.7389 30.3647 29.7389C30.3647 29.7389 31.4167 25.3225 28.3441 25.3225C26.4275 25.3225 23.7613 27.4267 22.4489 29.3327C21.6259 29.7806 19.8447 30.7492 17.97 31.7803C17.2513 32.1761 16.5117 32.5822 15.8139 32.9678C15.7619 32.9155 15.7201 32.8634 15.6681 32.8114C11.9392 28.8328 5.05436 26.0205 5.34615 20.6769C5.45023 18.7291 6.12732 13.6152 18.5847 7.40727C28.7922 2.32434 36.958 3.72014 38.3644 6.82395C40.3848 11.2508 33.9999 19.4897 23.3967 20.6769C19.3553 21.1248 17.2308 19.5625 16.6995 18.9794C16.1474 18.3648 16.0639 18.3334 15.8557 18.448C15.5118 18.6355 15.7307 19.1772 15.8557 19.5C16.1681 20.3228 17.47 21.7811 19.6888 22.5102C21.6363 23.1455 26.3756 23.4998 32.1042 21.2811C38.5411 18.802 43.5513 11.8963 42.0825 6.1157C40.5828 0.241323 30.8441 -1.68573 21.6261 1.58478C16.137 3.53256 10.2 6.59492 5.92947 10.584C0.856991 15.3338 0.0446538 19.4687 0.377764 21.1978C1.56525 27.3327 10.0228 31.3323 13.4079 34.2903C13.2412 34.3842 13.085 34.4675 12.9393 34.5508C11.2416 35.3944 4.79417 38.7691 3.17964 42.3317C1.35709 46.373 3.48157 49.2683 4.87737 49.6644C9.23115 50.8723 13.6892 48.6956 16.0849 45.1228C18.4803 41.5503 18.1888 36.8841 17.0847 34.7592C17.0742 34.728 17.0534 34.7073 17.0431 34.6758C17.4805 34.4156 17.9283 34.1552 18.3763 33.8948C19.2406 33.3844 20.0845 32.9155 20.8239 32.5095C20.4072 33.6345 20.1052 34.988 19.9489 36.9466C19.7616 39.2378 20.7094 42.2064 21.9384 43.3731C22.4799 43.8834 23.1361 43.8941 23.5425 43.8941C24.9799 43.8941 25.6255 42.7064 26.3442 41.2898C27.2295 39.5606 28.0108 37.5503 28.0108 37.5503C28.0108 37.5503 27.0317 42.9878 29.7084 42.9878C30.6875 42.9878 31.6669 41.7273 32.1041 41.0816V41.0919C32.1041 41.0919 32.125 41.0505 32.177 40.9672C32.2811 40.8108 32.3331 40.717 32.3331 40.717V40.6856C32.7289 40.0086 33.5936 38.4566 34.8953 35.8945C36.583 32.582 38.1972 28.4469 38.1972 28.4469C38.1972 28.4469 38.343 29.4575 38.8433 31.1344C39.1347 32.1239 39.7492 33.207 40.2388 34.2592C39.8431 34.8008 39.6033 35.1133 39.6033 35.1133C39.6033 35.1133 39.6034 35.1236 39.6134 35.1341C39.3011 35.5509 38.9472 35.9987 38.5825 36.4362C37.2492 38.0194 35.6661 39.8319 35.4578 40.3526C35.2077 40.9672 35.2703 41.4251 35.7495 41.7795C36.1036 42.0505 36.7286 42.0919 37.3847 42.04C38.5825 41.9564 39.4263 41.665 39.8324 41.4772C40.478 41.2484 41.2281 40.8836 41.9364 40.3733C43.2384 39.4153 44.0302 38.0405 43.957 36.228C43.9155 35.2281 43.5924 34.228 43.1966 33.2909C43.3113 33.1241 43.4363 32.9467 43.5508 32.77C45.6134 29.7594 47.2069 26.4581 47.2069 26.4581C47.2069 26.4581 47.3528 27.4681 47.8525 29.1452C48.1027 29.9889 48.5922 30.9159 49.0398 31.8219C47.1025 33.3948 45.9049 35.2178 45.4881 36.4153C44.7174 38.6341 45.3214 39.6336 46.4567 39.8633C46.9672 39.9673 47.6963 39.7275 48.238 39.4984C48.915 39.2692 49.7275 38.9047 50.4877 38.3422C51.7897 37.3842 53.0502 36.0403 52.9669 34.2177C52.9355 33.3947 52.7064 32.5719 52.4044 31.7803C54.0395 31.0931 56.1647 30.7178 58.8727 31.0305C64.6742 31.7073 65.8094 35.332 65.5906 36.8422C65.3722 38.3631 64.1536 39.1964 63.7472 39.4464C63.3408 39.6964 63.2159 39.7901 63.2473 39.9776C63.2994 40.2484 63.4867 40.2381 63.8305 40.1753C64.3098 40.0922 66.8719 38.9462 66.9863 36.1444C67.1533 32.603 63.7475 28.7077 57.7167 28.7387ZM13.0018 43.8105C11.0854 45.9041 8.39807 46.6956 7.24204 46.0289C6.00253 45.3106 6.49204 42.2273 8.85643 39.9981C10.2938 38.6442 12.1478 37.3945 13.3769 36.6237C13.6581 36.4572 14.0644 36.2072 14.5644 35.905C14.6477 35.8533 14.6894 35.8323 14.6894 35.8323C14.783 35.7695 14.8872 35.7177 14.9914 35.655C15.8557 38.8214 15.0225 41.6127 13.0018 43.8105ZM27.0006 34.2903C26.3341 35.9255 24.9278 40.092 24.0741 39.8733C23.3449 39.6856 22.8967 36.5089 23.9281 33.3844C24.4489 31.8114 25.5528 29.9367 26.2092 29.2078C27.2609 28.0306 28.4172 27.6555 28.6881 28.1244C29.0525 28.7387 27.4172 33.2697 27.0006 34.2903ZM38.562 39.8111C38.2809 39.9567 38.0205 40.0503 37.8955 39.9775C37.8019 39.9255 38.0102 39.7273 38.0102 39.7273C38.0102 39.7273 39.4577 38.1755 40.0306 37.4669C40.3639 37.0505 40.7492 36.5608 41.1659 36.0194C41.1659 36.0711 41.1761 36.1236 41.1761 36.1858C41.1661 38.0505 39.3747 39.3111 38.562 39.8111ZM47.4781 37.7797C47.2698 37.6339 47.3008 37.1444 47.9988 35.6236C48.2697 35.0298 48.8948 34.03 49.9778 33.0717C50.1028 33.4675 50.1756 33.8423 50.1756 34.1964C50.165 36.5401 48.4883 37.415 47.4781 37.7797Z" fill="#CF649A"/>
</svg>
