<svg width="51" height="50" viewBox="0 0 51 50" fill="none" xmlns="http://www.w3.org/2000/svg">
<path d="M48.468 0H3.15552C1.8611 0 0.811768 1.04933 0.811768 2.34375V47.6562C0.811768 48.9507 1.8611 50 3.15552 50H48.468C49.7624 50 50.8118 48.9507 50.8118 47.6562V2.34375C50.8118 1.04933 49.7624 0 48.468 0Z" fill="#3178C6"/>
<path fill-rule="evenodd" clip-rule="evenodd" d="M29.8204 38.8547V44.3336C30.7081 44.7898 31.7579 45.1324 32.9699 45.3605C34.1818 45.5891 35.4592 45.7031 36.8021 45.7031C38.1108 45.7031 39.354 45.5777 40.5317 45.3266C41.7098 45.0754 42.7422 44.6617 43.6301 44.0852C44.5176 43.5086 45.2204 42.7555 45.7383 41.825C46.2559 40.8949 46.5149 39.7449 46.5149 38.3753C46.5149 37.3823 46.3668 36.512 46.0711 35.7643C45.775 35.0167 45.3485 34.3518 44.7907 33.7697C44.2333 33.1876 43.5645 32.6654 42.7852 32.2031C42.0055 31.7409 41.1266 31.3043 40.1477 30.8934C39.4308 30.5966 38.7879 30.3084 38.2189 30.0287C37.6499 29.7491 37.1662 29.4637 36.7679 29.1727C36.3696 28.8816 36.0624 28.5734 35.8461 28.2481C35.6299 27.9229 35.5218 27.5547 35.5218 27.1438C35.5218 26.7671 35.6185 26.4276 35.812 26.1251C36.0055 25.8227 36.2786 25.563 36.6314 25.3461C36.9841 25.1293 37.4166 24.9609 37.9287 24.8411C38.4408 24.7212 39.0098 24.6613 39.6357 24.6613C40.0911 24.6613 40.5715 24.6955 41.0782 24.764C41.5844 24.8325 42.0938 24.938 42.6059 25.0807C43.118 25.2234 43.6157 25.4032 44.0997 25.62C44.5833 25.8369 45.0297 26.088 45.4395 26.3734V21.2542C44.6086 20.9346 43.7012 20.6977 42.7168 20.5436C41.7325 20.3895 40.6032 20.3125 39.3284 20.3125C38.0311 20.3125 36.8021 20.4523 35.6413 20.732C34.4806 21.0116 33.4592 21.4482 32.5772 22.0417C31.6953 22.6353 30.9983 23.3914 30.4862 24.3103C29.9741 25.2291 29.718 26.3277 29.718 27.6061C29.718 29.2383 30.1874 30.6308 31.1263 31.7836C32.0652 32.9365 33.4905 33.9124 35.4023 34.7114C36.1534 35.0195 36.8533 35.322 37.5019 35.6188C38.1506 35.9155 38.7111 36.2237 39.1833 36.5433C39.6556 36.8629 40.0282 37.2111 40.3012 37.5877C40.5747 37.9644 40.711 38.3924 40.711 38.8718C40.711 39.2258 40.6258 39.5539 40.4551 39.8562C40.2844 40.1586 40.0254 40.4211 39.6784 40.6437C39.3313 40.8664 38.8988 41.0406 38.381 41.166C37.8633 41.2914 37.2573 41.3543 36.5631 41.3543C35.3795 41.3543 34.2074 41.1461 33.0467 40.7293C31.8859 40.3129 30.8105 39.6879 29.8204 38.8547ZM20.6175 25.2166H27.7649V20.7031H7.84302V25.2166H14.9555V45.3125H20.6175V25.2166Z" fill="white"/>
</svg>
