<svg width="46" height="50" viewBox="0 0 46 50" fill="none" xmlns="http://www.w3.org/2000/svg">
<path d="M44.4485 38.5372L24.1839 50V41.0721L36.8099 34.1266L44.4485 38.5372ZM45.8347 37.2819V13.3094L38.4191 17.5892V32.9973L45.8347 37.2819ZM2.14047 38.5372L22.4051 50V41.0721L9.77909 34.1266L2.14047 38.5372ZM0.754272 37.2819V13.3094L8.16994 17.5892V32.9973L0.754272 37.2819ZM1.62186 11.7584L22.4051 0V8.63222L9.09084 15.9558L8.98905 16.014L1.62186 11.7584ZM44.9671 11.7584L24.1839 0V8.63222L37.4982 15.9558L37.5999 16.014L44.9671 11.7584Z" fill="#8ED6FB"/>
<path d="M22.4051 39.0413L9.94872 32.1927V18.6216L22.4051 25.8143V39.0413ZM24.1839 39.0413L36.6403 32.1927V18.6216L24.1839 25.8143V39.0413ZM10.7921 17.0512L23.2969 10.1735L35.8018 17.0512L23.2969 24.273L10.7921 17.0512Z" fill="#1C78C0"/>
</svg>
